<?xml version="1.0" encoding="utf-8"?>
<!-- Generator: Adobe Illustrator 18.1.1, SVG Export Plug-In . SVG Version: 6.00 Build 0)  -->
<svg version="1.1" id="Calque_1" xmlns="http://www.w3.org/2000/svg" xmlns:xlink="http://www.w3.org/1999/xlink" x="0px" y="0px"
	 viewBox="0 0 841.9 595.3" enable-background="new 0 0 841.9 595.3" xml:space="preserve">
<g>
	<g>
		<rect x="135.1" y="120.1" fill="#DED6E8" width="162.6" height="393.9"/>
		<path fill="#1E2538" d="M297.7,514.5H135.1c-0.3,0-0.5-0.2-0.5-0.5V120.1c0-0.3,0.2-0.5,0.5-0.5h162.6c0.3,0,0.5,0.2,0.5,0.5V514
			C298.2,514.2,298,514.5,297.7,514.5z M135.6,513.5h161.6V120.6H135.6V513.5z"/>
	</g>
	<g>
		<rect x="330.7" y="237" fill="#EDEDED" width="162.6" height="278.9"/>
		<path fill="#1E2538" d="M493.4,516.4H330.7c-0.3,0-0.5-0.2-0.5-0.5V237c0-0.3,0.2-0.5,0.5-0.5h162.6c0.3,0,0.5,0.2,0.5,0.5v278.9
			C493.9,516.1,493.6,516.4,493.4,516.4z M331.2,515.4h161.6V237.5H331.2V515.4z"/>
	</g>
	<g>
		<rect x="525.8" y="183" fill="#A49BB2" width="162.6" height="332.9"/>
		<path fill="#1E2538" d="M688.4,516.4H525.8c-0.3,0-0.5-0.2-0.5-0.5V183c0-0.3,0.2-0.5,0.5-0.5h162.6c0.3,0,0.5,0.2,0.5,0.5v332.9
			C688.9,516.1,688.7,516.4,688.4,516.4z M526.3,515.4h161.6V183.5H526.3V515.4z"/>
	</g>
	<g>
		<path fill="#1E2538" d="M84.9,592.6c-0.3,0-0.5-0.2-0.5-0.5V3.2c0-0.3,0.2-0.5,0.5-0.5s0.5,0.2,0.5,0.5v588.9
			C85.4,592.4,85.1,592.6,84.9,592.6z"/>
	</g>
	<g>
		<path fill="#1E2538" d="M792,561.5h-742c-0.3,0-0.5-0.2-0.5-0.5s0.2-0.5,0.5-0.5h742c0.3,0,0.5,0.2,0.5,0.5S792.2,561.5,792,561.5
			z"/>
	</g>
	<g>
		<path fill="#1E2538" d="M108.4,26.5c-0.1,0-0.3,0-0.3-0.1L84.9,3.9L62.4,26.4c-0.2,0.2-0.5,0.2-0.7,0s-0.2-0.5,0-0.7L84.5,2.8
			c0.2-0.2,0.5-0.2,0.7,0l23.5,22.9c0.2,0.2,0.2,0.5,0,0.7C108.6,26.5,108.5,26.5,108.4,26.5z"/>
	</g>
	<g>
		<path fill="#1E2538" d="M769.1,585c-0.1,0-0.3,0-0.3-0.1c-0.2-0.2-0.2-0.5,0-0.7l22.5-23.2l-22.5-22.5c-0.2-0.2-0.2-0.5,0-0.7
			s0.5-0.2,0.7,0l22.9,22.9c0.2,0.2,0.2,0.5,0,0.7l-22.9,23.5C769.4,584.9,769.2,585,769.1,585z"/>
	</g>
	<g>
		<rect x="188.4" y="447.3" fill="#898293" width="55.9" height="66.7"/>
		<path fill="#1E2538" d="M244.3,514.5h-55.9c-0.3,0-0.5-0.2-0.5-0.5v-66.7c0-0.3,0.2-0.5,0.5-0.5h55.9c0.3,0,0.5,0.2,0.5,0.5V514
			C244.8,514.2,244.6,514.5,244.3,514.5z M188.9,513.5h54.9v-65.7h-54.9V513.5z"/>
	</g>
	<g>
		<rect x="398.1" y="448.5" fill="#706F6F" width="28.6" height="66.7"/>
		<path fill="#1E2538" d="M426.7,515.7h-28.6c-0.3,0-0.5-0.2-0.5-0.5v-66.7c0-0.3,0.2-0.5,0.5-0.5h28.6c0.3,0,0.5,0.2,0.5,0.5v66.7
			C427.2,515.5,426.9,515.7,426.7,515.7z M398.6,514.7h27.6V449h-27.6V514.7z"/>
	</g>
	<g>
		<g>
			<path fill="#1E2538" d="M189.7,428.1c-0.3,0-0.5-0.2-0.5-0.5v-20.3c0-0.3,0.2-0.5,0.5-0.5s0.5,0.2,0.5,0.5v20.3
				C190.2,427.8,190,428.1,189.7,428.1z"/>
		</g>
		<g>
			<path fill="#1E2538" d="M189.7,389.9c-0.3,0-0.5-0.2-0.5-0.5v-20.3c0-0.3,0.2-0.5,0.5-0.5s0.5,0.2,0.5,0.5v20.3
				C190.2,389.7,190,389.9,189.7,389.9z"/>
		</g>
		<g>
			<path fill="#1E2538" d="M189.7,351.8c-0.3,0-0.5-0.2-0.5-0.5V331c0-0.3,0.2-0.5,0.5-0.5s0.5,0.2,0.5,0.5v20.3
				C190.2,351.6,190,351.8,189.7,351.8z"/>
		</g>
		<g>
			<path fill="#1E2538" d="M189.7,313.7c-0.3,0-0.5-0.2-0.5-0.5v-20.3c0-0.3,0.2-0.5,0.5-0.5s0.5,0.2,0.5,0.5v20.3
				C190.2,313.5,190,313.7,189.7,313.7z"/>
		</g>
		<g>
			<path fill="#1E2538" d="M189.7,275.6c-0.3,0-0.5-0.2-0.5-0.5v-20.3c0-0.3,0.2-0.5,0.5-0.5s0.5,0.2,0.5,0.5v20.3
				C190.2,275.4,190,275.6,189.7,275.6z"/>
		</g>
		<g>
			<path fill="#1E2538" d="M189.7,237.5c-0.3,0-0.5-0.2-0.5-0.5v-20.3c0-0.3,0.2-0.5,0.5-0.5s0.5,0.2,0.5,0.5V237
				C190.2,237.2,190,237.5,189.7,237.5z"/>
		</g>
		<g>
			<path fill="#1E2538" d="M189.7,199.4c-0.3,0-0.5-0.2-0.5-0.5v-20.3c0-0.3,0.2-0.5,0.5-0.5s0.5,0.2,0.5,0.5v20.3
				C190.2,199.1,190,199.4,189.7,199.4z"/>
		</g>
		<g>
			<path fill="#1E2538" d="M189.7,161.2c-0.3,0-0.5-0.2-0.5-0.5v-20.3c0-0.3,0.2-0.5,0.5-0.5s0.5,0.2,0.5,0.5v20.3
				C190.2,161,190,161.2,189.7,161.2z"/>
		</g>
	</g>
	<g>
		<g>
			<path fill="#1E2538" d="M215.1,428.1c-0.3,0-0.5-0.2-0.5-0.5v-20.3c0-0.3,0.2-0.5,0.5-0.5s0.5,0.2,0.5,0.5v20.3
				C215.6,427.8,215.4,428.1,215.1,428.1z"/>
		</g>
		<g>
			<path fill="#1E2538" d="M215.1,389.9c-0.3,0-0.5-0.2-0.5-0.5v-20.3c0-0.3,0.2-0.5,0.5-0.5s0.5,0.2,0.5,0.5v20.3
				C215.6,389.7,215.4,389.9,215.1,389.9z"/>
		</g>
		<g>
			<path fill="#1E2538" d="M215.1,351.8c-0.3,0-0.5-0.2-0.5-0.5V331c0-0.3,0.2-0.5,0.5-0.5s0.5,0.2,0.5,0.5v20.3
				C215.6,351.6,215.4,351.8,215.1,351.8z"/>
		</g>
		<g>
			<path fill="#1E2538" d="M215.1,313.7c-0.3,0-0.5-0.2-0.5-0.5v-20.3c0-0.3,0.2-0.5,0.5-0.5s0.5,0.2,0.5,0.5v20.3
				C215.6,313.5,215.4,313.7,215.1,313.7z"/>
		</g>
		<g>
			<path fill="#1E2538" d="M215.1,275.6c-0.3,0-0.5-0.2-0.5-0.5v-20.3c0-0.3,0.2-0.5,0.5-0.5s0.5,0.2,0.5,0.5v20.3
				C215.6,275.4,215.4,275.6,215.1,275.6z"/>
		</g>
		<g>
			<path fill="#1E2538" d="M215.1,237.5c-0.3,0-0.5-0.2-0.5-0.5v-20.3c0-0.3,0.2-0.5,0.5-0.5s0.5,0.2,0.5,0.5V237
				C215.6,237.2,215.4,237.5,215.1,237.5z"/>
		</g>
		<g>
			<path fill="#1E2538" d="M215.1,199.4c-0.3,0-0.5-0.2-0.5-0.5v-20.3c0-0.3,0.2-0.5,0.5-0.5s0.5,0.2,0.5,0.5v20.3
				C215.6,199.1,215.4,199.4,215.1,199.4z"/>
		</g>
		<g>
			<path fill="#1E2538" d="M215.1,161.2c-0.3,0-0.5-0.2-0.5-0.5v-20.3c0-0.3,0.2-0.5,0.5-0.5s0.5,0.2,0.5,0.5v20.3
				C215.6,161,215.4,161.2,215.1,161.2z"/>
		</g>
	</g>
	<g>
		<g>
			<path fill="#1E2538" d="M240.5,428.1c-0.3,0-0.5-0.2-0.5-0.5v-20.3c0-0.3,0.2-0.5,0.5-0.5s0.5,0.2,0.5,0.5v20.3
				C241,427.8,240.8,428.1,240.5,428.1z"/>
		</g>
		<g>
			<path fill="#1E2538" d="M240.5,389.9c-0.3,0-0.5-0.2-0.5-0.5v-20.3c0-0.3,0.2-0.5,0.5-0.5s0.5,0.2,0.5,0.5v20.3
				C241,389.7,240.8,389.9,240.5,389.9z"/>
		</g>
		<g>
			<path fill="#1E2538" d="M240.5,351.8c-0.3,0-0.5-0.2-0.5-0.5V331c0-0.3,0.2-0.5,0.5-0.5s0.5,0.2,0.5,0.5v20.3
				C241,351.6,240.8,351.8,240.5,351.8z"/>
		</g>
		<g>
			<path fill="#1E2538" d="M240.5,313.7c-0.3,0-0.5-0.2-0.5-0.5v-20.3c0-0.3,0.2-0.5,0.5-0.5s0.5,0.2,0.5,0.5v20.3
				C241,313.5,240.8,313.7,240.5,313.7z"/>
		</g>
		<g>
			<path fill="#1E2538" d="M240.5,275.6c-0.3,0-0.5-0.2-0.5-0.5v-20.3c0-0.3,0.2-0.5,0.5-0.5s0.5,0.2,0.5,0.5v20.3
				C241,275.4,240.8,275.6,240.5,275.6z"/>
		</g>
		<g>
			<path fill="#1E2538" d="M240.5,237.5c-0.3,0-0.5-0.2-0.5-0.5v-20.3c0-0.3,0.2-0.5,0.5-0.5s0.5,0.2,0.5,0.5V237
				C241,237.2,240.8,237.5,240.5,237.5z"/>
		</g>
		<g>
			<path fill="#1E2538" d="M240.5,199.4c-0.3,0-0.5-0.2-0.5-0.5v-20.3c0-0.3,0.2-0.5,0.5-0.5s0.5,0.2,0.5,0.5v20.3
				C241,199.1,240.8,199.4,240.5,199.4z"/>
		</g>
		<g>
			<path fill="#1E2538" d="M240.5,161.2c-0.3,0-0.5-0.2-0.5-0.5v-20.3c0-0.3,0.2-0.5,0.5-0.5s0.5,0.2,0.5,0.5v20.3
				C241,161,240.8,161.2,240.5,161.2z"/>
		</g>
	</g>
	<g>
		<g>
			<path fill="#1E2538" d="M265.9,428.1c-0.3,0-0.5-0.2-0.5-0.5v-20.3c0-0.3,0.2-0.5,0.5-0.5s0.5,0.2,0.5,0.5v20.3
				C266.4,427.8,266.2,428.1,265.9,428.1z"/>
		</g>
		<g>
			<path fill="#1E2538" d="M265.9,389.9c-0.3,0-0.5-0.2-0.5-0.5v-20.3c0-0.3,0.2-0.5,0.5-0.5s0.5,0.2,0.5,0.5v20.3
				C266.4,389.7,266.2,389.9,265.9,389.9z"/>
		</g>
		<g>
			<path fill="#1E2538" d="M265.9,468.1c-0.3,0-0.5-0.2-0.5-0.5v-20.3c0-0.3,0.2-0.5,0.5-0.5s0.5,0.2,0.5,0.5v20.3
				C266.4,467.9,266.2,468.1,265.9,468.1z"/>
		</g>
		<g>
			<path fill="#1E2538" d="M265.9,351.8c-0.3,0-0.5-0.2-0.5-0.5V331c0-0.3,0.2-0.5,0.5-0.5s0.5,0.2,0.5,0.5v20.3
				C266.4,351.6,266.2,351.8,265.9,351.8z"/>
		</g>
		<g>
			<path fill="#1E2538" d="M265.9,313.7c-0.3,0-0.5-0.2-0.5-0.5v-20.3c0-0.3,0.2-0.5,0.5-0.5s0.5,0.2,0.5,0.5v20.3
				C266.4,313.5,266.2,313.7,265.9,313.7z"/>
		</g>
		<g>
			<path fill="#1E2538" d="M265.9,275.6c-0.3,0-0.5-0.2-0.5-0.5v-20.3c0-0.3,0.2-0.5,0.5-0.5s0.5,0.2,0.5,0.5v20.3
				C266.4,275.4,266.2,275.6,265.9,275.6z"/>
		</g>
		<g>
			<path fill="#1E2538" d="M265.9,237.5c-0.3,0-0.5-0.2-0.5-0.5v-20.3c0-0.3,0.2-0.5,0.5-0.5s0.5,0.2,0.5,0.5V237
				C266.4,237.2,266.2,237.5,265.9,237.5z"/>
		</g>
		<g>
			<path fill="#1E2538" d="M265.9,199.4c-0.3,0-0.5-0.2-0.5-0.5v-20.3c0-0.3,0.2-0.5,0.5-0.5s0.5,0.2,0.5,0.5v20.3
				C266.4,199.1,266.2,199.4,265.9,199.4z"/>
		</g>
		<g>
			<path fill="#1E2538" d="M265.9,161.2c-0.3,0-0.5-0.2-0.5-0.5v-20.3c0-0.3,0.2-0.5,0.5-0.5s0.5,0.2,0.5,0.5v20.3
				C266.4,161,266.2,161.2,265.9,161.2z"/>
		</g>
	</g>
	<g>
		<g>
			<path fill="#1E2538" d="M164.3,428.1c-0.3,0-0.5-0.2-0.5-0.5v-20.3c0-0.3,0.2-0.5,0.5-0.5s0.5,0.2,0.5,0.5v20.3
				C164.8,427.8,164.6,428.1,164.3,428.1z"/>
		</g>
		<g>
			<path fill="#1E2538" d="M164.3,389.9c-0.3,0-0.5-0.2-0.5-0.5v-20.3c0-0.3,0.2-0.5,0.5-0.5s0.5,0.2,0.5,0.5v20.3
				C164.8,389.7,164.6,389.9,164.3,389.9z"/>
		</g>
		<g>
			<path fill="#1E2538" d="M164.3,468.1c-0.3,0-0.5-0.2-0.5-0.5v-20.3c0-0.3,0.2-0.5,0.5-0.5s0.5,0.2,0.5,0.5v20.3
				C164.8,467.9,164.6,468.1,164.3,468.1z"/>
		</g>
		<g>
			<path fill="#1E2538" d="M164.3,351.8c-0.3,0-0.5-0.2-0.5-0.5V331c0-0.3,0.2-0.5,0.5-0.5s0.5,0.2,0.5,0.5v20.3
				C164.8,351.6,164.6,351.8,164.3,351.8z"/>
		</g>
		<g>
			<path fill="#1E2538" d="M164.3,313.7c-0.3,0-0.5-0.2-0.5-0.5v-20.3c0-0.3,0.2-0.5,0.5-0.5s0.5,0.2,0.5,0.5v20.3
				C164.8,313.5,164.6,313.7,164.3,313.7z"/>
		</g>
		<g>
			<path fill="#1E2538" d="M164.3,275.6c-0.3,0-0.5-0.2-0.5-0.5v-20.3c0-0.3,0.2-0.5,0.5-0.5s0.5,0.2,0.5,0.5v20.3
				C164.8,275.4,164.6,275.6,164.3,275.6z"/>
		</g>
		<g>
			<path fill="#1E2538" d="M164.3,237.5c-0.3,0-0.5-0.2-0.5-0.5v-20.3c0-0.3,0.2-0.5,0.5-0.5s0.5,0.2,0.5,0.5V237
				C164.8,237.2,164.6,237.5,164.3,237.5z"/>
		</g>
		<g>
			<path fill="#1E2538" d="M164.3,199.4c-0.3,0-0.5-0.2-0.5-0.5v-20.3c0-0.3,0.2-0.5,0.5-0.5s0.5,0.2,0.5,0.5v20.3
				C164.8,199.1,164.6,199.4,164.3,199.4z"/>
		</g>
		<g>
			<path fill="#1E2538" d="M164.3,161.2c-0.3,0-0.5-0.2-0.5-0.5v-20.3c0-0.3,0.2-0.5,0.5-0.5s0.5,0.2,0.5,0.5v20.3
				C164.8,161,164.6,161.2,164.3,161.2z"/>
		</g>
	</g>
	<g>
		<path fill="#1E2538" d="M582.9,433.1c-0.3,0-0.5-0.2-0.5-0.5v-21c0-0.3,0.2-0.5,0.5-0.5s0.5,0.2,0.5,0.5v21
			C583.4,432.9,583.2,433.1,582.9,433.1z"/>
	</g>
	<g>
		<path fill="#1E2538" d="M582.9,395c-0.3,0-0.5-0.2-0.5-0.5v-21c0-0.3,0.2-0.5,0.5-0.5s0.5,0.2,0.5,0.5v21
			C583.4,394.8,583.2,395,582.9,395z"/>
	</g>
	<g>
		<path fill="#1E2538" d="M582.9,356.9c-0.3,0-0.5-0.2-0.5-0.5v-21c0-0.3,0.2-0.5,0.5-0.5s0.5,0.2,0.5,0.5v21
			C583.4,356.7,583.2,356.9,582.9,356.9z"/>
	</g>
	<g>
		<path fill="#1E2538" d="M582.9,318.8c-0.3,0-0.5-0.2-0.5-0.5v-21c0-0.3,0.2-0.5,0.5-0.5s0.5,0.2,0.5,0.5v21
			C583.4,318.6,583.2,318.8,582.9,318.8z"/>
	</g>
	<g>
		<path fill="#1E2538" d="M582.9,280.7c-0.3,0-0.5-0.2-0.5-0.5v-21c0-0.3,0.2-0.5,0.5-0.5s0.5,0.2,0.5,0.5v21
			C583.4,280.4,583.2,280.7,582.9,280.7z"/>
	</g>
	<g>
		<path fill="#1E2538" d="M582.9,242.6c-0.3,0-0.5-0.2-0.5-0.5v-21c0-0.3,0.2-0.5,0.5-0.5s0.5,0.2,0.5,0.5v21
			C583.4,242.3,583.2,242.6,582.9,242.6z"/>
	</g>
	<g>
		<path fill="#1E2538" d="M608.4,433.1c-0.3,0-0.5-0.2-0.5-0.5v-21c0-0.3,0.2-0.5,0.5-0.5s0.5,0.2,0.5,0.5v21
			C608.9,432.9,608.6,433.1,608.4,433.1z"/>
	</g>
	<g>
		<path fill="#1E2538" d="M608.4,395c-0.3,0-0.5-0.2-0.5-0.5v-21c0-0.3,0.2-0.5,0.5-0.5s0.5,0.2,0.5,0.5v21
			C608.9,394.8,608.6,395,608.4,395z"/>
	</g>
	<g>
		<path fill="#1E2538" d="M608.4,356.9c-0.3,0-0.5-0.2-0.5-0.5v-21c0-0.3,0.2-0.5,0.5-0.5s0.5,0.2,0.5,0.5v21
			C608.9,356.7,608.6,356.9,608.4,356.9z"/>
	</g>
	<g>
		<path fill="#1E2538" d="M608.4,318.8c-0.3,0-0.5-0.2-0.5-0.5v-21c0-0.3,0.2-0.5,0.5-0.5s0.5,0.2,0.5,0.5v21
			C608.9,318.6,608.6,318.8,608.4,318.8z"/>
	</g>
	<g>
		<path fill="#1E2538" d="M608.4,280.7c-0.3,0-0.5-0.2-0.5-0.5v-21c0-0.3,0.2-0.5,0.5-0.5s0.5,0.2,0.5,0.5v21
			C608.9,280.4,608.6,280.7,608.4,280.7z"/>
	</g>
	<g>
		<path fill="#1E2538" d="M608.4,242.6c-0.3,0-0.5-0.2-0.5-0.5v-21c0-0.3,0.2-0.5,0.5-0.5s0.5,0.2,0.5,0.5v21
			C608.9,242.3,608.6,242.6,608.4,242.6z"/>
	</g>
	<g>
		<path fill="#1E2538" d="M633.8,433.1c-0.3,0-0.5-0.2-0.5-0.5v-21c0-0.3,0.2-0.5,0.5-0.5s0.5,0.2,0.5,0.5v21
			C634.3,432.9,634,433.1,633.8,433.1z"/>
	</g>
	<g>
		<path fill="#1E2538" d="M633.8,395c-0.3,0-0.5-0.2-0.5-0.5v-21c0-0.3,0.2-0.5,0.5-0.5s0.5,0.2,0.5,0.5v21
			C634.3,394.8,634,395,633.8,395z"/>
	</g>
	<g>
		<path fill="#1E2538" d="M633.8,356.9c-0.3,0-0.5-0.2-0.5-0.5v-21c0-0.3,0.2-0.5,0.5-0.5s0.5,0.2,0.5,0.5v21
			C634.3,356.7,634,356.9,633.8,356.9z"/>
	</g>
	<g>
		<path fill="#1E2538" d="M633.8,318.8c-0.3,0-0.5-0.2-0.5-0.5v-21c0-0.3,0.2-0.5,0.5-0.5s0.5,0.2,0.5,0.5v21
			C634.3,318.6,634,318.8,633.8,318.8z"/>
	</g>
	<g>
		<path fill="#1E2538" d="M633.8,280.7c-0.3,0-0.5-0.2-0.5-0.5v-21c0-0.3,0.2-0.5,0.5-0.5s0.5,0.2,0.5,0.5v21
			C634.3,280.4,634,280.7,633.8,280.7z"/>
	</g>
	<g>
		<path fill="#1E2538" d="M633.8,242.6c-0.3,0-0.5-0.2-0.5-0.5v-21c0-0.3,0.2-0.5,0.5-0.5s0.5,0.2,0.5,0.5v21
			C634.3,242.3,634,242.6,633.8,242.6z"/>
	</g>
	<g>
		<path fill="#1E2538" d="M659.2,433.1c-0.3,0-0.5-0.2-0.5-0.5v-21c0-0.3,0.2-0.5,0.5-0.5s0.5,0.2,0.5,0.5v21
			C659.7,432.9,659.5,433.1,659.2,433.1z"/>
	</g>
	<g>
		<path fill="#1E2538" d="M659.2,395c-0.3,0-0.5-0.2-0.5-0.5v-21c0-0.3,0.2-0.5,0.5-0.5s0.5,0.2,0.5,0.5v21
			C659.7,394.8,659.5,395,659.2,395z"/>
	</g>
	<g>
		<path fill="#1E2538" d="M659.2,356.9c-0.3,0-0.5-0.2-0.5-0.5v-21c0-0.3,0.2-0.5,0.5-0.5s0.5,0.2,0.5,0.5v21
			C659.7,356.7,659.5,356.9,659.2,356.9z"/>
	</g>
	<g>
		<path fill="#1E2538" d="M659.2,318.8c-0.3,0-0.5-0.2-0.5-0.5v-21c0-0.3,0.2-0.5,0.5-0.5s0.5,0.2,0.5,0.5v21
			C659.7,318.6,659.5,318.8,659.2,318.8z"/>
	</g>
	<g>
		<path fill="#1E2538" d="M659.2,280.7c-0.3,0-0.5-0.2-0.5-0.5v-21c0-0.3,0.2-0.5,0.5-0.5s0.5,0.2,0.5,0.5v21
			C659.7,280.4,659.5,280.7,659.2,280.7z"/>
	</g>
	<g>
		<path fill="#1E2538" d="M659.2,242.6c-0.3,0-0.5-0.2-0.5-0.5v-21c0-0.3,0.2-0.5,0.5-0.5s0.5,0.2,0.5,0.5v21
			C659.7,242.3,659.5,242.6,659.2,242.6z"/>
	</g>
	<g>
		<path fill="#1E2538" d="M557.5,433.1c-0.3,0-0.5-0.2-0.5-0.5v-21c0-0.3,0.2-0.5,0.5-0.5s0.5,0.2,0.5,0.5v21
			C558,432.9,557.8,433.1,557.5,433.1z"/>
	</g>
	<g>
		<path fill="#1E2538" d="M557.5,395c-0.3,0-0.5-0.2-0.5-0.5v-21c0-0.3,0.2-0.5,0.5-0.5s0.5,0.2,0.5,0.5v21
			C558,394.8,557.8,395,557.5,395z"/>
	</g>
	<g>
		<path fill="#1E2538" d="M557.5,356.9c-0.3,0-0.5-0.2-0.5-0.5v-21c0-0.3,0.2-0.5,0.5-0.5s0.5,0.2,0.5,0.5v21
			C558,356.7,557.8,356.9,557.5,356.9z"/>
	</g>
	<g>
		<path fill="#1E2538" d="M557.5,318.8c-0.3,0-0.5-0.2-0.5-0.5v-21c0-0.3,0.2-0.5,0.5-0.5s0.5,0.2,0.5,0.5v21
			C558,318.6,557.8,318.8,557.5,318.8z"/>
	</g>
	<g>
		<path fill="#1E2538" d="M557.5,280.7c-0.3,0-0.5-0.2-0.5-0.5v-21c0-0.3,0.2-0.5,0.5-0.5s0.5,0.2,0.5,0.5v21
			C558,280.4,557.8,280.7,557.5,280.7z"/>
	</g>
	<g>
		<path fill="#1E2538" d="M557.5,242.6c-0.3,0-0.5-0.2-0.5-0.5v-21c0-0.3,0.2-0.5,0.5-0.5s0.5,0.2,0.5,0.5v21
			C558,242.3,557.8,242.6,557.5,242.6z"/>
	</g>
	<g>
		<rect x="148.4" y="106.7" fill="#DED6E8" width="136" height="13.3"/>
		<path fill="#1E2538" d="M284.4,120.6h-136c-0.3,0-0.5-0.2-0.5-0.5v-13.3c0-0.3,0.2-0.5,0.5-0.5h136c0.3,0,0.5,0.2,0.5,0.5v13.3
			C284.9,120.3,284.6,120.6,284.4,120.6z M148.9,119.6h135v-12.3h-135V119.6z"/>
	</g>
	<g>
		<rect x="161.7" y="93.4" fill="#DED6E8" width="109.9" height="13.3"/>
		<path fill="#1E2538" d="M271.6,107.2H161.7c-0.3,0-0.5-0.2-0.5-0.5V93.4c0-0.3,0.2-0.5,0.5-0.5h109.9c0.3,0,0.5,0.2,0.5,0.5v13.3
			C272.1,107,271.9,107.2,271.6,107.2z M162.2,106.2h108.9V93.9H162.2V106.2z"/>
	</g>
	<g>
		<rect x="344.1" y="223.6" fill="#EDEDED" width="136" height="13.3"/>
		<path fill="#1E2538" d="M480,237.5h-136c-0.3,0-0.5-0.2-0.5-0.5v-13.3c0-0.3,0.2-0.5,0.5-0.5h136c0.3,0,0.5,0.2,0.5,0.5V237
			C480.5,237.2,480.3,237.5,480,237.5z M344.6,236.5h135v-12.3h-135V236.5z"/>
	</g>
	<g>
		<rect x="539.1" y="169.6" fill="#A49BB2" width="136" height="13.3"/>
		<path fill="#1E2538" d="M675.1,183.5h-136c-0.3,0-0.5-0.2-0.5-0.5v-13.3c0-0.3,0.2-0.5,0.5-0.5h136c0.3,0,0.5,0.2,0.5,0.5V183
			C675.6,183.2,675.3,183.5,675.1,183.5z M539.6,182.5h135v-12.3h-135V182.5z"/>
	</g>
	<g>
		<rect x="552.5" y="156.3" fill="#A49BB2" width="109.9" height="13.3"/>
		<path fill="#1E2538" d="M662.4,170.1H552.5c-0.3,0-0.5-0.2-0.5-0.5v-13.3c0-0.3,0.2-0.5,0.5-0.5h109.9c0.3,0,0.5,0.2,0.5,0.5v13.3
			C662.9,169.9,662.6,170.1,662.4,170.1z M553,169.1h108.9v-12.3H553V169.1z"/>
	</g>
	<g>
		<g>
			<circle fill="#1E2538" cx="398.1" cy="425.7" r="3.2"/>
		</g>
		<g>
			<circle fill="#1E2538" cx="398.1" cy="403.4" r="3.2"/>
		</g>
		<g>
			<circle fill="#1E2538" cx="398.1" cy="381.2" r="3.2"/>
		</g>
		<g>
			<circle fill="#1E2538" cx="398.1" cy="358.9" r="3.2"/>
		</g>
		<g>
			<circle fill="#1E2538" cx="398.1" cy="336.7" r="3.2"/>
		</g>
		<g>
			<circle fill="#1E2538" cx="398.1" cy="314.5" r="3.2"/>
		</g>
		<g>
			<circle fill="#1E2538" cx="398.1" cy="292.2" r="3.2"/>
		</g>
		<g>
			<circle fill="#1E2538" cx="398.1" cy="270" r="3.2"/>
		</g>
	</g>
	<g>
		<g>
			<circle fill="#1E2538" cx="427.3" cy="425.7" r="3.2"/>
		</g>
		<g>
			<circle fill="#1E2538" cx="427.3" cy="403.4" r="3.2"/>
		</g>
		<g>
			<circle fill="#1E2538" cx="427.3" cy="381.2" r="3.2"/>
		</g>
		<g>
			<circle fill="#1E2538" cx="427.3" cy="358.9" r="3.2"/>
		</g>
		<g>
			<circle fill="#1E2538" cx="427.3" cy="336.7" r="3.2"/>
		</g>
		<g>
			<circle fill="#1E2538" cx="427.3" cy="314.5" r="3.2"/>
		</g>
		<g>
			<circle fill="#1E2538" cx="427.3" cy="292.2" r="3.2"/>
		</g>
		<g>
			<circle fill="#1E2538" cx="427.3" cy="270" r="3.2"/>
		</g>
	</g>
	<g>
		<g>
			<circle fill="#1E2538" cx="412.7" cy="425.7" r="3.2"/>
		</g>
		<g>
			<circle fill="#1E2538" cx="412.7" cy="403.4" r="3.2"/>
		</g>
		<g>
			<circle fill="#1E2538" cx="412.7" cy="381.2" r="3.2"/>
		</g>
		<g>
			<circle fill="#1E2538" cx="412.7" cy="358.9" r="3.2"/>
		</g>
		<g>
			<circle fill="#1E2538" cx="412.7" cy="336.7" r="3.2"/>
		</g>
		<g>
			<circle fill="#1E2538" cx="412.7" cy="314.5" r="3.2"/>
		</g>
		<g>
			<circle fill="#1E2538" cx="412.7" cy="292.2" r="3.2"/>
		</g>
		<g>
			<circle fill="#1E2538" cx="412.7" cy="270" r="3.2"/>
		</g>
	</g>
	<g>
		<g>
			<circle fill="#1E2538" cx="441.9" cy="425.7" r="3.2"/>
		</g>
		<g>
			<circle fill="#1E2538" cx="441.9" cy="403.4" r="3.2"/>
		</g>
		<g>
			<circle fill="#1E2538" cx="441.9" cy="381.2" r="3.2"/>
		</g>
		<g>
			<circle fill="#1E2538" cx="441.9" cy="358.9" r="3.2"/>
		</g>
		<g>
			<circle fill="#1E2538" cx="441.9" cy="336.7" r="3.2"/>
		</g>
		<g>
			<circle fill="#1E2538" cx="441.9" cy="314.5" r="3.2"/>
		</g>
		<g>
			<circle fill="#1E2538" cx="441.9" cy="292.2" r="3.2"/>
		</g>
		<g>
			<circle fill="#1E2538" cx="441.9" cy="270" r="3.2"/>
		</g>
		<g>
			<circle fill="#1E2538" cx="441.9" cy="491.1" r="3.2"/>
		</g>
		<g>
			<circle fill="#1E2538" cx="441.9" cy="468.9" r="3.2"/>
		</g>
		<g>
			<circle fill="#1E2538" cx="441.9" cy="446.6" r="3.2"/>
		</g>
	</g>
	<g>
		<g>
			<circle fill="#1E2538" cx="456.5" cy="425.7" r="3.2"/>
		</g>
		<g>
			<circle fill="#1E2538" cx="456.5" cy="403.4" r="3.2"/>
		</g>
		<g>
			<circle fill="#1E2538" cx="456.5" cy="381.2" r="3.2"/>
		</g>
		<g>
			<circle fill="#1E2538" cx="456.5" cy="358.9" r="3.2"/>
		</g>
		<g>
			<circle fill="#1E2538" cx="456.5" cy="336.7" r="3.2"/>
		</g>
		<g>
			<circle fill="#1E2538" cx="456.5" cy="314.5" r="3.2"/>
		</g>
		<g>
			<circle fill="#1E2538" cx="456.5" cy="292.2" r="3.2"/>
		</g>
		<g>
			<circle fill="#1E2538" cx="456.5" cy="270" r="3.2"/>
		</g>
		<g>
			<circle fill="#1E2538" cx="456.5" cy="491.1" r="3.2"/>
		</g>
		<g>
			<circle fill="#1E2538" cx="456.5" cy="468.9" r="3.2"/>
		</g>
		<g>
			<circle fill="#1E2538" cx="456.5" cy="446.6" r="3.2"/>
		</g>
	</g>
	<g>
		<g>
			<circle fill="#1E2538" cx="471.1" cy="425.7" r="3.2"/>
		</g>
		<g>
			<circle fill="#1E2538" cx="471.1" cy="403.4" r="3.2"/>
		</g>
		<g>
			<circle fill="#1E2538" cx="471.1" cy="381.2" r="3.2"/>
		</g>
		<g>
			<circle fill="#1E2538" cx="471.1" cy="358.9" r="3.2"/>
		</g>
		<g>
			<circle fill="#1E2538" cx="471.1" cy="336.7" r="3.2"/>
		</g>
		<g>
			<circle fill="#1E2538" cx="471.1" cy="314.5" r="3.2"/>
		</g>
		<g>
			<circle fill="#1E2538" cx="471.1" cy="292.2" r="3.2"/>
		</g>
		<g>
			<circle fill="#1E2538" cx="471.1" cy="270" r="3.2"/>
		</g>
		<g>
			<circle fill="#1E2538" cx="471.1" cy="491.1" r="3.2"/>
		</g>
		<g>
			<circle fill="#1E2538" cx="471.1" cy="468.9" r="3.2"/>
		</g>
		<g>
			<circle fill="#1E2538" cx="471.1" cy="446.6" r="3.2"/>
		</g>
	</g>
	<g>
		<g>
			<circle fill="#1E2538" cx="353.6" cy="425.7" r="3.2"/>
		</g>
		<g>
			<circle fill="#1E2538" cx="353.6" cy="403.4" r="3.2"/>
		</g>
		<g>
			<circle fill="#1E2538" cx="353.6" cy="381.2" r="3.2"/>
		</g>
		<g>
			<circle fill="#1E2538" cx="353.6" cy="358.9" r="3.2"/>
		</g>
		<g>
			<circle fill="#1E2538" cx="353.6" cy="336.7" r="3.2"/>
		</g>
		<g>
			<circle fill="#1E2538" cx="353.6" cy="314.5" r="3.2"/>
		</g>
		<g>
			<circle fill="#1E2538" cx="353.6" cy="292.2" r="3.2"/>
		</g>
		<g>
			<circle fill="#1E2538" cx="353.6" cy="270" r="3.2"/>
		</g>
		<g>
			<circle fill="#1E2538" cx="353.6" cy="491.1" r="3.2"/>
		</g>
		<g>
			<circle fill="#1E2538" cx="353.6" cy="468.9" r="3.2"/>
		</g>
		<g>
			<circle fill="#1E2538" cx="353.6" cy="446.6" r="3.2"/>
		</g>
	</g>
	<g>
		<g>
			<circle fill="#1E2538" cx="368.2" cy="425.7" r="3.2"/>
		</g>
		<g>
			<circle fill="#1E2538" cx="368.2" cy="403.4" r="3.2"/>
		</g>
		<g>
			<circle fill="#1E2538" cx="368.2" cy="381.2" r="3.2"/>
		</g>
		<g>
			<circle fill="#1E2538" cx="368.2" cy="358.9" r="3.2"/>
		</g>
		<g>
			<circle fill="#1E2538" cx="368.2" cy="336.7" r="3.2"/>
		</g>
		<g>
			<circle fill="#1E2538" cx="368.2" cy="314.5" r="3.2"/>
		</g>
		<g>
			<circle fill="#1E2538" cx="368.2" cy="292.2" r="3.2"/>
		</g>
		<g>
			<circle fill="#1E2538" cx="368.2" cy="270" r="3.2"/>
		</g>
		<g>
			<circle fill="#1E2538" cx="368.2" cy="491.1" r="3.2"/>
		</g>
		<g>
			<circle fill="#1E2538" cx="368.2" cy="468.9" r="3.2"/>
		</g>
		<g>
			<circle fill="#1E2538" cx="368.2" cy="446.6" r="3.2"/>
		</g>
	</g>
	<g>
		<g>
			<circle fill="#1E2538" cx="382.8" cy="425.7" r="3.2"/>
		</g>
		<g>
			<circle fill="#1E2538" cx="382.8" cy="403.4" r="3.2"/>
		</g>
		<g>
			<circle fill="#1E2538" cx="382.8" cy="381.2" r="3.2"/>
		</g>
		<g>
			<circle fill="#1E2538" cx="382.8" cy="358.9" r="3.2"/>
		</g>
		<g>
			<circle fill="#1E2538" cx="382.8" cy="336.7" r="3.2"/>
		</g>
		<g>
			<circle fill="#1E2538" cx="382.8" cy="314.5" r="3.2"/>
		</g>
		<g>
			<circle fill="#1E2538" cx="382.8" cy="292.2" r="3.2"/>
		</g>
		<g>
			<circle fill="#1E2538" cx="382.8" cy="270" r="3.2"/>
		</g>
		<g>
			<circle fill="#1E2538" cx="382.8" cy="491.1" r="3.2"/>
		</g>
		<g>
			<circle fill="#1E2538" cx="382.8" cy="468.9" r="3.2"/>
		</g>
		<g>
			<circle fill="#1E2538" cx="382.8" cy="446.6" r="3.2"/>
		</g>
	</g>
	<g>
		<rect x="564.5" y="466.3" fill="#69617C" width="43.8" height="49.6"/>
		<path fill="#1E2538" d="M608.4,516.4h-43.8c-0.3,0-0.5-0.2-0.5-0.5v-49.6c0-0.3,0.2-0.5,0.5-0.5h43.8c0.3,0,0.5,0.2,0.5,0.5v49.6
			C608.9,516.1,608.6,516.4,608.4,516.4z M565,515.4h42.8v-48.6H565V515.4z"/>
	</g>
	<g>
		<rect x="608.4" y="466.3" fill="#69617C" width="46.4" height="49.6"/>
		<path fill="#1E2538" d="M654.7,516.4h-46.4c-0.3,0-0.5-0.2-0.5-0.5v-49.6c0-0.3,0.2-0.5,0.5-0.5h46.4c0.3,0,0.5,0.2,0.5,0.5v49.6
			C655.2,516.1,655,516.4,654.7,516.4z M608.9,515.4h45.4v-48.6h-45.4V515.4z"/>
	</g>
</g>
</svg>
