<?xml version="1.0" encoding="utf-8"?>
<!-- Generator: Adobe Illustrator 18.1.1, SVG Export Plug-In . SVG Version: 6.00 Build 0)  -->
<svg version="1.1" id="Calque_1" xmlns="http://www.w3.org/2000/svg" xmlns:xlink="http://www.w3.org/1999/xlink" x="0px" y="0px"
	 viewBox="0 0 117.8 93.7" enable-background="new 0 0 117.8 93.7" xml:space="preserve">
<g>
	
		<rect x="13.9" y="18.9" fill="#DED6E8" stroke="#1E2538" stroke-linecap="round" stroke-linejoin="round" stroke-miterlimit="10" width="25.6" height="62"/>
	
		<rect x="44.7" y="37.3" fill="#EDEDED" stroke="#1E2538" stroke-linecap="round" stroke-linejoin="round" stroke-miterlimit="10" width="25.6" height="43.9"/>
	
		<rect x="75.4" y="28.8" fill="#A49BB2" stroke="#1E2538" stroke-linecap="round" stroke-linejoin="round" stroke-miterlimit="10" width="25.6" height="52.4"/>
	
		<line fill="none" stroke="#1E2538" stroke-linecap="round" stroke-linejoin="round" stroke-miterlimit="10" x1="6" y1="0.5" x2="6" y2="93.2"/>
	
		<line fill="none" stroke="#1E2538" stroke-linecap="round" stroke-linejoin="round" stroke-miterlimit="10" x1="117.3" y1="88.3" x2="0.5" y2="88.3"/>
	<polyline fill="none" stroke="#1E2538" stroke-linecap="round" stroke-linejoin="round" stroke-miterlimit="10" points="2.4,4.1 
		6,0.5 9.7,4.1 	"/>
	<polyline fill="none" stroke="#1E2538" stroke-linecap="round" stroke-linejoin="round" stroke-miterlimit="10" points="
		113.7,84.7 117.3,88.3 113.7,92 	"/>
	
		<rect x="22.3" y="70.4" fill="#898293" stroke="#1E2538" stroke-linecap="round" stroke-linejoin="round" stroke-miterlimit="10" width="8.8" height="10.5"/>
	
		<rect x="55.3" y="70.6" fill="#706F6F" stroke="#1E2538" stroke-linecap="round" stroke-linejoin="round" stroke-miterlimit="10" width="4.5" height="10.5"/>
	<g>
		
			<line fill="none" stroke="#1E2538" stroke-linecap="round" stroke-linejoin="round" stroke-miterlimit="10" x1="22.5" y1="67.3" x2="22.5" y2="64.1"/>
		
			<line fill="none" stroke="#1E2538" stroke-linecap="round" stroke-linejoin="round" stroke-miterlimit="10" x1="22.5" y1="61.3" x2="22.5" y2="58.1"/>
		
			<line fill="none" stroke="#1E2538" stroke-linecap="round" stroke-linejoin="round" stroke-miterlimit="10" x1="22.5" y1="55.3" x2="22.5" y2="52.1"/>
		
			<line fill="none" stroke="#1E2538" stroke-linecap="round" stroke-linejoin="round" stroke-miterlimit="10" x1="22.5" y1="49.3" x2="22.5" y2="46.1"/>
		
			<line fill="none" stroke="#1E2538" stroke-linecap="round" stroke-linejoin="round" stroke-miterlimit="10" x1="22.5" y1="43.3" x2="22.5" y2="40.1"/>
		
			<line fill="none" stroke="#1E2538" stroke-linecap="round" stroke-linejoin="round" stroke-miterlimit="10" x1="22.5" y1="37.3" x2="22.5" y2="34.1"/>
		
			<line fill="none" stroke="#1E2538" stroke-linecap="round" stroke-linejoin="round" stroke-miterlimit="10" x1="22.5" y1="31.3" x2="22.5" y2="28.1"/>
		
			<line fill="none" stroke="#1E2538" stroke-linecap="round" stroke-linejoin="round" stroke-miterlimit="10" x1="22.5" y1="25.3" x2="22.5" y2="22.1"/>
	</g>
	<g>
		
			<line fill="none" stroke="#1E2538" stroke-linecap="round" stroke-linejoin="round" stroke-miterlimit="10" x1="26.5" y1="67.3" x2="26.5" y2="64.1"/>
		
			<line fill="none" stroke="#1E2538" stroke-linecap="round" stroke-linejoin="round" stroke-miterlimit="10" x1="26.5" y1="61.3" x2="26.5" y2="58.1"/>
		
			<line fill="none" stroke="#1E2538" stroke-linecap="round" stroke-linejoin="round" stroke-miterlimit="10" x1="26.5" y1="55.3" x2="26.5" y2="52.1"/>
		
			<line fill="none" stroke="#1E2538" stroke-linecap="round" stroke-linejoin="round" stroke-miterlimit="10" x1="26.5" y1="49.3" x2="26.5" y2="46.1"/>
		
			<line fill="none" stroke="#1E2538" stroke-linecap="round" stroke-linejoin="round" stroke-miterlimit="10" x1="26.5" y1="43.3" x2="26.5" y2="40.1"/>
		
			<line fill="none" stroke="#1E2538" stroke-linecap="round" stroke-linejoin="round" stroke-miterlimit="10" x1="26.5" y1="37.3" x2="26.5" y2="34.1"/>
		
			<line fill="none" stroke="#1E2538" stroke-linecap="round" stroke-linejoin="round" stroke-miterlimit="10" x1="26.5" y1="31.3" x2="26.5" y2="28.1"/>
		
			<line fill="none" stroke="#1E2538" stroke-linecap="round" stroke-linejoin="round" stroke-miterlimit="10" x1="26.5" y1="25.3" x2="26.5" y2="22.1"/>
	</g>
	<g>
		
			<line fill="none" stroke="#1E2538" stroke-linecap="round" stroke-linejoin="round" stroke-miterlimit="10" x1="30.5" y1="67.3" x2="30.5" y2="64.1"/>
		
			<line fill="none" stroke="#1E2538" stroke-linecap="round" stroke-linejoin="round" stroke-miterlimit="10" x1="30.5" y1="61.3" x2="30.5" y2="58.1"/>
		
			<line fill="none" stroke="#1E2538" stroke-linecap="round" stroke-linejoin="round" stroke-miterlimit="10" x1="30.5" y1="55.3" x2="30.5" y2="52.1"/>
		
			<line fill="none" stroke="#1E2538" stroke-linecap="round" stroke-linejoin="round" stroke-miterlimit="10" x1="30.5" y1="49.3" x2="30.5" y2="46.1"/>
		
			<line fill="none" stroke="#1E2538" stroke-linecap="round" stroke-linejoin="round" stroke-miterlimit="10" x1="30.5" y1="43.3" x2="30.5" y2="40.1"/>
		
			<line fill="none" stroke="#1E2538" stroke-linecap="round" stroke-linejoin="round" stroke-miterlimit="10" x1="30.5" y1="37.3" x2="30.5" y2="34.1"/>
		
			<line fill="none" stroke="#1E2538" stroke-linecap="round" stroke-linejoin="round" stroke-miterlimit="10" x1="30.5" y1="31.3" x2="30.5" y2="28.1"/>
		
			<line fill="none" stroke="#1E2538" stroke-linecap="round" stroke-linejoin="round" stroke-miterlimit="10" x1="30.5" y1="25.3" x2="30.5" y2="22.1"/>
	</g>
	<g>
		
			<line fill="none" stroke="#1E2538" stroke-linecap="round" stroke-linejoin="round" stroke-miterlimit="10" x1="34.5" y1="67.3" x2="34.5" y2="64.1"/>
		
			<line fill="none" stroke="#1E2538" stroke-linecap="round" stroke-linejoin="round" stroke-miterlimit="10" x1="34.5" y1="61.3" x2="34.5" y2="58.1"/>
		
			<line fill="none" stroke="#1E2538" stroke-linecap="round" stroke-linejoin="round" stroke-miterlimit="10" x1="34.5" y1="73.6" x2="34.5" y2="70.4"/>
		
			<line fill="none" stroke="#1E2538" stroke-linecap="round" stroke-linejoin="round" stroke-miterlimit="10" x1="34.5" y1="55.3" x2="34.5" y2="52.1"/>
		
			<line fill="none" stroke="#1E2538" stroke-linecap="round" stroke-linejoin="round" stroke-miterlimit="10" x1="34.5" y1="49.3" x2="34.5" y2="46.1"/>
		
			<line fill="none" stroke="#1E2538" stroke-linecap="round" stroke-linejoin="round" stroke-miterlimit="10" x1="34.5" y1="43.3" x2="34.5" y2="40.1"/>
		
			<line fill="none" stroke="#1E2538" stroke-linecap="round" stroke-linejoin="round" stroke-miterlimit="10" x1="34.5" y1="37.3" x2="34.5" y2="34.1"/>
		
			<line fill="none" stroke="#1E2538" stroke-linecap="round" stroke-linejoin="round" stroke-miterlimit="10" x1="34.5" y1="31.3" x2="34.5" y2="28.1"/>
		
			<line fill="none" stroke="#1E2538" stroke-linecap="round" stroke-linejoin="round" stroke-miterlimit="10" x1="34.5" y1="25.3" x2="34.5" y2="22.1"/>
	</g>
	<g>
		
			<line fill="none" stroke="#1E2538" stroke-linecap="round" stroke-linejoin="round" stroke-miterlimit="10" x1="18.5" y1="67.3" x2="18.5" y2="64.1"/>
		
			<line fill="none" stroke="#1E2538" stroke-linecap="round" stroke-linejoin="round" stroke-miterlimit="10" x1="18.5" y1="61.3" x2="18.5" y2="58.1"/>
		
			<line fill="none" stroke="#1E2538" stroke-linecap="round" stroke-linejoin="round" stroke-miterlimit="10" x1="18.5" y1="73.6" x2="18.5" y2="70.4"/>
		
			<line fill="none" stroke="#1E2538" stroke-linecap="round" stroke-linejoin="round" stroke-miterlimit="10" x1="18.5" y1="55.3" x2="18.5" y2="52.1"/>
		
			<line fill="none" stroke="#1E2538" stroke-linecap="round" stroke-linejoin="round" stroke-miterlimit="10" x1="18.5" y1="49.3" x2="18.5" y2="46.1"/>
		
			<line fill="none" stroke="#1E2538" stroke-linecap="round" stroke-linejoin="round" stroke-miterlimit="10" x1="18.5" y1="43.3" x2="18.5" y2="40.1"/>
		
			<line fill="none" stroke="#1E2538" stroke-linecap="round" stroke-linejoin="round" stroke-miterlimit="10" x1="18.5" y1="37.3" x2="18.5" y2="34.1"/>
		
			<line fill="none" stroke="#1E2538" stroke-linecap="round" stroke-linejoin="round" stroke-miterlimit="10" x1="18.5" y1="31.3" x2="18.5" y2="28.1"/>
		
			<line fill="none" stroke="#1E2538" stroke-linecap="round" stroke-linejoin="round" stroke-miterlimit="10" x1="18.5" y1="25.3" x2="18.5" y2="22.1"/>
	</g>
	
		<line fill="none" stroke="#1E2538" stroke-linecap="round" stroke-linejoin="round" stroke-miterlimit="10" x1="84.4" y1="68.1" x2="84.4" y2="64.8"/>
	
		<line fill="none" stroke="#1E2538" stroke-linecap="round" stroke-linejoin="round" stroke-miterlimit="10" x1="84.4" y1="62.1" x2="84.4" y2="58.8"/>
	
		<line fill="none" stroke="#1E2538" stroke-linecap="round" stroke-linejoin="round" stroke-miterlimit="10" x1="84.4" y1="56.1" x2="84.4" y2="52.8"/>
	
		<line fill="none" stroke="#1E2538" stroke-linecap="round" stroke-linejoin="round" stroke-miterlimit="10" x1="84.4" y1="50.1" x2="84.4" y2="46.8"/>
	
		<line fill="none" stroke="#1E2538" stroke-linecap="round" stroke-linejoin="round" stroke-miterlimit="10" x1="84.4" y1="44.1" x2="84.4" y2="40.8"/>
	
		<line fill="none" stroke="#1E2538" stroke-linecap="round" stroke-linejoin="round" stroke-miterlimit="10" x1="84.4" y1="38.1" x2="84.4" y2="34.8"/>
	
		<line fill="none" stroke="#1E2538" stroke-linecap="round" stroke-linejoin="round" stroke-miterlimit="10" x1="88.4" y1="68.1" x2="88.4" y2="64.8"/>
	
		<line fill="none" stroke="#1E2538" stroke-linecap="round" stroke-linejoin="round" stroke-miterlimit="10" x1="88.4" y1="62.1" x2="88.4" y2="58.8"/>
	
		<line fill="none" stroke="#1E2538" stroke-linecap="round" stroke-linejoin="round" stroke-miterlimit="10" x1="88.4" y1="56.1" x2="88.4" y2="52.8"/>
	
		<line fill="none" stroke="#1E2538" stroke-linecap="round" stroke-linejoin="round" stroke-miterlimit="10" x1="88.4" y1="50.1" x2="88.4" y2="46.8"/>
	
		<line fill="none" stroke="#1E2538" stroke-linecap="round" stroke-linejoin="round" stroke-miterlimit="10" x1="88.4" y1="44.1" x2="88.4" y2="40.8"/>
	
		<line fill="none" stroke="#1E2538" stroke-linecap="round" stroke-linejoin="round" stroke-miterlimit="10" x1="88.4" y1="38.1" x2="88.4" y2="34.8"/>
	
		<line fill="none" stroke="#1E2538" stroke-linecap="round" stroke-linejoin="round" stroke-miterlimit="10" x1="92.4" y1="68.1" x2="92.4" y2="64.8"/>
	
		<line fill="none" stroke="#1E2538" stroke-linecap="round" stroke-linejoin="round" stroke-miterlimit="10" x1="92.4" y1="62.1" x2="92.4" y2="58.8"/>
	
		<line fill="none" stroke="#1E2538" stroke-linecap="round" stroke-linejoin="round" stroke-miterlimit="10" x1="92.4" y1="56.1" x2="92.4" y2="52.8"/>
	
		<line fill="none" stroke="#1E2538" stroke-linecap="round" stroke-linejoin="round" stroke-miterlimit="10" x1="92.4" y1="50.1" x2="92.4" y2="46.8"/>
	
		<line fill="none" stroke="#1E2538" stroke-linecap="round" stroke-linejoin="round" stroke-miterlimit="10" x1="92.4" y1="44.1" x2="92.4" y2="40.8"/>
	
		<line fill="none" stroke="#1E2538" stroke-linecap="round" stroke-linejoin="round" stroke-miterlimit="10" x1="92.4" y1="38.1" x2="92.4" y2="34.8"/>
	
		<line fill="none" stroke="#1E2538" stroke-linecap="round" stroke-linejoin="round" stroke-miterlimit="10" x1="96.4" y1="68.1" x2="96.4" y2="64.8"/>
	
		<line fill="none" stroke="#1E2538" stroke-linecap="round" stroke-linejoin="round" stroke-miterlimit="10" x1="96.4" y1="62.1" x2="96.4" y2="58.8"/>
	
		<line fill="none" stroke="#1E2538" stroke-linecap="round" stroke-linejoin="round" stroke-miterlimit="10" x1="96.4" y1="56.1" x2="96.4" y2="52.8"/>
	
		<line fill="none" stroke="#1E2538" stroke-linecap="round" stroke-linejoin="round" stroke-miterlimit="10" x1="96.4" y1="50.1" x2="96.4" y2="46.8"/>
	
		<line fill="none" stroke="#1E2538" stroke-linecap="round" stroke-linejoin="round" stroke-miterlimit="10" x1="96.4" y1="44.1" x2="96.4" y2="40.8"/>
	
		<line fill="none" stroke="#1E2538" stroke-linecap="round" stroke-linejoin="round" stroke-miterlimit="10" x1="96.4" y1="38.1" x2="96.4" y2="34.8"/>
	
		<line fill="none" stroke="#1E2538" stroke-linecap="round" stroke-linejoin="round" stroke-miterlimit="10" x1="80.4" y1="68.1" x2="80.4" y2="64.8"/>
	
		<line fill="none" stroke="#1E2538" stroke-linecap="round" stroke-linejoin="round" stroke-miterlimit="10" x1="80.4" y1="62.1" x2="80.4" y2="58.8"/>
	
		<line fill="none" stroke="#1E2538" stroke-linecap="round" stroke-linejoin="round" stroke-miterlimit="10" x1="80.4" y1="56.1" x2="80.4" y2="52.8"/>
	
		<line fill="none" stroke="#1E2538" stroke-linecap="round" stroke-linejoin="round" stroke-miterlimit="10" x1="80.4" y1="50.1" x2="80.4" y2="46.8"/>
	
		<line fill="none" stroke="#1E2538" stroke-linecap="round" stroke-linejoin="round" stroke-miterlimit="10" x1="80.4" y1="44.1" x2="80.4" y2="40.8"/>
	
		<line fill="none" stroke="#1E2538" stroke-linecap="round" stroke-linejoin="round" stroke-miterlimit="10" x1="80.4" y1="38.1" x2="80.4" y2="34.8"/>
	
		<rect x="16" y="16.8" fill="#DED6E8" stroke="#1E2538" stroke-linecap="round" stroke-linejoin="round" stroke-miterlimit="10" width="21.4" height="2.1"/>
	
		<rect x="18.1" y="14.7" fill="#DED6E8" stroke="#1E2538" stroke-linecap="round" stroke-linejoin="round" stroke-miterlimit="10" width="17.3" height="2.1"/>
	
		<rect x="46.8" y="35.2" fill="#EDEDED" stroke="#1E2538" stroke-linecap="round" stroke-linejoin="round" stroke-miterlimit="10" width="21.4" height="2.1"/>
	
		<rect x="77.5" y="26.7" fill="#A49BB2" stroke="#1E2538" stroke-linecap="round" stroke-linejoin="round" stroke-miterlimit="10" width="21.4" height="2.1"/>
	
		<rect x="79.6" y="24.6" fill="#A49BB2" stroke="#1E2538" stroke-linecap="round" stroke-linejoin="round" stroke-miterlimit="10" width="17.3" height="2.1"/>
	<g>
		<circle fill="#1E2538" cx="55.3" cy="67" r="0.5"/>
		<circle fill="#1E2538" cx="55.3" cy="63.5" r="0.5"/>
		<circle fill="#1E2538" cx="55.3" cy="60" r="0.5"/>
		<circle fill="#1E2538" cx="55.3" cy="56.5" r="0.5"/>
		<circle fill="#1E2538" cx="55.3" cy="53" r="0.5"/>
		<circle fill="#1E2538" cx="55.3" cy="49.5" r="0.5"/>
		<circle fill="#1E2538" cx="55.3" cy="46" r="0.5"/>
		<circle fill="#1E2538" cx="55.3" cy="42.5" r="0.5"/>
	</g>
	<g>
		<circle fill="#1E2538" cx="59.9" cy="67" r="0.5"/>
		<circle fill="#1E2538" cx="59.9" cy="63.5" r="0.5"/>
		<circle fill="#1E2538" cx="59.9" cy="60" r="0.5"/>
		<circle fill="#1E2538" cx="59.9" cy="56.5" r="0.5"/>
		<circle fill="#1E2538" cx="59.9" cy="53" r="0.5"/>
		<circle fill="#1E2538" cx="59.9" cy="49.5" r="0.5"/>
		<circle fill="#1E2538" cx="59.9" cy="46" r="0.5"/>
		<circle fill="#1E2538" cx="59.9" cy="42.5" r="0.5"/>
	</g>
	<g>
		<circle fill="#1E2538" cx="57.6" cy="67" r="0.5"/>
		<circle fill="#1E2538" cx="57.6" cy="63.5" r="0.5"/>
		<circle fill="#1E2538" cx="57.6" cy="60" r="0.5"/>
		<circle fill="#1E2538" cx="57.6" cy="56.5" r="0.5"/>
		<circle fill="#1E2538" cx="57.6" cy="53" r="0.5"/>
		<circle fill="#1E2538" cx="57.6" cy="49.5" r="0.5"/>
		<circle fill="#1E2538" cx="57.6" cy="46" r="0.5"/>
		<circle fill="#1E2538" cx="57.6" cy="42.5" r="0.5"/>
	</g>
	<g>
		<circle fill="#1E2538" cx="62.2" cy="67" r="0.5"/>
		<circle fill="#1E2538" cx="62.2" cy="63.5" r="0.5"/>
		<circle fill="#1E2538" cx="62.2" cy="60" r="0.5"/>
		<circle fill="#1E2538" cx="62.2" cy="56.5" r="0.5"/>
		<circle fill="#1E2538" cx="62.2" cy="53" r="0.5"/>
		<circle fill="#1E2538" cx="62.2" cy="49.5" r="0.5"/>
		<circle fill="#1E2538" cx="62.2" cy="46" r="0.5"/>
		<circle fill="#1E2538" cx="62.2" cy="42.5" r="0.5"/>
		<circle fill="#1E2538" cx="62.2" cy="77.3" r="0.5"/>
		<circle fill="#1E2538" cx="62.2" cy="73.8" r="0.5"/>
		<circle fill="#1E2538" cx="62.2" cy="70.3" r="0.5"/>
	</g>
	<g>
		<circle fill="#1E2538" cx="64.5" cy="67" r="0.5"/>
		<circle fill="#1E2538" cx="64.5" cy="63.5" r="0.5"/>
		<circle fill="#1E2538" cx="64.5" cy="60" r="0.5"/>
		<circle fill="#1E2538" cx="64.5" cy="56.5" r="0.5"/>
		<circle fill="#1E2538" cx="64.5" cy="53" r="0.5"/>
		<circle fill="#1E2538" cx="64.5" cy="49.5" r="0.5"/>
		<circle fill="#1E2538" cx="64.5" cy="46" r="0.5"/>
		<circle fill="#1E2538" cx="64.5" cy="42.5" r="0.5"/>
		<circle fill="#1E2538" cx="64.5" cy="77.3" r="0.5"/>
		<circle fill="#1E2538" cx="64.5" cy="73.8" r="0.5"/>
		<circle fill="#1E2538" cx="64.5" cy="70.3" r="0.5"/>
	</g>
	<g>
		<circle fill="#1E2538" cx="66.8" cy="67" r="0.5"/>
		<circle fill="#1E2538" cx="66.8" cy="63.5" r="0.5"/>
		<circle fill="#1E2538" cx="66.8" cy="60" r="0.5"/>
		<circle fill="#1E2538" cx="66.8" cy="56.5" r="0.5"/>
		<circle fill="#1E2538" cx="66.8" cy="53" r="0.5"/>
		<circle fill="#1E2538" cx="66.8" cy="49.5" r="0.5"/>
		<circle fill="#1E2538" cx="66.8" cy="46" r="0.5"/>
		<circle fill="#1E2538" cx="66.8" cy="42.5" r="0.5"/>
		<circle fill="#1E2538" cx="66.8" cy="77.3" r="0.5"/>
		<circle fill="#1E2538" cx="66.8" cy="73.8" r="0.5"/>
		<circle fill="#1E2538" cx="66.8" cy="70.3" r="0.5"/>
	</g>
	<g>
		<circle fill="#1E2538" cx="48.3" cy="67" r="0.5"/>
		<circle fill="#1E2538" cx="48.3" cy="63.5" r="0.5"/>
		<circle fill="#1E2538" cx="48.3" cy="60" r="0.5"/>
		<circle fill="#1E2538" cx="48.3" cy="56.5" r="0.5"/>
		<circle fill="#1E2538" cx="48.3" cy="53" r="0.5"/>
		<circle fill="#1E2538" cx="48.3" cy="49.5" r="0.5"/>
		<circle fill="#1E2538" cx="48.3" cy="46" r="0.5"/>
		<circle fill="#1E2538" cx="48.3" cy="42.5" r="0.5"/>
		<circle fill="#1E2538" cx="48.3" cy="77.3" r="0.5"/>
		<circle fill="#1E2538" cx="48.3" cy="73.8" r="0.5"/>
		<circle fill="#1E2538" cx="48.3" cy="70.3" r="0.5"/>
	</g>
	<g>
		<circle fill="#1E2538" cx="50.6" cy="67" r="0.5"/>
		<circle fill="#1E2538" cx="50.6" cy="63.5" r="0.5"/>
		<circle fill="#1E2538" cx="50.6" cy="60" r="0.5"/>
		<circle fill="#1E2538" cx="50.6" cy="56.5" r="0.5"/>
		<circle fill="#1E2538" cx="50.6" cy="53" r="0.5"/>
		<circle fill="#1E2538" cx="50.6" cy="49.5" r="0.5"/>
		<circle fill="#1E2538" cx="50.6" cy="46" r="0.5"/>
		<circle fill="#1E2538" cx="50.6" cy="42.5" r="0.5"/>
		<circle fill="#1E2538" cx="50.6" cy="77.3" r="0.5"/>
		<circle fill="#1E2538" cx="50.6" cy="73.8" r="0.5"/>
		<circle fill="#1E2538" cx="50.6" cy="70.3" r="0.5"/>
	</g>
	<g>
		<circle fill="#1E2538" cx="52.9" cy="67" r="0.5"/>
		<circle fill="#1E2538" cx="52.9" cy="63.5" r="0.5"/>
		<circle fill="#1E2538" cx="52.9" cy="60" r="0.5"/>
		<circle fill="#1E2538" cx="52.9" cy="56.5" r="0.5"/>
		<circle fill="#1E2538" cx="52.9" cy="53" r="0.5"/>
		<circle fill="#1E2538" cx="52.9" cy="49.5" r="0.5"/>
		<circle fill="#1E2538" cx="52.9" cy="46" r="0.5"/>
		<circle fill="#1E2538" cx="52.9" cy="42.5" r="0.5"/>
		<circle fill="#1E2538" cx="52.9" cy="77.3" r="0.5"/>
		<circle fill="#1E2538" cx="52.9" cy="73.8" r="0.5"/>
		<circle fill="#1E2538" cx="52.9" cy="70.3" r="0.5"/>
	</g>
	
		<rect x="81.5" y="73.4" fill="#69617C" stroke="#1E2538" stroke-linecap="round" stroke-linejoin="round" stroke-miterlimit="10" width="6.9" height="7.8"/>
	
		<rect x="88.4" y="73.4" fill="#69617C" stroke="#1E2538" stroke-linecap="round" stroke-linejoin="round" stroke-miterlimit="10" width="7.3" height="7.8"/>
</g>
</svg>
