<?xml version="1.0" encoding="utf-8"?>
<!-- Generator: Adobe Illustrator 18.1.1, SVG Export Plug-In . SVG Version: 6.00 Build 0)  -->
<svg version="1.1" id="Calque_1" xmlns="http://www.w3.org/2000/svg" xmlns:xlink="http://www.w3.org/1999/xlink" x="0px" y="0px"
	 viewBox="0 0 841.9 595.3" enable-background="new 0 0 841.9 595.3" xml:space="preserve">
<g>
	<g>
		<path fill="#EDEDED" d="M638.3,501.6H275.7c-6.2,0-10.3-5.1-10.3-10.3V15.4c0-6.2,4.1-10.3,10.3-10.3h362.5
			c6.2,0,10.3,4.1,10.3,10.3v475.8C648.6,497.4,644.4,501.6,638.3,501.6z"/>
		<path fill="#1E2538" d="M638.3,502.1H275.7c-6.7,0-10.8-5.6-10.8-10.8V15.4c0-6.5,4.3-10.8,10.8-10.8h362.5
			c6.5,0,10.8,4.3,10.8,10.8v475.8C649.1,497.7,644.7,502.1,638.3,502.1z M275.7,5.6c-5.9,0-9.8,3.9-9.8,9.8v475.8
			c0,4.7,3.7,9.8,9.8,9.8h362.5c5.9,0,9.8-3.9,9.8-9.8V15.4c0-5.9-3.9-9.8-9.8-9.8H275.7z"/>
	</g>
	<g>
		<path fill="#EDEDED" d="M590.9,545.8H228.4c-5.1,0-10.3-5.1-10.3-10.3V59.7c0-6.2,5.1-10.3,10.3-10.3h362.5
			c5.1,0,10.3,4.1,10.3,10.3v475.8C601.2,540.7,596,545.8,590.9,545.8z"/>
		<path fill="#1E2538" d="M590.9,546.3H228.4c-5.4,0-10.8-5.3-10.8-10.8V59.7c0-6.7,5.6-10.8,10.8-10.8h362.5
			c5.2,0,10.8,4.1,10.8,10.8v475.8C601.7,541,596.3,546.3,590.9,546.3z M228.4,49.9c-4.7,0-9.8,3.7-9.8,9.8v475.8
			c0,4.9,4.9,9.8,9.8,9.8h362.5c4.9,0,9.8-4.9,9.8-9.8V59.7c0-6.1-5.1-9.8-9.8-9.8H228.4z"/>
	</g>
	<g>
		<path fill="#F7F7F7" d="M542.5,590.1H179.9c-6.2,0-10.3-5.1-10.3-10.3V104c0-6.2,4.1-10.3,10.3-10.3h362.5
			c5.1,0,10.3,4.1,10.3,10.3v475.8C552.8,585,548.7,590.1,542.5,590.1z"/>
		<path fill="#1E2538" d="M542.5,590.6H179.9c-6.7,0-10.8-5.6-10.8-10.8V104c0-6.5,4.3-10.8,10.8-10.8h362.5
			c5.2,0,10.8,4.1,10.8,10.8v475.8C553.3,585,549.1,590.6,542.5,590.6z M179.9,94.2c-5.9,0-9.8,3.9-9.8,9.8v475.8
			c0,4.7,3.7,9.8,9.8,9.8h362.5c6.1,0,9.8-5.1,9.8-9.8V104c0-6.1-5.1-9.8-9.8-9.8H179.9z"/>
	</g>
	<g>
		<path fill="#1E2538" d="M461.1,162.2H222.2c-0.3,0-0.5-0.2-0.5-0.5s0.2-0.5,0.5-0.5h238.9c0.3,0,0.5,0.2,0.5,0.5
			S461.4,162.2,461.1,162.2z"/>
	</g>
	<g>
		<path fill="#1E2538" d="M380.8,196.2H222.2c-0.3,0-0.5-0.2-0.5-0.5s0.2-0.5,0.5-0.5h158.6c0.3,0,0.5,0.2,0.5,0.5
			S381.1,196.2,380.8,196.2z"/>
	</g>
	<g>
		<path fill="#1E2538" d="M461.1,231.2H222.2c-0.3,0-0.5-0.2-0.5-0.5s0.2-0.5,0.5-0.5h238.9c0.3,0,0.5,0.2,0.5,0.5
			S461.4,231.2,461.1,231.2z"/>
	</g>
	<g>
		<circle fill="#EAE5E2" cx="446.7" cy="213.2" r="105"/>
		<path fill="#1E2538" d="M446.7,318.7c-58.2,0-105.5-47.3-105.5-105.5s47.3-105.5,105.5-105.5S552.2,155,552.2,213.2
			S504.9,318.7,446.7,318.7z M446.7,108.6c-57.6,0-104.5,46.9-104.5,104.5S389,317.7,446.7,317.7c57.6,0,104.5-46.9,104.5-104.5
			S504.3,108.6,446.7,108.6z"/>
	</g>
	<g>
		<circle fill="#D7EEF7" cx="446.7" cy="213.2" r="77.2"/>
		<path fill="#1E2538" d="M446.7,290.9c-42.9,0-77.7-34.9-77.7-77.7s34.9-77.7,77.7-77.7s77.7,34.9,77.7,77.7
			S489.6,290.9,446.7,290.9z M446.7,136.4c-42.3,0-76.7,34.4-76.7,76.7s34.4,76.7,76.7,76.7c42.3,0,76.7-34.4,76.7-76.7
			S489,136.4,446.7,136.4z"/>
	</g>
	<g opacity="0.5" enable-background="new    ">
		<path fill="#FFFFFF" d="M393.1,222.5c-5.1,0-9.3-4.1-9.3-9.3c0-35,28.8-63.9,63.9-63.9c5.1,0,9.3,4.1,9.3,9.3
			c0,5.1-4.1,9.3-9.3,9.3c-24.7,0-45.3,20.6-45.3,45.3C402.4,218.3,398.3,222.5,393.1,222.5z"/>
	</g>
	<g>
		<path fill="#FCF8DE" d="M531.1,282.2l137,137l0,0c6.2,6.2,6.2,15.4,0,21.6c-6.2,6.2-15.4,6.2-21.6,0l-1-1l-138-138"/>
		<path fill="#1E2538" d="M657.3,445.9c-4,0-8-1.6-11.2-4.8l-1-1l-138-138c-0.2-0.2-0.2-0.5,0-0.7s0.5-0.2,0.7,0l139,139
			c2.9,2.9,6.6,4.5,10.5,4.5c3.9,0,7.6-1.6,10.5-4.5s4.5-6.6,4.5-10.5c0-3.9-1.6-7.6-4.5-10.5l-137-137c-0.2-0.2-0.2-0.5,0-0.7
			s0.5-0.2,0.7,0l137,137c6.4,6.4,6.4,16,0,22.3C665.3,444.3,661.3,445.9,657.3,445.9z"/>
	</g>
	<g>
		<path fill="#1E2538" d="M446.7,238.4c-0.3,0-0.5-0.2-0.5-0.5v-50.5c0-0.3,0.2-0.5,0.5-0.5s0.5,0.2,0.5,0.5v50.5
			C447.2,238.2,447,238.4,446.7,238.4z"/>
	</g>
	<g>
		<path fill="#1E2538" d="M472.4,213.7h-51.5c-0.3,0-0.5-0.2-0.5-0.5s0.2-0.5,0.5-0.5h51.5c0.3,0,0.5,0.2,0.5,0.5
			S472.7,213.7,472.4,213.7z"/>
	</g>
</g>
</svg>
