<?xml version="1.0" encoding="utf-8"?>
<!-- Generator: Adobe Illustrator 18.1.1, SVG Export Plug-In . SVG Version: 6.00 Build 0)  -->
<svg version="1.1" id="Calque_1" xmlns="http://www.w3.org/2000/svg" xmlns:xlink="http://www.w3.org/1999/xlink" x="0px" y="0px"
	 viewBox="0 0 49.8 57.8" enable-background="new 0 0 49.8 57.8" xml:space="preserve">
<g>
	<path fill="#EDEDED" stroke="#1E2538" stroke-linecap="round" stroke-linejoin="round" stroke-miterlimit="10" d="M46,48.7H10.8
		c-0.6,0-1-0.5-1-1V1.5c0-0.6,0.4-1,1-1H46c0.6,0,1,0.4,1,1v46.2C47,48.3,46.6,48.7,46,48.7z"/>
	<path fill="#EDEDED" stroke="#1E2538" stroke-linecap="round" stroke-linejoin="round" stroke-miterlimit="10" d="M41.4,53H6.2
		c-0.5,0-1-0.5-1-1V5.8c0-0.6,0.5-1,1-1h35.2c0.5,0,1,0.4,1,1V52C42.4,52.5,41.9,53,41.4,53z"/>
	<path fill="#F7F7F7" stroke="#1E2538" stroke-linecap="round" stroke-linejoin="round" stroke-miterlimit="10" d="M36.7,57.3H1.5
		c-0.6,0-1-0.5-1-1V10.1c0-0.6,0.4-1,1-1h35.2c0.5,0,1,0.4,1,1v46.2C37.7,56.8,37.3,57.3,36.7,57.3z"/>
	
		<line fill="none" stroke="#1E2538" stroke-linecap="round" stroke-linejoin="round" stroke-miterlimit="10" x1="5.6" y1="15.7" x2="28.8" y2="15.7"/>
	
		<line fill="none" stroke="#1E2538" stroke-linecap="round" stroke-linejoin="round" stroke-miterlimit="10" x1="5.6" y1="19" x2="21" y2="19"/>
	
		<line fill="none" stroke="#1E2538" stroke-linecap="round" stroke-linejoin="round" stroke-miterlimit="10" x1="5.6" y1="22.4" x2="28.8" y2="22.4"/>
	
		<circle fill="#EAE5E2" stroke="#1E2538" stroke-linecap="round" stroke-linejoin="round" stroke-miterlimit="10" cx="27.4" cy="20.7" r="10.2"/>
	
		<circle fill="#D7EEF7" stroke="#1E2538" stroke-linecap="round" stroke-linejoin="round" stroke-miterlimit="10" cx="27.4" cy="20.7" r="7.5"/>
	<path opacity="0.5" fill="#FFFFFF" d="M22.2,21.6c-0.5,0-0.9-0.4-0.9-0.9c0-3.4,2.8-6.2,6.2-6.2c0.5,0,0.9,0.4,0.9,0.9
		s-0.4,0.9-0.9,0.9c-2.4,0-4.4,2-4.4,4.4C23.1,21.2,22.7,21.6,22.2,21.6z"/>
	<path fill="#FCF8DE" stroke="#1E2538" stroke-linecap="round" stroke-linejoin="round" stroke-miterlimit="10" d="M35.6,27.4
		l13.3,13.3h0c0.6,0.6,0.6,1.5,0,2.1c-0.6,0.6-1.5,0.6-2.1,0l-0.1-0.1L33.3,29.3"/>
	
		<line fill="none" stroke="#1E2538" stroke-linecap="round" stroke-linejoin="round" stroke-miterlimit="10" x1="27.4" y1="18.2" x2="27.4" y2="23.1"/>
	
		<line fill="none" stroke="#1E2538" stroke-linecap="round" stroke-linejoin="round" stroke-miterlimit="10" x1="24.9" y1="20.7" x2="29.9" y2="20.7"/>
</g>
</svg>
