<?xml version="1.0" encoding="utf-8"?>
<!-- Generator: Adobe Illustrator 18.1.1, SVG Export Plug-In . SVG Version: 6.00 Build 0)  -->
<svg version="1.1" id="Calque_1" xmlns="http://www.w3.org/2000/svg" xmlns:xlink="http://www.w3.org/1999/xlink" x="0px" y="0px"
	 viewBox="0 0 52.9 31.9" enable-background="new 0 0 52.9 31.9" xml:space="preserve">
<path fill="#FFFFFF" stroke="#1E2538" stroke-linecap="round" stroke-linejoin="round" stroke-miterlimit="10" d="M26.8,26.4
	l3.1,2.3c0.8,0.8,2,0.8,2.8,0c0.8-0.8,0.8-2,0-2.8l-6.9-6.1l8.3,7.2c0.8,0.8,2,0.8,2.8,0c0.8-0.8,0.8-2,0-2.8l-7.6-6.7l8.3,7.2
	c0.8,0.8,2,0.8,2.8,0c0.8-0.8,0.8-2,0-2.8"/>
<path fill="#FFFFFF" stroke="#1E2538" stroke-linecap="round" stroke-linejoin="round" stroke-miterlimit="10" d="M26.2,25.9l3,2.3
	c0.7,0.8,0.6,2.1-0.3,2.8c-0.8,0.7-2.1,0.6-2.8-0.3l-1.7-1.4"/>
<line fill="#FFFFFF" stroke="#1E2538" stroke-linecap="round" stroke-linejoin="round" stroke-miterlimit="10" x1="26.4" y1="6.3" x2="14.9" y2="7"/>
<line fill="#FFFFFF" stroke="#1E2538" stroke-linecap="round" stroke-linejoin="round" stroke-miterlimit="10" x1="10.6" y1="19.8" x2="13.1" y2="20.5"/>
<g>
	<path fill="#FCF0E3" stroke="#1E2538" stroke-linecap="round" stroke-linejoin="round" stroke-miterlimit="10" d="M39.8,21.3
		L28.8,11L26,10.6c-1.9,4.7-5.9,3.7-5.9,3.7l1.8-5.2l3.6-2.7l3.8-0.7l8,1.5l5.5,12.5L39.8,21.3z"/>
	<path fill="#FCF0E3" stroke="#1E2538" stroke-linecap="round" stroke-linejoin="round" stroke-miterlimit="10" d="M19.4,27.1
		L19.4,27.1c-0.7-0.6-0.9-1.6-0.3-2.4l1.7-2.1c0.6-0.7,1.6-0.9,2.4-0.3l0,0c0.7,0.6,0.9,1.6,0.3,2.4l-1.7,2.1
		C21.2,27.6,20.1,27.7,19.4,27.1z"/>
	<path fill="#FCF0E3" stroke="#1E2538" stroke-linecap="round" stroke-linejoin="round" stroke-miterlimit="10" d="M16.2,25.3
		L16.2,25.3c-0.7-0.6-0.9-1.6-0.3-2.4l2-2.6c0.6-0.7,1.6-0.9,2.4-0.3l0,0c0.7,0.6,0.9,1.6,0.3,2.4l-2,2.6C18,25.7,17,25.8,16.2,25.3
		z"/>
	<path fill="#FCF0E3" stroke="#1E2538" stroke-linecap="round" stroke-linejoin="round" stroke-miterlimit="10" d="M13,23.3L13,23.3
		c-0.7-0.6-0.9-1.6-0.3-2.4l1.7-2.1c0.6-0.7,1.6-0.9,2.4-0.3l0,0c0.7,0.6,0.9,1.6,0.3,2.4l-1.7,2.1C14.8,23.8,13.8,23.9,13,23.3z"/>
	<path fill="#FCF0E3" stroke="#1E2538" stroke-linecap="round" stroke-linejoin="round" stroke-miterlimit="10" d="M22.4,28.8
		L22.4,28.8c-0.7-0.6-0.9-1.6-0.3-2.4l0.9-1.2c0.6-0.7,1.6-0.9,2.4-0.3l0,0c0.7,0.6,0.9,1.6,0.3,2.4l-0.9,1.2
		C24.2,29.2,23.1,29.3,22.4,28.8z"/>
</g>
<polyline fill="#FFFFFF" stroke="#1E2538" stroke-linecap="round" stroke-linejoin="round" stroke-miterlimit="10" points="40.5,22 
	39.8,21.3 43,19.6 "/>
<rect x="39.5" y="1.6" transform="matrix(0.9155 -0.4023 0.4023 0.9155 -0.6978 18.7386)" fill="#8DC2ED" stroke="#1E2538" stroke-linecap="round" stroke-linejoin="round" stroke-miterlimit="10" width="9.6" height="18.8"/>
<rect x="3.9" y="1.6" transform="matrix(-0.9155 -0.4023 0.4023 -0.9155 12.1789 24.6188)" fill="#FDE9A5" stroke="#1E2538" stroke-linecap="round" stroke-linejoin="round" stroke-miterlimit="10" width="9.6" height="18.8"/>
<line fill="#FFFFFF" stroke="#1E2538" stroke-linecap="round" stroke-linejoin="round" stroke-miterlimit="10" x1="42.8" y1="19.7" x2="39.8" y2="21.3"/>
<path fill="#C6E1F6" d="M52.4,17.5l-1.4-3.1c-2.8,4.2-6.8,4.2-8.8,3.9l1.4,3.1L52.4,17.5z"/>
<path fill="#FCF8DE" d="M9.3,21.3l1.4-3.1c-5,0.8-7.7-2.1-8.8-3.8l-1.4,3.1L9.3,21.3z"/>
<rect x="39.5" y="1.6" transform="matrix(0.9155 -0.4023 0.4023 0.9155 -0.6978 18.7386)" fill="none" stroke="#1E2538" stroke-linecap="round" stroke-linejoin="round" stroke-miterlimit="10" width="9.6" height="18.8"/>
<rect x="3.9" y="1.6" transform="matrix(-0.9155 -0.4023 0.4023 -0.9155 12.1789 24.6188)" fill="none" stroke="#1E2538" stroke-linecap="round" stroke-linejoin="round" stroke-miterlimit="10" width="9.6" height="18.8"/>
</svg>
