<?xml version="1.0" encoding="utf-8"?>
<!-- Generator: Adobe Illustrator 18.1.1, SVG Export Plug-In . SVG Version: 6.00 Build 0)  -->
<svg version="1.1" id="Calque_1" xmlns="http://www.w3.org/2000/svg" xmlns:xlink="http://www.w3.org/1999/xlink" x="0px" y="0px"
	 viewBox="0 0 52.9 31.9" enable-background="new 0 0 52.9 31.9" xml:space="preserve">
<g>
	<path fill="#1E2538" d="M31.3,29.7c-0.6,0-1.2-0.2-1.7-0.7l-3.1-2.3c-0.2-0.1-0.2-0.4-0.1-0.5c0.1-0.2,0.4-0.2,0.5-0.1l3.1,2.3
		c0.7,0.7,1.7,0.7,2.3,0c0.6-0.6,0.6-1.7,0-2.3l-6.8-6.1c-0.2-0.1-0.2-0.4,0-0.5c0.1-0.2,0.4-0.2,0.5,0l8.3,7.2
		c0.7,0.7,1.7,0.7,2.3,0c0.3-0.3,0.5-0.7,0.5-1.1c0-0.4-0.2-0.8-0.5-1.1l-7.6-6.7c-0.2-0.1-0.2-0.4,0-0.5c0.1-0.2,0.4-0.2,0.5,0
		l8.3,7.2c0.7,0.6,1.7,0.6,2.3,0c0.3-0.3,0.5-0.7,0.5-1.1s-0.2-0.8-0.5-1.1c-0.1-0.1-0.1-0.4,0-0.5c0.1-0.1,0.4-0.1,0.5,0
		c0.9,0.9,0.9,2.4,0,3.4c-0.7,0.7-1.9,0.9-2.8,0.4c0,0.1,0,0.2,0,0.2c0,0.6-0.2,1.2-0.7,1.7c-0.9,0.9-2.5,0.9-3.4,0l-0.2-0.2
		c0,0.1,0,0.1,0,0.2c0,0.6-0.2,1.2-0.7,1.7C32.6,29.4,32,29.7,31.3,29.7z"/>
</g>
<g>
	<path fill="#1E2538" d="M27.6,31.8c-0.1,0-0.1,0-0.2,0c-0.6-0.1-1.2-0.4-1.6-0.8l-1.7-1.4c-0.2-0.1-0.2-0.4-0.1-0.5
		c0.1-0.2,0.4-0.2,0.5-0.1l1.7,1.4c0.3,0.4,0.7,0.6,1.1,0.6c0.4,0,0.9-0.1,1.2-0.4c0.3-0.3,0.5-0.7,0.6-1.1c0-0.4-0.1-0.9-0.4-1.2
		l-2.9-2.2c-0.2-0.1-0.2-0.4-0.1-0.5c0.1-0.2,0.4-0.2,0.5-0.1l3,2.3c0.5,0.5,0.7,1.2,0.6,1.8c-0.1,0.6-0.4,1.2-0.8,1.6
		C28.7,31.6,28.1,31.8,27.6,31.8z"/>
</g>
<g>
	<line fill="#FFFFFF" x1="26.4" y1="6.3" x2="14.9" y2="7"/>
	<path fill="#1E2538" d="M14.9,7.3c-0.2,0-0.4-0.2-0.4-0.4c0-0.2,0.1-0.4,0.4-0.4l11.5-0.7c0.2,0,0.4,0.1,0.4,0.4
		c0,0.2-0.1,0.4-0.4,0.4L14.9,7.3C14.9,7.3,14.9,7.3,14.9,7.3z"/>
</g>
<g>
	<line fill="#FFFFFF" x1="10.6" y1="19.8" x2="13.1" y2="20.5"/>
	<path fill="#1E2538" d="M13.1,20.9c0,0-0.1,0-0.1,0l-2.5-0.7c-0.2-0.1-0.3-0.3-0.3-0.5c0.1-0.2,0.3-0.3,0.5-0.3l2.5,0.7
		c0.2,0.1,0.3,0.3,0.3,0.5C13.4,20.8,13.2,20.9,13.1,20.9z"/>
</g>
<g>
	<g>
		<path fill="#FCF0E3" d="M39.8,21.3L28.8,11L26,10.6c-1.9,4.7-5.9,3.7-5.9,3.7l1.8-5.2l3.6-2.7l3.8-0.7l8,1.5l5.5,12.5L39.8,21.3z"
			/>
		<path fill="#1E2538" d="M39.8,21.7c-0.1,0-0.2,0-0.3-0.1l-11-10.3L26.3,11c-2.1,4.7-6.2,3.6-6.2,3.6c-0.1,0-0.2-0.1-0.2-0.2
			c0-0.1-0.1-0.2,0-0.3L21.5,9c0-0.1,0.1-0.1,0.1-0.2l3.6-2.7c0,0,0.1-0.1,0.2-0.1l3.8-0.7c0,0,0.1,0,0.1,0l8,1.5
			c0.1,0,0.2,0.1,0.3,0.2l5.5,12.5c0.1,0.2,0,0.4-0.2,0.5l-3,1.7C40,21.7,39.9,21.7,39.8,21.7z M26,10.2C26,10.2,26,10.2,26,10.2
			l2.8,0.3c0.1,0,0.2,0,0.2,0.1l10.9,10.2l2.4-1.4l-5.3-12l-7.8-1.4l-3.7,0.7l-3.4,2.6L20.6,14c1,0.1,3.6,0,5-3.5
			C25.7,10.3,25.9,10.2,26,10.2z"/>
	</g>
	<g>
		<path fill="#FCF0E3" d="M19.4,27.1L19.4,27.1c-0.7-0.6-0.9-1.6-0.3-2.4l1.7-2.1c0.6-0.7,1.6-0.9,2.4-0.3l0,0
			c0.7,0.6,0.9,1.6,0.3,2.4l-1.7,2.1C21.2,27.6,20.1,27.7,19.4,27.1z"/>
		<path fill="#1E2538" d="M20.4,27.8c-0.5,0-0.9-0.2-1.3-0.4c-0.4-0.3-0.7-0.8-0.8-1.4c-0.1-0.5,0.1-1.1,0.4-1.5l1.7-2.1
			c0.7-0.9,2-1,2.9-0.4c0.4,0.3,0.7,0.8,0.8,1.4c0.1,0.5-0.1,1.1-0.4,1.5l-1.7,2.1C21.7,27.6,21.1,27.8,20.4,27.8z M22.1,22.3
			c-0.4,0-0.8,0.2-1,0.5L19.4,25c-0.2,0.3-0.3,0.6-0.3,1c0,0.3,0.2,0.7,0.5,0.9c0.6,0.4,1.4,0.3,1.8-0.2l1.7-2.1
			c0.2-0.3,0.3-0.6,0.3-1c0-0.3-0.2-0.7-0.5-0.9C22.7,22.4,22.4,22.3,22.1,22.3z"/>
	</g>
	<g>
		<path fill="#FCF0E3" d="M16.2,25.3L16.2,25.3c-0.7-0.6-0.9-1.6-0.3-2.4l2-2.6c0.6-0.7,1.6-0.9,2.4-0.3l0,0
			c0.7,0.6,0.9,1.6,0.3,2.4l-2,2.6C18,25.7,17,25.8,16.2,25.3z"/>
		<path fill="#1E2538" d="M17.3,26c-0.5,0-0.9-0.2-1.3-0.4c-0.9-0.7-1.1-2-0.4-2.9l2-2.6c0.7-0.9,2-1,2.9-0.4
			c0.4,0.3,0.7,0.8,0.8,1.4c0.1,0.5-0.1,1.1-0.4,1.5l-2,2.6C18.5,25.7,17.9,26,17.3,26z M19.3,20c-0.4,0-0.8,0.2-1,0.5l-2,2.6
			c-0.4,0.6-0.3,1.4,0.2,1.8c0.6,0.4,1.4,0.3,1.8-0.2l2-2.6c0.2-0.3,0.3-0.6,0.3-1c0-0.3-0.2-0.7-0.5-0.9C19.9,20.1,19.6,20,19.3,20
			z"/>
	</g>
	<g>
		<path fill="#FCF0E3" d="M13,23.3L13,23.3c-0.7-0.6-0.9-1.6-0.3-2.4l1.7-2.1c0.6-0.7,1.6-0.9,2.4-0.3l0,0c0.7,0.6,0.9,1.6,0.3,2.4
			l-1.7,2.1C14.8,23.8,13.8,23.9,13,23.3z"/>
		<path fill="#1E2538" d="M14.1,24.1c-0.5,0-0.9-0.2-1.3-0.4c-0.4-0.3-0.7-0.8-0.8-1.4c-0.1-0.5,0.1-1.1,0.4-1.5l1.7-2.1
			c0.7-0.9,2-1,2.9-0.4c0.4,0.3,0.7,0.8,0.8,1.4c0.1,0.5-0.1,1.1-0.4,1.5l-1.7,2.1C15.3,23.8,14.7,24.1,14.1,24.1z M15.7,18.6
			c-0.4,0-0.8,0.2-1,0.5L13,21.2c-0.2,0.3-0.3,0.6-0.3,1c0,0.3,0.2,0.7,0.5,0.9c0.6,0.4,1.4,0.3,1.8-0.2l1.7-2.1
			c0.2-0.3,0.3-0.6,0.3-1c0-0.3-0.2-0.7-0.5-0.9C16.3,18.7,16,18.6,15.7,18.6z"/>
	</g>
	<g>
		<path fill="#FCF0E3" d="M22.4,28.8L22.4,28.8c-0.7-0.6-0.9-1.6-0.3-2.4l0.9-1.2c0.6-0.7,1.6-0.9,2.4-0.3l0,0
			c0.7,0.6,0.9,1.6,0.3,2.4l-0.9,1.2C24.2,29.2,23.1,29.3,22.4,28.8z"/>
		<path fill="#1E2538" d="M23.4,29.5c-0.5,0-0.9-0.2-1.3-0.4c-0.4-0.3-0.7-0.8-0.8-1.4c-0.1-0.5,0.1-1.1,0.4-1.5l0.9-1.2
			c0.7-0.9,2-1,2.9-0.4c0.9,0.7,1.1,2,0.4,2.9L25,28.7C24.6,29.2,24.1,29.5,23.4,29.5z M24.3,25c-0.4,0-0.8,0.2-1,0.5l-0.9,1.2
			c-0.2,0.3-0.3,0.6-0.3,1c0,0.3,0.2,0.7,0.5,0.9c0.6,0.4,1.4,0.3,1.8-0.2l0.9-1.2c0.4-0.6,0.3-1.4-0.2-1.8
			C24.9,25.1,24.6,25,24.3,25z"/>
	</g>
</g>
<g>
	<polyline fill="#FFFFFF" points="40.5,22 39.8,21.3 43,19.6 	"/>
	<path fill="#1E2538" d="M40.5,22.3c-0.1,0-0.2,0-0.3-0.1l-0.7-0.6c-0.1-0.1-0.1-0.2-0.1-0.3c0-0.1,0.1-0.2,0.2-0.3l3.1-1.8
		c0.2-0.1,0.4,0,0.5,0.1c0.1,0.2,0,0.4-0.1,0.5l-2.7,1.5l0.3,0.3c0.2,0.1,0.2,0.4,0,0.5C40.8,22.3,40.6,22.3,40.5,22.3z"/>
</g>
<g>
	
		<rect x="39.5" y="1.6" transform="matrix(0.9155 -0.4023 0.4023 0.9155 -0.6978 18.7385)" fill="#8DC2ED" width="9.6" height="18.8"/>
	<path fill="#1E2538" d="M43.6,21.9c0,0-0.1,0-0.1,0c-0.1,0-0.2-0.1-0.2-0.2L35.7,4.5c0-0.1,0-0.2,0-0.3c0-0.1,0.1-0.2,0.2-0.2
		l8.8-3.9c0.2-0.1,0.4,0,0.5,0.2l7.6,17.2c0.1,0.2,0,0.4-0.2,0.5l-8.8,3.9C43.7,21.9,43.7,21.9,43.6,21.9z M36.6,4.6l7.3,16.5
		l8.1-3.6L44.7,1L36.6,4.6z"/>
</g>
<g>
	
		<rect x="3.9" y="1.6" transform="matrix(-0.9155 -0.4023 0.4023 -0.9155 12.1789 24.6188)" fill="#FDE9A5" width="9.6" height="18.8"/>
	<path fill="#1E2538" d="M9.3,21.9c-0.1,0-0.1,0-0.2,0L0.3,18c-0.2-0.1-0.3-0.3-0.2-0.5L7.7,0.3C7.8,0.2,8,0.1,8.2,0.2L17,4
		c0.2,0.1,0.3,0.3,0.2,0.5L9.6,21.7c0,0.1-0.1,0.2-0.2,0.2C9.4,21.9,9.3,21.9,9.3,21.9z M1,17.5l8.1,3.6l7.3-16.5L8.2,1L1,17.5z"/>
</g>
<g>
	<line fill="#FFFFFF" x1="42.8" y1="19.7" x2="39.8" y2="21.3"/>
	<path fill="#1E2538" d="M39.8,21.7c-0.1,0-0.3-0.1-0.3-0.2c-0.1-0.2,0-0.4,0.1-0.5l3-1.7c0.2-0.1,0.4,0,0.5,0.1
		c0.1,0.2,0,0.4-0.1,0.5l-3,1.7C40,21.7,39.9,21.7,39.8,21.7z"/>
</g>
<g>
	<path fill="#C6E1F6" d="M52.4,17.5l-1.4-3.1c-2.8,4.2-6.8,4.2-8.8,3.9l1.4,3.1L52.4,17.5z"/>
</g>
<g>
	<path fill="#FCF8DE" d="M9.3,21.3l1.4-3.1c-5,0.8-7.7-2.1-8.8-3.8l-1.4,3.1L9.3,21.3z"/>
</g>
<g>
	<path fill="#1E2538" d="M43.6,21.9c0,0-0.1,0-0.1,0c-0.1,0-0.2-0.1-0.2-0.2L35.7,4.5c0-0.1,0-0.2,0-0.3c0-0.1,0.1-0.2,0.2-0.2
		l8.8-3.9c0.2-0.1,0.4,0,0.5,0.2l7.6,17.2c0.1,0.2,0,0.4-0.2,0.5l-8.8,3.9C43.7,21.9,43.7,21.9,43.6,21.9z M36.6,4.6l7.3,16.5
		l8.1-3.6L44.7,1L36.6,4.6z"/>
</g>
<g>
	<path fill="#1E2538" d="M9.3,21.9c-0.1,0-0.1,0-0.2,0L0.3,18c-0.2-0.1-0.3-0.3-0.2-0.5L7.7,0.3C7.8,0.2,8,0.1,8.2,0.2L17,4
		c0.2,0.1,0.3,0.3,0.2,0.5L9.6,21.7c0,0.1-0.1,0.2-0.2,0.2C9.4,21.9,9.3,21.9,9.3,21.9z M1,17.5l8.1,3.6l7.3-16.5L8.2,1L1,17.5z"/>
</g>
</svg>
