<?xml version="1.0" encoding="utf-8"?>
<!-- Generator: Adobe Illustrator 18.1.1, SVG Export Plug-In . SVG Version: 6.00 Build 0)  -->
<svg version="1.1" id="Calque_1" xmlns="http://www.w3.org/2000/svg" xmlns:xlink="http://www.w3.org/1999/xlink" x="0px" y="0px"
	 viewBox="0 0 841.9 595.3" enable-background="new 0 0 841.9 595.3" xml:space="preserve">
<g>
	<g>
		<path fill="#1E2538" d="M499.3,509.9c-7.9,0-16.2-3-23.8-8.9l-58.9-44.6c-0.2-0.2-0.3-0.5-0.1-0.7s0.5-0.3,0.7-0.1l58.9,44.6
			c12.2,9.7,30.5,13.4,43.9,0c12.5-12.5,12.5-31.4,0-43.9l-109.8-97.1c-0.2-0.2-0.2-0.5,0-0.7c0.2-0.2,0.5-0.2,0.7,0L543,473.1
			c13.7,12.2,31.7,12.2,43.9,0c6.1-6.1,9.4-13.9,9.4-21.9c0-8.1-3.3-15.9-9.4-21.9L466,322.7c-0.2-0.2-0.2-0.5,0-0.7
			c0.2-0.2,0.5-0.2,0.7,0l132.1,114.6c14.3,11.9,32,11.9,43.9,0c12.5-12.5,12.5-31.4,0-43.9c-0.2-0.2-0.2-0.5,0-0.7s0.5-0.2,0.7,0
			c12.9,12.9,12.9,32.4,0,45.3c-12.3,12.3-30.5,12.3-45.2,0l-37.6-32.6l27.1,23.9c6.3,6.3,9.7,14.3,9.7,22.7
			c0,8.4-3.4,16.4-9.7,22.6c-12.6,12.6-31.2,12.6-45.2,0l-51.6-44.8l30,26.5c12.9,12.9,12.9,32.4,0,45.3
			C514.8,506.9,507.2,509.9,499.3,509.9z"/>
		<path fill="#1E2538" d="M499.3,512.4c-8.6,0-17.4-3.3-25.3-9.4l-59-44.7l-0.1-0.1c-1.2-1.2-1.3-3.1-0.1-4.2
			c1.1-1.1,2.9-1.2,4.1-0.3l58.8,44.5c6.6,5.2,14.5,8.2,21.8,8.2c7.2,0,13.5-2.7,18.8-8c5.6-5.6,8.6-12.7,8.6-20.2
			c0-7.4-3-14.6-8.6-20.1L408.4,361c-1.2-1.2-1.2-3.1,0-4.2c1.1-1.1,3-1.1,4.1-0.1l132.1,114.6c6.3,5.6,13.5,8.5,20.9,8.5
			c7.3,0,14.1-2.9,19.6-8.4c5.6-5.6,8.7-12.7,8.7-20.1c0-7.5-3.1-14.6-8.6-20.1l-121-106.7c-1.2-1.2-1.2-3,0-4.2
			c1.1-1.1,3-1.1,4.2-0.1l132.1,114.6c6.5,5.4,13.9,8.3,21.2,8.3c7.3,0,13.9-2.8,19.3-8.2c5.6-5.6,8.6-12.7,8.6-20.2
			c0-7.4-3.1-14.6-8.6-20.2c-1.2-1.2-1.2-3.1,0-4.2c1.1-1.1,3.1-1.1,4.2,0c6.7,6.7,10.4,15.4,10.4,24.4c0,9-3.7,17.7-10.4,24.4
			c-6.5,6.5-14.6,10-23.5,10c-8.2,0-16.3-3-23.6-8.6c1.2,3.5,1.8,7.2,1.8,10.9c0,9.1-3.7,17.8-10.4,24.4c-6.6,6.6-15,10.2-23.8,10.2
			c-8.8,0-17.6-3.6-24.8-10.1l-9.5-8.3c4.1,11.9,1.2,25.3-8.6,35.2C516.2,509,508.1,512.4,499.3,512.4z"/>
	</g>
</g>
<g>
	<g>
		<path fill="#1E2538" d="M442,544.3c-1.5,0-2.9-0.1-4.4-0.3c-8.1-1.1-16.1-5.1-22.5-11.2l-32.7-26.9c-0.2-0.2-0.2-0.5-0.1-0.7
			c0.2-0.2,0.5-0.2,0.7-0.1l32.7,26.9c15.5,14.8,33.9,13.6,43.9,4.8c6.8-5.3,11-12.9,11.8-21.4c0.8-8.2-1.8-16.4-7-22.4l-47.7-36.5
			c-0.2-0.2-0.3-0.5-0.1-0.7s0.5-0.3,0.7-0.1l47.7,36.6c5.5,6.3,8.2,14.7,7.4,23.3c-0.8,8.8-5.2,16.7-12.1,22.1
			C455.2,542,448.9,544.3,442,544.3z"/>
		<path fill="#1E2538" d="M442,546.8c-1.6,0-3.1-0.1-4.7-0.3c-8.6-1.2-17-5.4-23.8-11.8l-32.8-27c-0.9-0.9-1.2-2.4-0.6-3.6l0.2-0.4
			l0.3-0.3c0.9-0.9,2.4-1.2,3.6-0.6l0.3,0.1l0.2,0.2l32.8,27c9.2,8.8,18.2,10.6,24.1,10.6c6.3,0,12.1-2.1,16.4-5.9l0.1-0.1
			c6.3-4.9,10.1-11.9,10.8-19.7c0.7-7.4-1.5-14.8-6.2-20.3L415,458.4l-0.1-0.1c-1.2-1.2-1.3-3.1-0.1-4.2c1.1-1.1,2.9-1.2,4.1-0.3
			l47.8,36.7l0.2,0.2c5.9,6.8,8.9,16,8,25.2c-0.9,9.5-5.5,17.9-13,23.8C456.3,544.3,449.4,546.8,442,546.8z"/>
	</g>
</g>
<g>
	<g>
		<path fill="#1E2538" d="M237.1,155.7c-0.3,0-0.5-0.2-0.5-0.5c0-0.3,0.2-0.5,0.5-0.5l183-11.1c0.3,0,0.5,0.2,0.5,0.5
			c0,0.3-0.2,0.5-0.5,0.5L237.1,155.7L237.1,155.7z"/>
		<path fill="#1E2538" d="M237.2,158.2L237.2,158.2c-1.8,0-3.1-1.3-3.1-3c0-1.6,1.3-2.9,2.9-3l183.1-11.1c1.7,0,3,1.3,3,3
			c0,1.6-1.3,2.9-2.9,3L237.2,158.2z"/>
	</g>
</g>
<g>
	<g>
		<path fill="#1E2538" d="M215.8,372.1h-0.1l-55-15.2c-0.3-0.1-0.4-0.3-0.3-0.6c0.1-0.3,0.4-0.4,0.6-0.3l55,15.2
			c0.3,0.1,0.4,0.3,0.3,0.6C216.2,372,216,372.1,215.8,372.1z"/>
		<path fill="#1E2538" d="M215.8,374.6h-0.4l-0.3-0.1l-55.1-15.2c-1.6-0.5-2.4-2.2-1.9-3.8c0.4-1.2,1.5-2,2.8-2
			c0.3,0,0.6,0.1,0.9,0.2l55,15.2c1.6,0.5,2.4,2.2,1.9,3.8l-0.1,0.3C218,373.9,217,374.6,215.8,374.6z"/>
	</g>
</g>
<g>
	<g>
		<path fill="#FCF0E3" d="M633.4,382.8L458.3,218.9l-44.6-6.4c-30.2,74.8-93.9,58.9-93.9,58.9l28.6-82.8l57.3-43l60.5-11.1
			l127.3,23.9L681,357.3L633.4,382.8z"/>
		<path fill="#1E2538" d="M633,385.8L457.2,221.3l-41.9-6c-21.9,52.2-60.1,60.1-81,60.1c-9,0-14.8-1.4-15-1.5l-2.6-0.7l29.7-86.1
			l58.4-43.8l61.5-11.3l129,24.2l0.5,1.2l88.4,201L633,385.8z M412.1,209.7l47.3,6.8l174.4,163.2l44-23.6l-86-195.6L466.2,137
			l-59.5,10.9l-56.2,42.2l-27.4,79.3c2.4,0.4,6.3,0.8,11.1,0.8c46.5,0,68.3-36.8,77.2-58.7L412.1,209.7z"/>
	</g>
	<g>
		<path fill="#1E2538" d="M633.4,383.3c-0.1,0-0.2,0-0.3-0.1l-175-163.9l-44-6.3c-21.3,52.4-59.1,60.3-79.8,60.3
			c-8.7,0-14.5-1.4-14.6-1.4s-0.3-0.1-0.3-0.2c-0.1-0.1-0.1-0.3,0-0.4l28.6-82.8c0-0.1,0.1-0.2,0.2-0.2l57.3-43
			c0.1,0,0.1-0.1,0.2-0.1l60.5-11.1c0.1,0,0.1,0,0.2,0L593.7,158c0.2,0,0.3,0.1,0.4,0.3l87.5,198.9c0.1,0.2,0,0.5-0.2,0.6
			l-47.7,25.5C633.6,383.3,633.5,383.3,633.4,383.3z M413.8,212L413.8,212l44.6,6.4c0.1,0,0.2,0.1,0.3,0.1l174.8,163.7l47-25.1
			l-87.2-198.3l-127-23.8L406,146.1l-57,42.8L320.5,271c1.6,0.3,6.7,1.3,13.8,1.3c20.4,0,57.9-7.8,79-60
			C413.4,212.1,413.6,212,413.8,212z"/>
		<path fill="#1E2538" d="M634.3,385.8h-0.9c-0.8,0-1.5-0.3-2.1-0.8L457,221.7l-41.3-5.9c-22,52.2-60.3,60-81.4,60
			c-5.2,0-10.5-0.5-14.9-1.4l-0.1,0c-0.8-0.1-1.7-0.7-2.1-1.4l0,0l0,0c0,0,0,0,0-0.1c-0.2-0.4-0.3-0.9-0.3-1.3
			c0-0.4,0.1-0.9,0.3-1.2l28.5-82.4c0.2-0.8,0.7-1.4,1.4-1.8l57.7-43.3h0.3c0.1,0,0.2-0.1,0.3-0.1l60.7-11.1l0.9,0L594,155.5
			c0.6,0.1,1.7,0.4,2.3,1.7l0,0.1l87.5,198.9c0.3,0.7,0.3,1.4,0.1,2.2c-0.2,0.7-0.8,1.4-1.5,1.7L634.3,385.8z M459.1,216h0.6
			l0.7,0.7l173.5,162.5l43.4-23.2l-85.7-195l-125.2-23.5L407,148.4l-55.9,42L323.8,269c2.4,0.4,6.1,0.8,10.5,0.8
			c19.8,0,56.1-7.6,76.7-58.4l0.1-0.2c0.5-1,1.6-1.7,2.7-1.7l0.4,0l44.5,6.4C458.8,215.9,459,216,459.1,216z"/>
	</g>
</g>
<g>
	<g>
		<path fill="#FCF0E3" d="M307.9,474.6L307.9,474.6c-11.1-9.5-14.3-25.5-4.8-38.2l27.1-33.4c9.5-11.1,25.5-14.3,38.2-4.8l0,0
			c11.1,9.5,14.3,25.5,4.8,38.2l-27.1,33.4C336.6,482.5,319.1,484.1,307.9,474.6z"/>
		<path fill="#1E2538" d="M324.6,483.2c-6.7,0-13.2-2.4-18.3-6.7c-12.8-11-15-28.5-5.2-41.6l27.2-33.5c6.2-7.2,14.8-11.3,23.7-11.3
			c6.4,0,12.6,2.1,17.9,6.1l0.1,0.1c12.8,11,15,28.5,5.2,41.6L348,471.4C342.4,478.8,333.9,483.2,324.6,483.2z M352,395.1
			c-7.5,0-14.7,3.5-19.9,9.5L305,438c-8.1,10.9-6.3,25.5,4.5,34.7c4.2,3.5,9.5,5.5,15.1,5.5c7.7,0,14.8-3.6,19.5-9.9l27.2-33.5
			c8.1-10.9,6.3-25.5-4.4-34.7C362.4,396.8,357.2,395.1,352,395.1z"/>
	</g>
	<g>
		<path fill="#1E2538" d="M324.6,481.2c-6.3,0-12.3-2.2-17-6.3c-12-10.3-14-26.6-4.8-38.9l27.1-33.4c5.8-6.7,13.9-10.6,22.1-10.6
			c5.9,0,11.7,2,16.7,5.8c12,10.3,14.1,26.7,4.9,38.9l-27.1,33.4C341.2,477.2,333.2,481.2,324.6,481.2z M352,393
			c-8,0-15.8,3.7-21.4,10.3l-27,33.4c-8.8,11.8-6.9,27.6,4.7,37.5c4.5,3.9,10.3,6,16.4,6c8.3,0,16-3.9,21.1-10.7l27.1-33.4
			c8.8-11.8,6.9-27.6-4.7-37.5C363.2,395,357.7,393,352,393z"/>
		<path fill="#1E2538" d="M324.6,483.7c-6.9,0-13.5-2.5-18.6-6.9c-13-11.1-15.1-28.9-5.2-42.3L328,401c6.4-7.3,15.1-11.5,24-11.5
			c6.5,0,12.8,2.2,18.2,6.3l0.1,0.1c13.1,11.2,15.3,29,5.3,42.3l-27.1,33.4C342.7,479.3,334,483.7,324.6,483.7z M352,395.5
			c-7.3,0-14.4,3.4-19.5,9.4l-27,33.4c-8,10.7-6.2,25,4.4,34c4,3.5,9.3,5.4,14.8,5.4c7.5,0,14.5-3.5,19.1-9.7l27.1-33.4
			c8-10.7,6.2-25-4.3-34C362,397.2,357,395.5,352,395.5z"/>
	</g>
</g>
<g>
	<g>
		<path fill="#FCF0E3" d="M260.2,448.4L260.2,448.4c-11.1-9.5-14.3-25.5-4.8-38.2l31.8-41.4c9.5-11.1,25.5-14.3,38.2-4.8l0,0
			c11.1,9.5,14.3,25.5,4.8,38.2l-31.8,41.4C288.8,454.8,272.9,456.4,260.2,448.4z"/>
		<path fill="#1E2538" d="M277.1,455.9c-6.3,0-12.6-1.9-18.2-5.4l-0.3-0.2c-12.8-11-15-28.5-5.2-41.6l31.9-41.5
			c6.1-7.2,14.8-11.3,23.7-11.3c6.4,0,12.6,2.1,17.9,6.1l0.1,0.1c12.8,11,15,28.5,5.2,41.6l-31.9,41.5
			C294.4,452.1,286.1,455.9,277.1,455.9z M261.7,446.4c4.8,3,10.1,4.5,15.4,4.5c7.6,0,14.5-3.2,19.4-8.9l31.8-41.3
			c8.2-10.9,6.3-25.5-4.4-34.7c-4.5-3.3-9.6-5.1-14.8-5.1c-7.4,0-14.7,3.5-19.9,9.5l-31.8,41.3C249.2,422.6,251,437.2,261.7,446.4z"
			/>
	</g>
	<g>
		<path fill="#1E2538" d="M277,453.9c-5.9,0-11.9-1.7-17.1-5c-12.1-10.3-14.1-26.7-4.9-38.9l31.8-41.4c5.8-6.8,13.9-10.6,22.2-10.6
			c5.9,0,11.7,2,16.7,5.8c12,10.3,14.1,26.7,4.9,38.9L298.7,444C293.2,450.4,285.5,453.9,277,453.9z M309,358.9
			c-8,0-15.8,3.7-21.4,10.3l-31.8,41.4c-8.9,11.8-6.9,27.6,4.7,37.5c5.1,3.2,10.8,4.9,16.6,4.9c8.2,0,15.6-3.4,20.9-9.6l31.8-41.4
			c8.9-11.8,6.9-27.6-4.7-37.5C320.3,360.9,314.7,358.9,309,358.9z"/>
		<path fill="#1E2538" d="M277,456.4c-6.5,0-12.9-1.9-18.4-5.4l-0.3-0.2c-13.1-11.2-15.3-29-5.3-42.3l31.9-41.5
			c6.2-7.3,15-11.5,24.1-11.5c6.5,0,12.8,2.2,18.2,6.3l0.1,0.1c13.1,11.2,15.3,29,5.3,42.3l-32,41.4
			C294.6,452.6,286.2,456.4,277,456.4z M262,446.1c4.7,2.9,9.9,4.4,15.1,4.4c7.4,0,14.2-3.1,19-8.7l31.8-41.3
			c8.1-10.7,6.3-25-4.3-34c-4.4-3.3-9.5-5.1-14.5-5.1c-7.3,0-14.4,3.4-19.5,9.4l-31.8,41.3C249.7,422.8,251.5,437,262,446.1z"/>
	</g>
</g>
<g>
	<g>
		<path fill="#FCF0E3" d="M212.9,419.3L212.9,419.3c-11.1-9.5-14.3-25.5-4.8-38.2l27.1-33.4c9.5-11.1,25.5-14.3,38.2-4.8l0,0
			c11.1,9.5,14.3,25.5,4.8,38.2l-27.1,33.4C241.5,427.2,225.6,428.8,212.9,419.3z"/>
		<path fill="#1E2538" d="M230.2,427.9c-6.5,0-13-2.3-18.8-6.6l-0.1-0.1c-12.8-11-15-28.5-5.2-41.6l27.2-33.5
			c6.2-7.2,14.8-11.3,23.7-11.3c6.4,0,12.6,2.1,17.9,6.1l0.1,0.1c12.8,11,15,28.5,5.2,41.6L253,416.1
			C247.3,423.7,239.2,427.9,230.2,427.9z M214.5,417.3c4.9,3.6,10.3,5.6,15.8,5.6c7.4,0,14.1-3.5,18.9-9.9l27.2-33.5
			c8.1-10.9,6.3-25.5-4.4-34.7c-4.5-3.3-9.6-5.1-14.8-5.1c-7.5,0-14.7,3.5-19.9,9.5L210,382.7C201.9,393.5,203.8,408.1,214.5,417.3z
			"/>
	</g>
	<g>
		<path fill="#1E2538" d="M230.3,425.9c-6.1,0-12.2-2.2-17.7-6.2c-12-10.3-14.1-26.7-4.9-38.9l27.1-33.4
			c5.8-6.7,13.9-10.6,22.1-10.6c5.9,0,11.7,2,16.7,5.8c12,10.3,14.1,26.7,4.9,38.9l-27.1,33.4C246.1,422,238.6,425.9,230.3,425.9z
			 M256.9,337.7c-8,0-15.8,3.7-21.4,10.3l-27,33.4c-8.8,11.8-6.9,27.6,4.7,37.5c5.2,3.9,11.1,6,17,6c8,0,15.2-3.8,20.4-10.7
			l27.1-33.4c8.8-11.8,6.9-27.6-4.7-37.5C268.2,339.7,262.6,337.7,256.9,337.7z"/>
		<path fill="#1E2538" d="M230.3,428.4c-6.5,0-13.2-2.3-19.2-6.7l-0.2-0.1c-13.1-11.2-15.3-29-5.3-42.3l27.2-33.5
			c6.4-7.3,15.1-11.5,24-11.5c6.5,0,12.8,2.2,18.2,6.3l0.1,0.1c13.1,11.2,15.3,29,5.3,42.3l-27.1,33.4
			C247.6,424.1,239.4,428.4,230.3,428.4z M214.8,416.9c4.8,3.6,10.1,5.5,15.4,5.5c7.2,0,13.7-3.4,18.4-9.7l27.1-33.4
			c8-10.7,6.2-25-4.3-34c-4.4-3.3-9.5-5.1-14.5-5.1c-7.3,0-14.4,3.4-19.5,9.4l-27,33.4C202.5,393.6,204.3,407.9,214.8,416.9z"/>
	</g>
</g>
<g>
	<g>
		<path fill="#FCF0E3" d="M356.5,502.1L356.5,502.1c-11.1-9.5-14.3-25.5-4.8-38.2l14.3-19.1c9.5-11.1,25.5-14.3,38.2-4.8l0,0
			c11.1,9.5,14.3,25.5,4.8,38.2l-14.3,19.1C385.1,508.5,367.6,510.1,356.5,502.1z"/>
		<path fill="#1E2538" d="M372.7,509.6c-6.5,0-12.7-1.9-17.6-5.5l-0.2-0.1c-12.8-11-15-28.5-5.2-41.6l14.4-19.2
			c6.1-7.2,14.8-11.3,23.7-11.3c6.4,0,12.6,2.1,17.9,6.1l0.1,0.1c12.8,11,15,28.5,5.2,41.6l-14.4,19.2
			C390.8,505.7,382.1,509.6,372.7,509.6z M358,500.1c4,2.9,9.2,4.5,14.6,4.5c7.9,0,15.2-3.2,20.1-8.9l14.2-19
			c8.2-10.9,6.3-25.5-4.4-34.7c-4.5-3.3-9.6-5.1-14.8-5.1c-7.4,0-14.7,3.5-19.8,9.5l-14.2,19C345.5,476.3,347.4,490.9,358,500.1z"/>
	</g>
	<g>
		<path fill="#1E2538" d="M372.7,507.6c-6.1,0-11.9-1.8-16.5-5.1c-12-10.3-14.1-26.7-4.9-38.9l14.3-19.1
			c5.8-6.8,13.9-10.6,22.2-10.6c5.9,0,11.7,2,16.7,5.8c12,10.3,14.1,26.7,4.9,38.9l-14.3,19.1C389.7,504,381.5,507.6,372.7,507.6z
			 M387.8,434.9c-8,0-15.8,3.7-21.4,10.3l-14.3,19.1c-8.9,11.8-6.9,27.6,4.7,37.5c4.4,3.1,10,4.9,15.9,4.9c8.5,0,16.4-3.5,21.6-9.6
			l14.3-19.1c8.9-11.8,6.9-27.6-4.7-37.5C399.1,436.8,393.5,434.9,387.8,434.9z"/>
		<path fill="#1E2538" d="M372.7,510.1c-6.6,0-13-2-18-5.6l-0.2-0.1c-13.1-11.2-15.3-29-5.3-42.3l14.4-19.2
			c6.2-7.3,15-11.5,24.1-11.5c6.5,0,12.8,2.2,18.2,6.3l0.1,0.1c13.1,11.2,15.3,29,5.3,42.3L397,499.3
			C391.1,506.2,382.3,510.1,372.7,510.1z M358.3,499.8c4.1,2.8,9.1,4.4,14.4,4.4c7.8,0,14.9-3.2,19.6-8.7l14.3-19
			c8.1-10.7,6.3-25-4.3-34.1c-4.3-3.3-9.3-5-14.5-5c-7.3,0-14.4,3.4-19.4,9.4l-14.3,19C346,476.5,347.8,490.8,358.3,499.8z"/>
	</g>
</g>
<g>
	<g>
		<polyline fill="#FFFFFF" points="644.5,393.9 633.4,382.8 684.3,355.7 		"/>
		<polygon fill="#1E2538" points="642.7,395.7 629.2,382.2 683.1,353.5 685.5,357.9 637.5,383.4 646.3,392.1 		"/>
	</g>
	<g>
		<path fill="#1E2538" d="M644.5,394.4c-0.1,0-0.3,0-0.4-0.1L633,383.2c-0.1-0.1-0.2-0.3-0.1-0.4c0-0.2,0.1-0.3,0.3-0.4l50.9-27.1
			c0.2-0.1,0.5,0,0.7,0.2c0.1,0.2,0,0.5-0.2,0.7l-50.3,26.7l10.7,10.7c0.2,0.2,0.2,0.5,0,0.7C644.8,394.4,644.7,394.4,644.5,394.4z"
			/>
		<path fill="#1E2538" d="M644.5,396.9c-0.9,0-1.6-0.3-2.2-0.8L631.2,385c-0.7-0.7-1-1.6-0.8-2.4l-0.2-0.2l0.3-0.2c0,0,0,0,0-0.1
			c0.2-0.6,0.6-1.4,1.6-1.9l50.8-27.1c1.3-0.6,2.7-0.3,3.6,0.6l0.3,0.3l0.2,0.4c0.6,1.2,0.3,2.6-0.7,3.6l-0.3,0.3l-47.6,25.3
			l8.3,8.3c1.2,1.2,1.2,3.1,0,4.2l-0.3,0.3l-0.4,0.2C645.4,396.9,644.8,396.9,644.5,396.9z M644.5,393.8l0,0.6L644.5,393.8z
			 M644.5,393.8v0.6V393.8L644.5,393.8z M644.5,393.3L644.5,393.3l0.1-1.4c0,0,0,0-0.1,0V393.3z M644.5,393.3L644.5,393.3l0-1.4
			c0,0,0,0,0,0L644.5,393.3z"/>
	</g>
</g>
<g>
	<g>
		
			<rect x="628.3" y="69" transform="matrix(0.9155 -0.4023 0.4023 0.9155 -28.4091 301.9825)" fill="#8DC2ED" width="152.8" height="299.2"/>
		<path fill="#1E2538" d="M693.7,389.6L571.3,111.1l144.5-63.5l122.4,278.5L693.7,389.6z M577.9,113.7L696.2,383l135.3-59.5
			L713.2,54.2L577.9,113.7z"/>
	</g>
	<g>
		<path fill="#1E2538" d="M695,386.8c-0.1,0-0.1,0-0.2,0c-0.1,0-0.2-0.1-0.3-0.3L574.2,112.6c-0.1-0.1-0.1-0.3,0-0.4
			c0.1-0.1,0.1-0.2,0.3-0.3l139.9-61.5c0.3-0.1,0.5,0,0.7,0.3l120.4,273.9c0.1,0.3,0,0.5-0.3,0.7l-139.9,61.5
			C695.2,386.8,695.1,386.8,695,386.8z M575.3,112.7l120,273l139-61.1l-120-273L575.3,112.7z"/>
		<path fill="#1E2538" d="M695.8,389.3h-1c-0.5,0-1.8-0.2-2.5-1.7l-0.1-0.1L572,113.8c-0.6-1-0.5-2.3,0.3-3.2
			c0.2-0.2,0.5-0.6,1.1-0.9l0.1-0.1l140-61.5l0.1,0c0.3-0.1,0.7-0.2,1-0.2c0.6,0,1.7,0.2,2.6,1.5l0.2,0.4l120.4,274l0,0.1
			c0.5,1.4,0,2.7-1.3,3.6l-0.4,0.2L695.8,389.3z M578.6,114l118,268.4L831,323.3L713,54.9L578.6,114z"/>
	</g>
</g>
<g>
	<g>
		
			<rect x="61.1" y="70" transform="matrix(-0.9155 -0.4023 0.4023 -0.9155 175.0685 475.961)" fill="#FDE9A5" width="152.8" height="299.2"/>
		<path fill="#1E2538" d="M148.6,390.6L4.1,327.1L126.5,48.6l144.5,63.5L148.6,390.6z M10.7,324.5L146,384l118.4-269.3L129,55.2
			L10.7,324.5z"/>
	</g>
	<g>
		<path fill="#1E2538" d="M147.2,387.8c-0.1,0-0.1,0-0.2,0L7.2,326.3c-0.1-0.1-0.2-0.2-0.3-0.3c0-0.1,0-0.3,0-0.4L127.3,51.7
			c0.1-0.3,0.4-0.4,0.7-0.3l139.9,61.5c0.1,0.1,0.2,0.2,0.3,0.3c0,0.1,0,0.3,0,0.4L147.7,387.5C147.6,387.7,147.4,387.8,147.2,387.8
			z M8,325.6l139,61.1l120-273L128,52.6L8,325.6z"/>
		<path fill="#1E2538" d="M147.2,390.3h-0.7L5.8,328.4L4.4,327v-2l0.2-0.5L125,50.8c0.6-1.5,2.3-2.2,3.8-1.7l0.2,0.1l140.3,61.7
			l1.4,1.4v2l-0.2,0.5L150,388.6l0,0.1C149.4,389.6,148.4,390.3,147.2,390.3z M11.3,324.3l134.4,59.1l118-268.4L129.3,55.9
			L11.3,324.3z"/>
	</g>
</g>
<g>
	<g>
		<path fill="#1E2538" d="M633.4,383.3c-0.2,0-0.4-0.1-0.4-0.3c-0.1-0.2,0-0.5,0.2-0.7l47.7-25.5c0.2-0.1,0.5,0,0.7,0.2
			c0.1,0.2,0,0.5-0.2,0.7l-47.7,25.5C633.6,383.3,633.5,383.3,633.4,383.3z"/>
		<path fill="#1E2538" d="M633.4,385.8c-1.4,0-2.6-0.9-2.8-2.2c-0.3-1,0-2.2,0.9-3l0.3-0.3l48-25.7c1.3-0.7,2.7-0.3,3.7,0.6l0.3,0.3
			l0.2,0.4c0.6,1.2,0.3,2.6-0.7,3.6l-0.3,0.3l-47.8,25.6C634.6,385.6,634,385.8,633.4,385.8z M633.4,382.7v0.6V382.7L633.4,382.7z
			 M633.4,382.5L633.4,382.5l0-1.7c0,0,0,0,0,0V382.5z"/>
	</g>
</g>
<g>
	<g>
		<path fill="#C6E1F6" d="M833.9,322.3L811.7,273c-44.6,66.8-108.2,66.8-140,62.1l22.3,49.3L833.9,322.3z"/>
	</g>
</g>
<g>
	<g>
		<path fill="#FCF8DE" d="M148,382.8l22.3-49.3C90.7,346.2,47.7,300,30.2,273L8,322.3L148,382.8z"/>
	</g>
</g>
<g>
	<g>
		<path fill="#1E2538" d="M695,386.8c-0.1,0-0.1,0-0.2,0c-0.1,0-0.2-0.1-0.3-0.3L574.2,112.6c-0.1-0.1-0.1-0.3,0-0.4
			c0.1-0.1,0.1-0.2,0.3-0.3l139.9-61.5c0.3-0.1,0.5,0,0.7,0.3l120.4,273.9c0.1,0.3,0,0.5-0.3,0.7l-139.9,61.5
			C695.2,386.8,695.1,386.8,695,386.8z M575.3,112.7l120,273l139-61.1l-120-273L575.3,112.7z"/>
		<path fill="#1E2538" d="M695.8,389.3h-1c-0.5,0-1.8-0.2-2.5-1.7l-0.1-0.1L572,113.8c-0.6-1-0.5-2.3,0.3-3.2
			c0.2-0.2,0.5-0.6,1.1-0.9l0.1-0.1l140-61.5l0.1,0c0.3-0.1,0.7-0.2,1-0.2c0.6,0,1.7,0.2,2.6,1.5l0.2,0.4l120.4,274l0,0.1
			c0.5,1.4,0,2.7-1.3,3.6l-0.4,0.2L695.8,389.3z M578.6,114l118,268.4L831,323.3L713,54.9L578.6,114z"/>
	</g>
</g>
<g>
	<g>
		<path fill="#1E2538" d="M147.2,387.8c-0.1,0-0.1,0-0.2,0L7.2,326.3c-0.1-0.1-0.2-0.2-0.3-0.3c0-0.1,0-0.3,0-0.4L127.3,51.7
			c0.1-0.3,0.4-0.4,0.7-0.3l139.9,61.5c0.1,0.1,0.2,0.2,0.3,0.3c0,0.1,0,0.3,0,0.4L147.7,387.5C147.6,387.7,147.4,387.8,147.2,387.8
			z M8,325.6l139,61.1l120-273L128,52.6L8,325.6z"/>
		<path fill="#1E2538" d="M147.2,390.3h-0.7L5.8,328.4L4.4,327v-2l0.2-0.5L125,50.8c0.6-1.5,2.3-2.2,3.8-1.7l0.2,0.1l140.3,61.7
			l1.4,1.4v2l-0.2,0.5L150,388.6l0,0.1C149.4,389.6,148.4,390.3,147.2,390.3z M11.3,324.3l134.4,59.1l118-268.4L129.3,55.9
			L11.3,324.3z"/>
	</g>
</g>
</svg>
