<?xml version="1.0" encoding="utf-8"?>
<!-- Generator: Adobe Illustrator 18.1.1, SVG Export Plug-In . SVG Version: 6.00 Build 0)  -->
<svg version="1.1" id="Calque_1" xmlns="http://www.w3.org/2000/svg" xmlns:xlink="http://www.w3.org/1999/xlink" x="0px" y="0px"
	 viewBox="0 0 841.9 595.3" enable-background="new 0 0 841.9 595.3" xml:space="preserve">
<g>
	<g>
		<polygon fill="#FDE9A5" points="421.6,6.4 319.2,190.7 114.3,227.9 252.6,376.4 228.3,588.9 421.6,499.3 612.3,588.9 588,377.7 
			727.5,225.3 521.4,185.6 		"/>
	</g>
	<g>
		<polygon fill="#FEF3D1" points="727.5,225.3 521.4,185.6 421.6,6.4 420.3,7.7 420.3,499.3 421.6,499.3 612.3,588.9 588,377.7 		
			"/>
	</g>
	<g>
		<path fill="#1E2538" d="M228.3,589.4c-0.1,0-0.2,0-0.3-0.1c-0.1-0.1-0.2-0.3-0.2-0.5l24.3-212.3L114,228.2
			c-0.1-0.1-0.2-0.3-0.1-0.5s0.2-0.3,0.4-0.3l204.6-37.1L421.1,6.2c0.2-0.3,0.7-0.3,0.9,0l99.7,179l205.9,39.6
			c0.2,0,0.3,0.2,0.4,0.3c0.1,0.2,0,0.4-0.1,0.5L588.5,377.8l24.3,211c0,0.2-0.1,0.4-0.2,0.5c-0.1,0.1-0.3,0.1-0.5,0l-190.5-89.5
			l-193.1,89.5C228.4,589.4,228.4,589.4,228.3,589.4z M115.3,228.2L253,376c0.1,0.1,0.1,0.3,0.1,0.4l-24.2,211.6l192.5-89.2
			c0.1-0.1,0.3-0.1,0.4,0L611.7,588l-24.2-210.3c0-0.1,0-0.3,0.1-0.4l138.9-151.7l-205.2-39.5c-0.1,0-0.3-0.1-0.3-0.2L421.6,7.4
			L319.6,191c-0.1,0.1-0.2,0.2-0.3,0.2L115.3,228.2z"/>
	</g>
	<g>
		<g>
			<path fill="#1E2538" d="M370.4,372.5L370.4,372.5c-10.2,0-19.2-9-19.2-19.2v-85.8c0-10.2,9-19.2,19.2-19.2l0,0
				c10.2,0,19.2,9,19.2,19.2v85.8C389.6,363.6,380.6,372.5,370.4,372.5z"/>
		</g>
		<g>
			<path fill="#FFFFFF" d="M370.4,309.8L370.4,309.8c-3.8,0-6.4-2.6-6.4-6.4V274c0-3.8,2.6-6.4,6.4-6.4l0,0c3.8,0,6.4,2.6,6.4,6.4
				v29.4C376.8,307.2,372.9,309.8,370.4,309.8z"/>
		</g>
		<g>
			<path fill="#1E2538" d="M471.5,372.5L471.5,372.5c-10.2,0-19.2-9-19.2-19.2v-85.8c0-10.2,9-19.2,19.2-19.2l0,0
				c10.2,0,19.2,9,19.2,19.2v85.8C490.7,363.6,481.8,372.5,471.5,372.5z"/>
		</g>
		<g>
			<path fill="#FFFFFF" d="M471.5,309.8L471.5,309.8c-3.8,0-6.4-2.6-6.4-6.4V274c0-3.8,2.6-6.4,6.4-6.4l0,0c3.8,0,6.4,2.6,6.4,6.4
				v29.4C477.9,307.2,475.4,309.8,471.5,309.8z"/>
		</g>
	</g>
	<g opacity="0.5" enable-background="new    ">
		<path fill="#FFFFFF" d="M182.2,245.8L182.2,245.8c-1.3-5.1,2.6-11.5,9-11.5l97.3-16.6c5.1-1.3,11.5,2.6,11.5,9l0,0
			c1.3,5.1-2.6,11.5-9,11.5l-97.3,16.6C188.6,254.8,183.5,250.9,182.2,245.8z"/>
	</g>
</g>
</svg>
