<?xml version="1.0" encoding="utf-8"?>
<!-- Generator: Adobe Illustrator 18.1.1, SVG Export Plug-In . SVG Version: 6.00 Build 0)  -->
<svg version="1.1" id="Calque_1" xmlns="http://www.w3.org/2000/svg" xmlns:xlink="http://www.w3.org/1999/xlink" x="0px" y="0px"
	 viewBox="0 0 54.3 87.6" enable-background="new 0 0 54.3 87.6" xml:space="preserve">
<g>
	
		<rect x="9.3" y="34.1" fill="#EDEDED" stroke="#1E2538" stroke-linecap="round" stroke-linejoin="round" stroke-miterlimit="10" width="35.7" height="30.4"/>
	
		<rect x="14.8" y="64.5" fill="#DADADA" stroke="#1E2538" stroke-linecap="round" stroke-linejoin="round" stroke-miterlimit="10" width="9.5" height="22.6"/>
	
		<rect x="30" y="64.5" fill="#DADADA" stroke="#1E2538" stroke-linecap="round" stroke-linejoin="round" stroke-miterlimit="10" width="9.5" height="22.6"/>
	
		<rect x="11.8" y="13" fill="#EDEDED" stroke="#1E2538" stroke-linecap="round" stroke-linejoin="round" stroke-miterlimit="10" width="30.7" height="21.1"/>
	<rect x="22.8" y="27.9" fill="#1E2538" width="8.8" height="1.1"/>
	
		<circle fill="#F7F7F7" stroke="#1E2538" stroke-linecap="round" stroke-linejoin="round" stroke-miterlimit="10" cx="19.3" cy="21" r="3.7"/>
	
		<circle fill="#F7F7F7" stroke="#1E2538" stroke-linecap="round" stroke-linejoin="round" stroke-miterlimit="10" cx="35" cy="21" r="3.7"/>
	<path fill="#1E2538" d="M19.3,19.3c-0.9,0-1.7,0.7-1.7,1.7s0.8,1.7,1.7,1.7c0.9,0,1.7-0.7,1.7-1.7h-1.7V19.3z"/>
	<path fill="#1E2538" d="M35,21v-1.7c-0.9,0-1.7,0.7-1.7,1.7s0.7,1.7,1.7,1.7s1.7-0.7,1.7-1.7c0,0,0,0,0,0H35z"/>
	<path fill="#FDD0A7" stroke="#1E2538" stroke-linecap="round" stroke-linejoin="round" stroke-miterlimit="10" d="M10.7,27.1
		c-2,0-3.6-1.6-3.6-3.6s1.6-3.6,3.6-3.6V27.1z"/>
	<path fill="#FDD0A7" stroke="#1E2538" stroke-linecap="round" stroke-linejoin="round" stroke-miterlimit="10" d="M43.6,19.8
		c2,0,3.6,1.6,3.6,3.6s-1.6,3.6-3.6,3.6V19.8z"/>
	<path opacity="0.5" fill="#FFFFFF" d="M47.8,24.3c-1.7,0-3-1.4-3-3s1.4-3,3-3V24.3z"/>
	<path opacity="0.5" fill="#FFFFFF" d="M6.5,24.3c1.7,0,3-1.4,3-3s-1.4-3-3-3V24.3z"/>
	
		<line fill="none" stroke="#1E2538" stroke-linecap="round" stroke-linejoin="round" stroke-miterlimit="10" x1="27.2" y1="13" x2="27.2" y2="8.8"/>
	
		<circle fill="#FACDC2" stroke="#1E2538" stroke-linecap="round" stroke-linejoin="round" stroke-miterlimit="10" cx="27.2" cy="6.6" r="2"/>
	
		<line fill="none" stroke="#1E2538" stroke-linecap="round" stroke-linejoin="round" stroke-miterlimit="10" x1="27.2" y1="2.7" x2="27.2" y2="0.5"/>
	
		<line fill="none" stroke="#1E2538" stroke-linecap="round" stroke-linejoin="round" stroke-miterlimit="10" x1="29.9" y1="3.9" x2="31.5" y2="2.3"/>
	
		<line fill="none" stroke="#1E2538" stroke-linecap="round" stroke-linejoin="round" stroke-miterlimit="10" x1="31.1" y1="6.6" x2="33.3" y2="6.6"/>
	
		<line fill="none" stroke="#1E2538" stroke-linecap="round" stroke-linejoin="round" stroke-miterlimit="10" x1="24.4" y1="3.9" x2="22.8" y2="2.3"/>
	
		<line fill="none" stroke="#1E2538" stroke-linecap="round" stroke-linejoin="round" stroke-miterlimit="10" x1="23.2" y1="6.6" x2="21" y2="6.6"/>
	
		<rect x="42.5" y="18.9" fill="#C6C6C6" stroke="#1E2538" stroke-linecap="round" stroke-linejoin="round" stroke-miterlimit="10" width="1.3" height="9.1"/>
	
		<rect x="45.4" y="37.2" fill="#C6C6C6" stroke="#1E2538" stroke-linecap="round" stroke-linejoin="round" stroke-miterlimit="10" width="1.3" height="9.1"/>
	
		<rect x="7.5" y="37.2" fill="#C6C6C6" stroke="#1E2538" stroke-linecap="round" stroke-linejoin="round" stroke-miterlimit="10" width="1.3" height="9.1"/>
	
		<rect x="10.5" y="18.9" fill="#C6C6C6" stroke="#1E2538" stroke-linecap="round" stroke-linejoin="round" stroke-miterlimit="10" width="1.3" height="9.1"/>
	
		<rect x="46.8" y="39" fill="#DADADA" stroke="#1E2538" stroke-linecap="round" stroke-linejoin="round" stroke-miterlimit="10" width="7" height="21.4"/>
	
		<rect x="0.5" y="39" fill="#DADADA" stroke="#1E2538" stroke-linecap="round" stroke-linejoin="round" stroke-miterlimit="10" width="7" height="21.4"/>
	<path fill="#D7EEF7" stroke="#1E2538" stroke-linecap="round" stroke-linejoin="round" stroke-miterlimit="10" d="M16,49.3
		c0-6.1,5-11.1,11.1-11.1s11.1,5,11.1,11.1H16z"/>
	<polygon fill="#FEC3C0" stroke="#1E2538" stroke-linecap="round" stroke-linejoin="round" stroke-miterlimit="10" points="26,49.2 
		27.2,44.4 28.1,49.2 	"/>
	
		<line fill="none" stroke="#1E2538" stroke-linecap="round" stroke-linejoin="round" stroke-miterlimit="10" x1="27.2" y1="38.2" x2="27.2" y2="39.9"/>
	
		<line fill="none" stroke="#1E2538" stroke-linecap="round" stroke-linejoin="round" stroke-miterlimit="10" x1="21.7" y1="39.7" x2="22.5" y2="41.2"/>
	
		<line fill="none" stroke="#1E2538" stroke-linecap="round" stroke-linejoin="round" stroke-miterlimit="10" x1="17.7" y1="43.7" x2="19.2" y2="44.6"/>
	
		<line fill="none" stroke="#1E2538" stroke-linecap="round" stroke-linejoin="round" stroke-miterlimit="10" x1="32.7" y1="39.6" x2="31.8" y2="41.1"/>
	
		<line fill="none" stroke="#1E2538" stroke-linecap="round" stroke-linejoin="round" stroke-miterlimit="10" x1="36.7" y1="43.6" x2="35.2" y2="44.5"/>
	<polygon opacity="0.5" fill="#FFFFFF" points="45,59.9 19.2,34.1 9.3,34.1 9.3,44.4 29.4,64.5 45,64.5 	"/>
	
		<rect x="9.3" y="34.1" fill="none" stroke="#1E2538" stroke-linecap="round" stroke-linejoin="round" stroke-miterlimit="10" width="35.7" height="30.4"/>
	<rect x="15.3" y="65" fill="#C6C6C6" width="8.6" height="2.1"/>
	<rect x="30.5" y="65" fill="#C6C6C6" width="8.6" height="2.1"/>
	
		<rect x="14.8" y="64.5" fill="none" stroke="#1E2538" stroke-linecap="round" stroke-linejoin="round" stroke-miterlimit="10" width="9.5" height="22.6"/>
	
		<rect x="30" y="64.5" fill="none" stroke="#1E2538" stroke-linecap="round" stroke-linejoin="round" stroke-miterlimit="10" width="9.5" height="22.6"/>
</g>
</svg>
