<?xml version="1.0" encoding="utf-8"?>
<!-- Generator: Adobe Illustrator 18.1.1, SVG Export Plug-In . SVG Version: 6.00 Build 0)  -->
<svg version="1.1" id="Calque_1" xmlns="http://www.w3.org/2000/svg" xmlns:xlink="http://www.w3.org/1999/xlink" x="0px" y="0px"
	 viewBox="0 0 841.9 595.3" enable-background="new 0 0 841.9 595.3" xml:space="preserve">
<g>
	<g>
		<rect x="299.6" y="231.7" fill="#EDEDED" width="242.6" height="206.6"/>
		<path fill="#1E2538" d="M542.2,438.8H299.6c-0.3,0-0.5-0.2-0.5-0.5V231.7c0-0.3,0.2-0.5,0.5-0.5h242.6c0.3,0,0.5,0.2,0.5,0.5
			v206.6C542.7,438.6,542.5,438.8,542.2,438.8z M300.1,437.8h241.6V232.2H300.1V437.8z"/>
	</g>
	<g>
		<rect x="337" y="438.3" fill="#DADADA" width="64.6" height="153.6"/>
		<path fill="#1E2538" d="M401.6,592.4H337c-0.3,0-0.5-0.2-0.5-0.5V438.3c0-0.3,0.2-0.5,0.5-0.5h64.6c0.3,0,0.5,0.2,0.5,0.5v153.6
			C402.1,592.2,401.9,592.4,401.6,592.4z M337.5,591.4h63.6V438.8h-63.6V591.4z"/>
	</g>
	<g>
		<rect x="440.3" y="438.3" fill="#DADADA" width="64.6" height="153.6"/>
		<path fill="#1E2538" d="M504.9,592.4h-64.6c-0.3,0-0.5-0.2-0.5-0.5V438.3c0-0.3,0.2-0.5,0.5-0.5h64.6c0.3,0,0.5,0.2,0.5,0.5v153.6
			C505.4,592.2,505.1,592.4,504.9,592.4z M440.8,591.4h63.6V438.8h-63.6V591.4z"/>
	</g>
	<g>
		<rect x="316.6" y="88.3" fill="#EDEDED" width="208.6" height="143.4"/>
		<path fill="#1E2538" d="M525.3,232.2H316.6c-0.3,0-0.5-0.2-0.5-0.5V88.3c0-0.3,0.2-0.5,0.5-0.5h208.6c0.3,0,0.5,0.2,0.5,0.5v143.4
			C525.8,232,525.5,232.2,525.3,232.2z M317.1,231.2h207.6V88.8H317.1V231.2z"/>
	</g>
	<g>
		<rect x="391.4" y="189.6" fill="#1E2538" width="59.8" height="7.5"/>
	</g>
	<g>
		<circle fill="#F7F7F7" cx="367.6" cy="142.7" r="25.1"/>
		<path fill="#1E2538" d="M367.6,168.3c-14.1,0-25.6-11.5-25.6-25.6c0-14.1,11.5-25.6,25.6-25.6c14.1,0,25.6,11.5,25.6,25.6
			C393.2,156.8,381.7,168.3,367.6,168.3z M367.6,118.1c-13.6,0-24.6,11.1-24.6,24.6s11.1,24.6,24.6,24.6s24.6-11.1,24.6-24.6
			S381.2,118.1,367.6,118.1z"/>
	</g>
	<g>
		<circle fill="#F7F7F7" cx="474.3" cy="142.7" r="25.1"/>
		<path fill="#1E2538" d="M474.3,168.3c-14.1,0-25.6-11.5-25.6-25.6c0-14.1,11.5-25.6,25.6-25.6s25.6,11.5,25.6,25.6
			C499.9,156.8,488.4,168.3,474.3,168.3z M474.3,118.1c-13.6,0-24.6,11.1-24.6,24.6s11.1,24.6,24.6,24.6c13.6,0,24.6-11.1,24.6-24.6
			S487.9,118.1,474.3,118.1z"/>
	</g>
	<g>
		<path fill="#1E2538" d="M367.6,131.2c-6.1,0-11.6,4.8-11.6,11.6c0,6.8,5.4,11.6,11.6,11.6s11.6-4.8,11.6-11.6h-11.6V131.2z"/>
	</g>
	<g>
		<path fill="#1E2538" d="M474.3,142.7v-11.6c-6.1,0-11.6,4.8-11.6,11.6c0,6.8,4.8,11.6,11.6,11.6c6.8,0,11.6-4.8,11.6-11.6l0,0
			H474.3z"/>
	</g>
	<g>
		<path fill="#FDD0A7" d="M309.2,184.2c-13.6,0-24.5-10.9-24.5-24.5c0-13.6,10.9-24.5,24.5-24.5V184.2z"/>
		<path fill="#1E2538" d="M309.2,184.7c-13.8,0-25-11.2-25-25c0-13.8,11.2-25,25-25c0.3,0,0.5,0.2,0.5,0.5v48.9
			C309.7,184.4,309.4,184.7,309.2,184.7z M308.7,135.7c-13,0.3-23.5,10.9-23.5,24c0,13,10.5,23.7,23.5,24V135.7z"/>
	</g>
	<g>
		<path fill="#FDD0A7" d="M532.7,134.5c13.6,0,24.5,10.9,24.5,24.5s-10.9,24.5-24.5,24.5V134.5z"/>
		<path fill="#1E2538" d="M532.7,184c-0.3,0-0.5-0.2-0.5-0.5v-48.9c0-0.3,0.2-0.5,0.5-0.5c13.8,0,25,11.2,25,25
			C557.7,172.8,546.5,184,532.7,184z M533.2,135.1V183c13-0.3,23.5-10.9,23.5-24C556.7,146,546.2,135.3,533.2,135.1z"/>
	</g>
	<g opacity="0.5" enable-background="new    ">
		<path fill="#FFFFFF" d="M561.3,165.1c-11.6,0-20.4-9.5-20.4-20.4s9.5-20.4,20.4-20.4V165.1z"/>
	</g>
	<g opacity="0.5" enable-background="new    ">
		<path fill="#FFFFFF" d="M280.6,165.1c11.6,0,20.4-9.5,20.4-20.4s-9.5-20.4-20.4-20.4V165.1z"/>
	</g>
	<g>
		<path fill="#1E2538" d="M421.3,88.8c-0.3,0-0.5-0.2-0.5-0.5V59.8c0-0.3,0.2-0.5,0.5-0.5s0.5,0.2,0.5,0.5v28.5
			C421.8,88.6,421.6,88.8,421.3,88.8z"/>
	</g>
	<g>
		<circle fill="#FACDC2" cx="421.3" cy="44.8" r="13.6"/>
		<path fill="#1E2538" d="M421.3,58.9c-7.8,0-14.1-6.3-14.1-14.1s6.3-14.1,14.1-14.1c7.8,0,14.1,6.3,14.1,14.1
			S429.1,58.9,421.3,58.9z M421.3,31.8c-7.2,0-13.1,5.9-13.1,13.1s5.9,13.1,13.1,13.1s13.1-5.9,13.1-13.1S428.5,31.8,421.3,31.8z"/>
	</g>
	<g>
		<path fill="#1E2538" d="M421.3,18.8c-0.3,0-0.5-0.2-0.5-0.5v-15c0-0.3,0.2-0.5,0.5-0.5s0.5,0.2,0.5,0.5v15
			C421.8,18.6,421.6,18.8,421.3,18.8z"/>
	</g>
	<g>
		<path fill="#1E2538" d="M439.6,27c-0.1,0-0.3,0-0.4-0.1c-0.2-0.2-0.2-0.5,0-0.7l10.9-10.9c0.2-0.2,0.5-0.2,0.7,0s0.2,0.5,0,0.7
			L440,26.9C439.9,27,439.8,27,439.6,27z"/>
	</g>
	<g>
		<path fill="#1E2538" d="M462.7,45.3h-15c-0.3,0-0.5-0.2-0.5-0.5s0.2-0.5,0.5-0.5h15c0.3,0,0.5,0.2,0.5,0.5S463,45.3,462.7,45.3z"
			/>
	</g>
	<g>
		<path fill="#1E2538" d="M402.3,27c-0.1,0-0.3,0-0.4-0.1L391,16c-0.2-0.2-0.2-0.5,0-0.7s0.5-0.2,0.7,0l10.9,10.9
			c0.2,0.2,0.2,0.5,0,0.7C402.5,27,402.4,27,402.3,27z"/>
	</g>
	<g>
		<path fill="#1E2538" d="M394.1,45.3h-14.9c-0.3,0-0.5-0.2-0.5-0.5s0.2-0.5,0.5-0.5h14.9c0.3,0,0.5,0.2,0.5,0.5
			S394.4,45.3,394.1,45.3z"/>
	</g>
	<g>
		<rect x="525.3" y="128.4" fill="#C6C6C6" width="8.8" height="61.8"/>
		<path fill="#1E2538" d="M534.1,190.8h-8.8c-0.3,0-0.5-0.2-0.5-0.5v-61.8c0-0.3,0.2-0.5,0.5-0.5h8.8c0.3,0,0.5,0.2,0.5,0.5v61.8
			C534.6,190.5,534.4,190.8,534.1,190.8z M525.8,189.8h7.8v-60.8h-7.8V189.8z"/>
	</g>
	<g>
		<rect x="545" y="252.8" fill="#C6C6C6" width="8.8" height="61.8"/>
		<path fill="#1E2538" d="M553.8,315.1H545c-0.3,0-0.5-0.2-0.5-0.5v-61.8c0-0.3,0.2-0.5,0.5-0.5h8.8c0.3,0,0.5,0.2,0.5,0.5v61.8
			C554.3,314.9,554.1,315.1,553.8,315.1z M545.5,314.1h7.8v-60.8h-7.8V314.1z"/>
	</g>
	<g>
		<rect x="287.4" y="252.8" fill="#C6C6C6" width="8.8" height="61.8"/>
		<path fill="#1E2538" d="M296.2,315.1h-8.8c-0.3,0-0.5-0.2-0.5-0.5v-61.8c0-0.3,0.2-0.5,0.5-0.5h8.8c0.3,0,0.5,0.2,0.5,0.5v61.8
			C296.7,314.9,296.5,315.1,296.2,315.1z M287.9,314.1h7.8v-60.8h-7.8V314.1z"/>
	</g>
	<g>
		<rect x="307.8" y="128.4" fill="#C6C6C6" width="8.8" height="61.8"/>
		<path fill="#1E2538" d="M316.6,190.8h-8.8c-0.3,0-0.5-0.2-0.5-0.5v-61.8c0-0.3,0.2-0.5,0.5-0.5h8.8c0.3,0,0.5,0.2,0.5,0.5v61.8
			C317.1,190.5,316.9,190.8,316.6,190.8z M308.3,189.8h7.8v-60.8h-7.8V189.8z"/>
	</g>
	<g>
		<rect x="554.5" y="265" fill="#DADADA" width="47.6" height="145.4"/>
		<path fill="#1E2538" d="M602,410.9h-47.6c-0.3,0-0.5-0.2-0.5-0.5V265c0-0.3,0.2-0.5,0.5-0.5H602c0.3,0,0.5,0.2,0.5,0.5v145.4
			C602.5,410.7,602.3,410.9,602,410.9z M555,409.9h46.6V265.5H555V409.9z"/>
	</g>
	<g>
		<rect x="239.8" y="265" fill="#DADADA" width="47.6" height="145.4"/>
		<path fill="#1E2538" d="M287.4,410.9h-47.6c-0.3,0-0.5-0.2-0.5-0.5V265c0-0.3,0.2-0.5,0.5-0.5h47.6c0.3,0,0.5,0.2,0.5,0.5v145.4
			C287.9,410.7,287.7,410.9,287.4,410.9z M240.3,409.9h46.6V265.5h-46.6V409.9z"/>
	</g>
	<g>
		<path fill="#D7EEF7" d="M345.2,335c0-41.5,34-75.4,75.4-75.4s75.4,34,75.4,75.4L345.2,335L345.2,335z"/>
		<path fill="#1E2538" d="M496,335.5H345.2c-0.3,0-0.5-0.2-0.5-0.5c0-41.9,34.1-75.9,75.9-75.9c41.9,0,75.9,34.1,75.9,75.9
			C496.5,335.3,496.3,335.5,496,335.5z M345.7,334.5h149.9c-0.3-41.1-33.8-74.4-74.9-74.4C379.5,260.1,345.9,293.4,345.7,334.5z"/>
	</g>
	<g>
		<polygon fill="#FEC3C0" points="413.1,334.3 421.3,301.7 427.4,334.3 		"/>
		<path fill="#1E2538" d="M427.4,334.8C427.4,334.8,427.4,334.8,427.4,334.8h-14.3c-0.2,0-0.3-0.1-0.4-0.2s-0.1-0.3-0.1-0.4
			l8.2-32.6c0.1-0.2,0.3-0.4,0.5-0.4c0.2,0,0.4,0.2,0.5,0.4l6.1,32.5c0,0.1,0.1,0.1,0.1,0.2C427.9,334.6,427.7,334.8,427.4,334.8z
			 M413.8,333.8h13l-5.6-29.8L413.8,333.8z"/>
	</g>
	<g>
		<path fill="#1E2538" d="M421.3,271.6c-0.3,0-0.5-0.2-0.5-0.5v-11.6c0-0.3,0.2-0.5,0.5-0.5s0.5,0.2,0.5,0.5v11.6
			C421.8,271.4,421.6,271.6,421.3,271.6z"/>
	</g>
	<g>
		<path fill="#1E2538" d="M389.3,280.5c-0.2,0-0.4-0.1-0.4-0.3l-5.4-10.2c-0.1-0.2,0-0.5,0.2-0.7c0.2-0.1,0.5,0,0.7,0.2l5.4,10.2
			c0.1,0.2,0,0.5-0.2,0.7C389.5,280.5,389.4,280.5,389.3,280.5z"/>
	</g>
	<g>
		<path fill="#1E2538" d="M366.9,303.6c-0.1,0-0.2,0-0.3-0.1l-10.2-6.1c-0.2-0.1-0.3-0.4-0.2-0.7c0.1-0.2,0.4-0.3,0.7-0.2l10.2,6.1
			c0.2,0.1,0.3,0.4,0.2,0.7C367.3,303.5,367.1,303.6,366.9,303.6z"/>
	</g>
	<g>
		<path fill="#1E2538" d="M452.5,279.8c-0.1,0-0.2,0-0.3-0.1c-0.2-0.1-0.3-0.4-0.2-0.7l6.1-10.2c0.1-0.2,0.5-0.3,0.7-0.2
			c0.2,0.1,0.3,0.4,0.2,0.7l-6.1,10.2C452.9,279.7,452.7,279.8,452.5,279.8z"/>
	</g>
	<g>
		<path fill="#1E2538" d="M475.6,302.9c-0.2,0-0.3-0.1-0.4-0.2c-0.1-0.2-0.1-0.5,0.2-0.7l10.2-6.1c0.2-0.1,0.5-0.1,0.7,0.2
			c0.1,0.2,0.1,0.5-0.2,0.7l-10.2,6.1C475.8,302.9,475.7,302.9,475.6,302.9z"/>
	</g>
	<g opacity="0.5" enable-background="new    ">
		<polygon fill="#FFFFFF" points="542.2,407 366.9,231.7 299.6,231.7 299.6,301.7 436.2,438.3 542.2,438.3 		"/>
	</g>
	<g>
		<path fill="#1E2538" d="M542.2,438.8H299.6c-0.3,0-0.5-0.2-0.5-0.5V231.7c0-0.3,0.2-0.5,0.5-0.5h242.6c0.3,0,0.5,0.2,0.5,0.5
			v206.6C542.7,438.6,542.5,438.8,542.2,438.8z M300.1,437.8h241.6V232.2H300.1V437.8z"/>
	</g>
	<g>
		<rect x="340.4" y="441.7" fill="#C6C6C6" width="58.4" height="14.3"/>
	</g>
	<g>
		<rect x="443.7" y="441.7" fill="#C6C6C6" width="58.4" height="14.3"/>
	</g>
	<g>
		<path fill="#1E2538" d="M401.6,592.4H337c-0.3,0-0.5-0.2-0.5-0.5V438.3c0-0.3,0.2-0.5,0.5-0.5h64.6c0.3,0,0.5,0.2,0.5,0.5v153.6
			C402.1,592.2,401.9,592.4,401.6,592.4z M337.5,591.4h63.6V438.8h-63.6V591.4z"/>
	</g>
	<g>
		<path fill="#1E2538" d="M504.9,592.4h-64.6c-0.3,0-0.5-0.2-0.5-0.5V438.3c0-0.3,0.2-0.5,0.5-0.5h64.6c0.3,0,0.5,0.2,0.5,0.5v153.6
			C505.4,592.2,505.1,592.4,504.9,592.4z M440.8,591.4h63.6V438.8h-63.6V591.4z"/>
	</g>
</g>
</svg>
