<?xml version="1.0" encoding="utf-8"?>
<!-- Generator: Adobe Illustrator 18.1.1, SVG Export Plug-In . SVG Version: 6.00 Build 0)  -->
<svg version="1.1" id="Calque_1" xmlns="http://www.w3.org/2000/svg" xmlns:xlink="http://www.w3.org/1999/xlink" x="0px" y="0px"
	 viewBox="0 0 76.4 83.3" enable-background="new 0 0 76.4 83.3" xml:space="preserve">
<line fill="none" stroke="#1E2538" stroke-linecap="round" stroke-linejoin="round" stroke-miterlimit="10" x1="9" y1="52.2" x2="31" y2="76.6"/>
<rect x="17.3" y="60.6" transform="matrix(0.7071 0.7071 -0.7071 0.7071 52.4931 3.9432)" fill="#FFFFFF" width="8.3" height="9.5"/>
<path fill="#FACDC2" stroke="#1E2538" stroke-linecap="round" stroke-linejoin="round" stroke-miterlimit="10" d="M0.5,21.7
	C0.5,15.2,4.3,9.9,9,9.9s8.5,5.3,8.5,11.7H0.5z"/>
<path opacity="0.5" fill="#FFFFFF" d="M3.1,20.5c0,0-0.1,0-0.1,0c-0.5-0.1-0.9-0.5-0.9-1.1c0.3-3,1.8-5.7,3.9-7
	c0.5-0.3,1.1-0.2,1.4,0.3c0.3,0.5,0.2,1.1-0.3,1.4c-1.6,1-2.7,3.1-3,5.6C4.1,20.1,3.6,20.5,3.1,20.5z"/>
<circle fill="#FDE6E2" stroke="#1E2538" stroke-linecap="round" stroke-linejoin="round" stroke-miterlimit="10" cx="9" cy="6" r="5.5"/>
<path fill="#D1C7FD" stroke="#1E2538" stroke-linecap="round" stroke-linejoin="round" stroke-miterlimit="10" d="M29.7,21.7
	c0-6.5,3.8-11.7,8.5-11.7s8.5,5.3,8.5,11.7H29.7z"/>
<path opacity="0.5" fill="#FFFFFF" d="M32.3,20.5c0,0-0.1,0-0.1,0c-0.5-0.1-0.9-0.5-0.9-1.1c0.3-3,1.8-5.7,3.9-7
	c0.5-0.3,1.1-0.2,1.4,0.3c0.3,0.5,0.2,1.1-0.3,1.4c-1.6,1-2.7,3.1-3,5.6C33.2,20.1,32.8,20.5,32.3,20.5z"/>
<circle fill="#E8E3FE" stroke="#1E2538" stroke-linecap="round" stroke-linejoin="round" stroke-miterlimit="10" cx="38.2" cy="6" r="5.5"/>
<path fill="#FACDC2" stroke="#1E2538" stroke-linecap="round" stroke-linejoin="round" stroke-miterlimit="10" d="M58.8,21.7
	c0-6.5,3.8-11.7,8.5-11.7c4.7,0,8.5,5.3,8.5,11.7H58.8z"/>
<path opacity="0.5" fill="#FFFFFF" d="M61.5,20.5c0,0-0.1,0-0.1,0c-0.5-0.1-0.9-0.5-0.9-1.1c0.3-3,1.8-5.7,3.9-7
	c0.5-0.3,1.1-0.2,1.4,0.3c0.3,0.5,0.2,1.1-0.3,1.4c-1.6,1-2.7,3.1-3,5.6C62.4,20.1,62,20.5,61.5,20.5z"/>
<circle fill="#FDE6E2" stroke="#1E2538" stroke-linecap="round" stroke-linejoin="round" stroke-miterlimit="10" cx="67.4" cy="6" r="5.5"/>
<path fill="#FACDC2" stroke="#1E2538" stroke-linecap="round" stroke-linejoin="round" stroke-miterlimit="10" d="M0.5,52.2
	c0-6.5,3.8-11.7,8.5-11.7s8.5,5.3,8.5,11.7H0.5z"/>
<path opacity="0.5" fill="#FFFFFF" d="M3.1,51c0,0-0.1,0-0.1,0c-0.5-0.1-0.9-0.5-0.9-1.1c0.3-3,1.8-5.7,3.9-7
	c0.5-0.3,1.1-0.2,1.4,0.3c0.3,0.5,0.2,1.1-0.3,1.4c-1.6,1-2.7,3.1-3,5.6C4.1,50.6,3.6,51,3.1,51z"/>
<circle fill="#FDE6E2" stroke="#1E2538" stroke-linecap="round" stroke-linejoin="round" stroke-miterlimit="10" cx="9" cy="36.6" r="5.5"/>
<path fill="#A8E9B8" stroke="#1E2538" stroke-linecap="round" stroke-linejoin="round" stroke-miterlimit="10" d="M29.7,52.2
	c0-6.5,3.8-11.7,8.5-11.7s8.5,5.3,8.5,11.7H29.7z"/>
<path opacity="0.5" fill="#FFFFFF" d="M32.3,51c0,0-0.1,0-0.1,0c-0.5-0.1-0.9-0.5-0.9-1.1c0.3-3,1.8-5.7,3.9-7
	c0.5-0.3,1.1-0.2,1.4,0.3c0.3,0.5,0.2,1.1-0.3,1.4c-1.6,1-2.7,3.1-3,5.6C33.2,50.6,32.8,51,32.3,51z"/>
<path fill="#D1C7FD" stroke="#1E2538" stroke-linecap="round" stroke-linejoin="round" stroke-miterlimit="10" d="M58.8,52.2
	c0-6.5,3.8-11.7,8.5-11.7c4.7,0,8.5,5.3,8.5,11.7H58.8z"/>
<path opacity="0.5" fill="#FFFFFF" d="M61.5,51c0,0-0.1,0-0.1,0c-0.5-0.1-0.9-0.5-0.9-1.1c0.3-3,1.8-5.7,3.9-7
	c0.5-0.3,1.1-0.2,1.4,0.3c0.3,0.5,0.2,1.1-0.3,1.4c-1.6,1-2.7,3.1-3,5.6C62.4,50.6,62,51,61.5,51z"/>
<circle fill="#E8E3FE" stroke="#1E2538" stroke-linecap="round" stroke-linejoin="round" stroke-miterlimit="10" cx="67.4" cy="36.6" r="5.5"/>
<path fill="#FDE9A5" stroke="#1E2538" stroke-linecap="round" stroke-linejoin="round" stroke-miterlimit="10" d="M0.5,82.8
	C0.5,76.3,4.3,71,9,71s8.5,5.3,8.5,11.7H0.5z"/>
<path opacity="0.5" fill="#FFFFFF" d="M3.1,81.6c0,0-0.1,0-0.1,0c-0.5-0.1-0.9-0.5-0.9-1.1c0.3-3,1.8-5.7,3.9-7
	c0.5-0.3,1.1-0.2,1.4,0.3c0.3,0.5,0.2,1.1-0.3,1.4c-1.6,1-2.7,3.1-3,5.6C4.1,81.2,3.6,81.6,3.1,81.6z"/>
<circle fill="#FCF8DE" stroke="#1E2538" stroke-linecap="round" stroke-linejoin="round" stroke-miterlimit="10" cx="9" cy="67.2" r="5.5"/>
<path fill="#A8E9B8" stroke="#1E2538" stroke-linecap="round" stroke-linejoin="round" stroke-miterlimit="10" d="M29.7,82.8
	c0-6.5,3.8-11.7,8.5-11.7s8.5,5.3,8.5,11.7H29.7z"/>
<path opacity="0.5" fill="#FFFFFF" d="M32.3,81.6c0,0-0.1,0-0.1,0c-0.5-0.1-0.9-0.5-0.9-1.1c0.3-3,1.8-5.7,3.9-7
	c0.5-0.3,1.1-0.2,1.4,0.3c0.3,0.5,0.2,1.1-0.3,1.4c-1.6,1-2.7,3.1-3,5.6C33.2,81.2,32.8,81.6,32.3,81.6z"/>
<circle fill="#D2F4DB" stroke="#1E2538" stroke-linecap="round" stroke-linejoin="round" stroke-miterlimit="10" cx="38.2" cy="67.2" r="5.5"/>
<path fill="#FACDC2" stroke="#1E2538" stroke-linecap="round" stroke-linejoin="round" stroke-miterlimit="10" d="M58.8,82.8
	c0-6.5,3.8-11.7,8.5-11.7c4.7,0,8.5,5.3,8.5,11.7H58.8z"/>
<path opacity="0.5" fill="#FFFFFF" d="M61.5,81.6c0,0-0.1,0-0.1,0c-0.5-0.1-0.9-0.5-0.9-1.1c0.3-3,1.8-5.7,3.9-7
	c0.5-0.3,1.1-0.2,1.4,0.3c0.3,0.5,0.2,1.1-0.3,1.4c-1.6,1-2.7,3.1-3,5.6C62.4,81.2,62,81.6,61.5,81.6z"/>
<circle fill="#FDE6E2" stroke="#1E2538" stroke-linecap="round" stroke-linejoin="round" stroke-miterlimit="10" cx="67.4" cy="67.2" r="5.5"/>
<line fill="none" stroke="#1E2538" stroke-linecap="round" stroke-linejoin="round" stroke-miterlimit="10" stroke-dasharray="3" x1="9" y1="21.7" x2="31" y2="46"/>
<text transform="matrix(1 0 0 1 19.6392 68.4242)" fill="#1E2538" font-family="'Montserrat-Bold'" font-size="9.5883">?</text>
<line fill="none" stroke="#1E2538" stroke-linecap="round" stroke-linejoin="round" stroke-miterlimit="10" x1="38.2" y1="21.7" x2="38.2" y2="31.1"/>
<line fill="none" stroke="#1E2538" stroke-linecap="round" stroke-linejoin="round" stroke-miterlimit="10" stroke-dasharray="3" x1="67.4" y1="52.2" x2="67.4" y2="61.6"/>
<line fill="none" stroke="#1E2538" stroke-linecap="round" stroke-linejoin="round" stroke-miterlimit="10" x1="45.8" y1="77.4" x2="59.8" y2="77.4"/>
<line fill="none" stroke="#1E2538" stroke-linecap="round" stroke-linejoin="round" stroke-miterlimit="10" stroke-dasharray="3" x1="45.8" y1="46.9" x2="67.4" y2="21.7"/>
<line fill="none" stroke="#1E2538" stroke-linecap="round" stroke-linejoin="round" stroke-miterlimit="10" x1="59.8" y1="46.3" x2="38.2" y2="21.7"/>
<line fill="none" stroke="#1E2538" stroke-linecap="round" stroke-linejoin="round" stroke-miterlimit="10" x1="45.8" y1="77.4" x2="67.4" y2="52.2"/>
<line fill="none" stroke="#1E2538" stroke-linecap="round" stroke-linejoin="round" stroke-miterlimit="10" stroke-dasharray="3" x1="31" y1="76.6" x2="16.2" y2="76.6"/>
<line fill="none" stroke="#1E2538" stroke-linecap="round" stroke-linejoin="round" stroke-miterlimit="10" stroke-dasharray="3" x1="9" y1="61.6" x2="9" y2="52.2"/>
<line fill="none" stroke="#1E2538" stroke-linecap="round" stroke-linejoin="round" stroke-miterlimit="10" stroke-dasharray="3" x1="59.8" y1="77.4" x2="38.2" y2="52.2"/>
<line fill="none" stroke="#1E2538" stroke-linecap="round" stroke-linejoin="round" stroke-miterlimit="10" stroke-dasharray="3" x1="16.2" y1="46" x2="38.2" y2="21.7"/>
<line fill="none" stroke="#1E2538" stroke-linecap="round" stroke-linejoin="round" stroke-miterlimit="10" x1="16.2" y1="46" x2="31" y2="46"/>
<line fill="none" stroke="#1E2538" stroke-linecap="round" stroke-linejoin="round" stroke-miterlimit="10" x1="45.8" y1="46.9" x2="59.8" y2="46.9"/>
<rect x="44.3" y="28.1" transform="matrix(0.7071 0.7071 -0.7071 0.7071 37.3997 -24.6235)" fill="#FFFFFF" width="8.3" height="9.5"/>
<text transform="matrix(1 0 0 1 46.5754 35.9215)" fill="#1E2538" font-family="'Montserrat-Bold'" font-size="9.5883">?</text>
<circle fill="#D2F4DB" stroke="#1E2538" stroke-linecap="round" stroke-linejoin="round" stroke-miterlimit="10" cx="38.2" cy="36.6" r="5.5"/>
</svg>
