<?xml version="1.0" encoding="utf-8"?>
<!-- Generator: Adobe Illustrator 18.1.1, SVG Export Plug-In . SVG Version: 6.00 Build 0)  -->
<svg version="1.1" id="Calque_1" xmlns="http://www.w3.org/2000/svg" xmlns:xlink="http://www.w3.org/1999/xlink" x="0px" y="0px"
	 viewBox="0 0 841.9 595.3" enable-background="new 0 0 841.9 595.3" xml:space="preserve">
<g>
	<path fill="#1E2538" d="M369.5,547.9c-0.1,0-0.3-0.1-0.4-0.2L211.9,373.4c-0.2-0.2-0.2-0.5,0-0.7c0.2-0.2,0.5-0.2,0.7,0
		l157.2,174.4c0.2,0.2,0.2,0.5,0,0.7C369.7,547.9,369.6,547.9,369.5,547.9z"/>
</g>
<g>
	
		<rect x="271.6" y="432.8" transform="matrix(-0.7071 -0.7071 0.7071 -0.7071 184.2076 1009.8757)" fill="#FFFFFF" width="59.3" height="67.9"/>
</g>
<g>
	<path fill="#FACDC2" d="M151.5,155.1c0-46.5,27.2-84.3,60.7-84.3s60.7,37.9,60.7,83.6H151.5V155.1z"/>
	<path fill="#1E2538" d="M151.5,155.6c-0.3,0-0.5-0.2-0.5-0.5v-0.7c0,0,0,0,0,0c0.3-46.4,27.8-84.1,61.2-84.1
		c33.8,0,61.2,37.7,61.2,84.1c0,0.3-0.2,0.5-0.5,0.5H152v0.2C152,155.3,151.8,155.6,151.5,155.6z M152,153.9h120.5
		c-0.2-45.6-27.1-82.6-60.2-82.6C179.5,71.2,152.5,108.3,152,153.9z"/>
</g>
<g opacity="0.5" enable-background="new    ">
	<path fill="#FFFFFF" d="M170.1,146.5h-0.7c-3.6-0.7-6.4-3.6-6.4-7.9c2.1-21.4,12.9-40.7,27.9-50c3.6-2.1,7.9-1.4,10,2.1
		c2.1,3.6,1.4,7.9-2.1,10c-11.4,7.1-19.3,22.2-21.4,40C177.3,143.6,173.7,146.5,170.1,146.5z"/>
</g>
<g>
	<circle fill="#FDE6E2" cx="212.3" cy="42.9" r="39.3"/>
	<path fill="#1E2538" d="M212.3,82.7c-21.9,0-39.8-17.9-39.8-39.8s17.9-39.8,39.8-39.8s39.8,17.9,39.8,39.8S234.2,82.7,212.3,82.7z
		 M212.3,4.1c-21.4,0-38.8,17.4-38.8,38.8s17.4,38.8,38.8,38.8s38.8-17.4,38.8-38.8S233.7,4.1,212.3,4.1z"/>
</g>
<g>
	<path fill="#D1C7FD" d="M360.2,155.1c0-46.5,27.2-83.6,60.7-83.6s60.7,37.9,60.7,83.6H360.2z"/>
	<path fill="#1E2538" d="M481.7,155.6C481.7,155.6,481.7,155.6,481.7,155.6H360.2c-0.3,0-0.5-0.2-0.5-0.5c0-22.5,6.3-43.7,17.9-59.5
		C389.1,79.7,404.5,71,420.9,71c33.7,0,61.2,37.7,61.2,84c0,0,0,0.1,0,0.1C482.2,155.3,482,155.6,481.7,155.6z M360.7,154.6h120.5
		C481,109,454,72,420.9,72S360.9,109,360.7,154.6z"/>
</g>
<g opacity="0.5" enable-background="new    ">
	<path fill="#FFFFFF" d="M378.8,146.5h-0.7c-3.6-0.7-6.4-3.6-6.4-7.9c2.1-21.4,12.9-40.7,27.9-50c3.6-2.1,7.9-1.4,10,2.1
		c2.1,3.6,1.4,7.9-2.1,10c-11.4,7.1-19.3,22.2-21.4,40C385.2,143.6,382.4,146.5,378.8,146.5z"/>
</g>
<g>
	<circle fill="#E8E3FE" cx="420.9" cy="42.9" r="39.3"/>
	<path fill="#1E2538" d="M420.9,82.7c-21.9,0-39.8-17.9-39.8-39.8S399,3.1,420.9,3.1c21.9,0,39.8,17.9,39.8,39.8
		S442.9,82.7,420.9,82.7z M420.9,4.1c-21.4,0-38.8,17.4-38.8,38.8s17.4,38.8,38.8,38.8c21.4,0,38.8-17.4,38.8-38.8
		S442.3,4.1,420.9,4.1z"/>
</g>
<g>
	<path fill="#FACDC2" d="M568.2,155.1c0-46.5,27.2-83.6,60.7-83.6s60.7,37.9,60.7,83.6H568.2z"/>
	<path fill="#1E2538" d="M689.7,155.6C689.7,155.6,689.6,155.6,689.7,155.6H568.2c-0.3,0-0.5-0.2-0.5-0.5c0-22.5,6.3-43.7,17.9-59.5
		C597.1,79.7,612.5,71,628.9,71c33.7,0,61.2,37.7,61.2,84c0,0,0,0.1,0,0.1C690.2,155.3,689.9,155.6,689.7,155.6z M568.7,154.6h120.5
		C688.9,109,662,72,628.9,72C595.8,72,568.9,109,568.7,154.6z"/>
</g>
<g opacity="0.5" enable-background="new    ">
	<path fill="#FFFFFF" d="M587.5,146.5h-0.7c-3.6-0.7-6.4-3.6-6.4-7.9c2.1-21.4,12.9-40.7,27.9-50c3.6-2.1,7.9-1.4,10,2.1
		c2.1,3.6,1.4,7.9-2.1,10c-11.4,7.1-19.3,22.2-21.4,40C593.9,143.6,591,146.5,587.5,146.5z"/>
</g>
<g>
	<circle fill="#FDE6E2" cx="629.6" cy="42.9" r="39.3"/>
	<path fill="#1E2538" d="M629.6,82.7c-21.9,0-39.8-17.9-39.8-39.8s17.9-39.8,39.8-39.8s39.8,17.9,39.8,39.8S651.6,82.7,629.6,82.7z
		 M629.6,4.1c-21.4,0-38.8,17.4-38.8,38.8s17.4,38.8,38.8,38.8c21.4,0,38.8-17.4,38.8-38.8S651,4.1,629.6,4.1z"/>
</g>
<g>
	<path fill="#FACDC2" d="M151.5,373c0-46.5,27.2-83.6,60.7-83.6S273,327.3,273,373H151.5z"/>
	<path fill="#1E2538" d="M273,373.5C273,373.5,273,373.5,273,373.5H151.5c-0.3,0-0.5-0.2-0.5-0.5c0-22.5,6.3-43.7,17.9-59.5
		c11.5-15.9,26.9-24.6,43.4-24.6c33.7,0,61.2,37.7,61.2,84c0,0,0,0.1,0,0.1C273.5,373.3,273.3,373.5,273,373.5z M152,372.5h120.5
		c-0.2-45.6-27.1-82.6-60.2-82.6S152.2,326.9,152,372.5z"/>
</g>
<g opacity="0.5" enable-background="new    ">
	<path fill="#FFFFFF" d="M170.1,364.5h-0.7c-3.6-0.7-6.4-3.6-6.4-7.9c2.1-21.4,12.9-40.7,27.9-50c3.6-2.1,7.9-1.4,10,2.1
		c2.1,3.6,1.4,7.9-2.1,10c-11.4,7.1-19.3,22.2-21.4,40C177.3,361.6,173.7,364.5,170.1,364.5z"/>
</g>
<g>
	<circle fill="#FDE6E2" cx="212.3" cy="261.6" r="39.3"/>
	<path fill="#1E2538" d="M212.3,301.4c-21.9,0-39.8-17.9-39.8-39.8s17.9-39.8,39.8-39.8s39.8,17.9,39.8,39.8
		S234.2,301.4,212.3,301.4z M212.3,222.7c-21.4,0-38.8,17.4-38.8,38.8c0,21.4,17.4,38.8,38.8,38.8s38.8-17.4,38.8-38.8
		C251.1,240.2,233.7,222.7,212.3,222.7z"/>
</g>
<g>
	<path fill="#A8E9B8" d="M360.2,373c0-46.5,27.2-83.6,60.7-83.6s60.7,37.9,60.7,83.6H360.2z"/>
	<path fill="#1E2538" d="M481.7,373.5C481.7,373.5,481.7,373.5,481.7,373.5H360.2c-0.3,0-0.5-0.2-0.5-0.5c0-22.5,6.3-43.7,17.9-59.5
		c11.5-15.9,26.9-24.6,43.4-24.6c33.7,0,61.2,37.7,61.2,84c0,0,0,0.1,0,0.1C482.2,373.3,482,373.5,481.7,373.5z M360.7,372.5h120.5
		c-0.2-45.6-27.1-82.6-60.2-82.6S360.9,326.9,360.7,372.5z"/>
</g>
<g opacity="0.5" enable-background="new    ">
	<path fill="#FFFFFF" d="M378.8,364.5h-0.7c-3.6-0.7-6.4-3.6-6.4-7.9c2.1-21.4,12.9-40.7,27.9-50c3.6-2.1,7.9-1.4,10,2.1
		c2.1,3.6,1.4,7.9-2.1,10c-11.4,7.1-19.3,22.2-21.4,40C385.2,361.6,382.4,364.5,378.8,364.5z"/>
</g>
<g>
	<path fill="#D1C7FD" d="M568.2,373c0-46.5,27.2-83.6,60.7-83.6s60.7,37.9,60.7,83.6H568.2z"/>
	<path fill="#1E2538" d="M689.7,373.5C689.7,373.5,689.6,373.5,689.7,373.5H568.2c-0.3,0-0.5-0.2-0.5-0.5c0-22.5,6.3-43.7,17.9-59.5
		c11.5-15.9,26.9-24.6,43.4-24.6c33.7,0,61.2,37.7,61.2,84c0,0,0,0.1,0,0.1C690.2,373.3,689.9,373.5,689.7,373.5z M568.7,372.5
		h120.5c-0.2-45.6-27.1-82.6-60.2-82.6C595.8,289.9,568.9,326.9,568.7,372.5z"/>
</g>
<g opacity="0.5" enable-background="new    ">
	<path fill="#FFFFFF" d="M587.5,364.5h-0.7c-3.6-0.7-6.4-3.6-6.4-7.9c2.1-21.4,12.9-40.7,27.9-50c3.6-2.1,7.9-1.4,10,2.1
		c2.1,3.6,1.4,7.9-2.1,10c-11.4,7.1-19.3,22.2-21.4,40C593.9,361.6,591,364.5,587.5,364.5z"/>
</g>
<g>
	<circle fill="#E8E3FE" cx="629.6" cy="261.6" r="39.3"/>
	<path fill="#1E2538" d="M629.6,301.4c-21.9,0-39.8-17.9-39.8-39.8s17.9-39.8,39.8-39.8s39.8,17.9,39.8,39.8
		S651.6,301.4,629.6,301.4z M629.6,222.7c-21.4,0-38.8,17.4-38.8,38.8c0,21.4,17.4,38.8,38.8,38.8c21.4,0,38.8-17.4,38.8-38.8
		C668.4,240.2,651,222.7,629.6,222.7z"/>
</g>
<g>
	<path fill="#FDE9A5" d="M151.5,591.7c0-46.5,27.2-84.3,60.7-84.3S273,545.3,273,591H151.5V591.7z"/>
	<path fill="#1E2538" d="M151.5,592.2c-0.3,0-0.5-0.2-0.5-0.5V591c0,0,0,0,0,0c0.3-46.4,27.8-84.1,61.2-84.1
		c33.8,0,61.2,37.7,61.2,84.1c0,0.3-0.2,0.5-0.5,0.5H152v0.2C152,592,151.8,592.2,151.5,592.2z M152,590.5h120.5
		c-0.2-45.6-27.1-82.6-60.2-82.6C179.5,507.9,152.5,544.9,152,590.5z"/>
</g>
<g opacity="0.5" enable-background="new    ">
	<path fill="#FFFFFF" d="M170.1,583.1h-0.7c-3.6-0.7-6.4-3.6-6.4-7.9c2.1-21.4,12.9-40.7,27.9-50c3.6-2.1,7.9-1.4,10,2.1
		c2.1,3.6,1.4,7.9-2.1,10c-11.4,7.1-19.3,22.2-21.4,40C177.3,580.3,173.7,583.1,170.1,583.1z"/>
</g>
<g>
	<circle fill="#FCF8DE" cx="212.3" cy="480.2" r="39.3"/>
	<path fill="#1E2538" d="M212.3,520c-21.9,0-39.8-17.9-39.8-39.8s17.9-39.8,39.8-39.8s39.8,17.9,39.8,39.8S234.2,520,212.3,520z
		 M212.3,441.4c-21.4,0-38.8,17.4-38.8,38.8c0,21.4,17.4,38.8,38.8,38.8s38.8-17.4,38.8-38.8C251.1,458.8,233.7,441.4,212.3,441.4z"
		/>
</g>
<g>
	<path fill="#A8E9B8" d="M360.2,591.7c0-46.5,27.2-83.6,60.7-83.6s60.7,37.9,60.7,83.6H360.2z"/>
	<path fill="#1E2538" d="M481.7,592.2C481.7,592.2,481.7,592.2,481.7,592.2H360.2c-0.3,0-0.5-0.2-0.5-0.5c0-22.5,6.3-43.7,17.9-59.5
		c11.5-15.9,26.9-24.6,43.4-24.6c33.7,0,61.2,37.7,61.2,84c0,0,0,0.1,0,0.1C482.2,592,482,592.2,481.7,592.2z M360.7,591.2h120.5
		c-0.2-45.6-27.1-82.6-60.2-82.6S360.9,545.6,360.7,591.2z"/>
</g>
<g opacity="0.5" enable-background="new    ">
	<path fill="#FFFFFF" d="M378.8,583.1h-0.7c-3.6-0.7-6.4-3.6-6.4-7.9c2.1-21.4,12.9-40.7,27.9-50c3.6-2.1,7.9-1.4,10,2.1
		c2.1,3.6,1.4,7.9-2.1,10c-11.4,7.1-19.3,22.2-21.4,40C385.2,580.3,382.4,583.1,378.8,583.1z"/>
</g>
<g>
	<circle fill="#D2F4DB" cx="420.9" cy="480.2" r="39.3"/>
	<path fill="#1E2538" d="M420.9,520c-21.9,0-39.8-17.9-39.8-39.8s17.9-39.8,39.8-39.8c21.9,0,39.8,17.9,39.8,39.8
		S442.9,520,420.9,520z M420.9,441.4c-21.4,0-38.8,17.4-38.8,38.8c0,21.4,17.4,38.8,38.8,38.8c21.4,0,38.8-17.4,38.8-38.8
		C459.7,458.8,442.3,441.4,420.9,441.4z"/>
</g>
<g>
	<path fill="#FACDC2" d="M568.2,591.7c0-46.5,27.2-83.6,60.7-83.6s60.7,37.9,60.7,83.6H568.2z"/>
	<path fill="#1E2538" d="M689.7,592.2C689.7,592.2,689.6,592.2,689.7,592.2H568.2c-0.3,0-0.5-0.2-0.5-0.5c0-22.5,6.3-43.7,17.9-59.5
		c11.5-15.9,26.9-24.6,43.4-24.6c33.7,0,61.2,37.7,61.2,84c0,0,0,0.1,0,0.1C690.2,592,689.9,592.2,689.7,592.2z M568.7,591.2h120.5
		c-0.2-45.6-27.1-82.6-60.2-82.6C595.8,508.6,568.9,545.6,568.7,591.2z"/>
</g>
<g opacity="0.5" enable-background="new    ">
	<path fill="#FFFFFF" d="M587.5,583.1h-0.7c-3.6-0.7-6.4-3.6-6.4-7.9c2.1-21.4,12.9-40.7,27.9-50c3.6-2.1,7.9-1.4,10,2.1
		c2.1,3.6,1.4,7.9-2.1,10c-11.4,7.1-19.3,22.2-21.4,40C593.9,580.3,591,583.1,587.5,583.1z"/>
</g>
<g>
	<circle fill="#FDE6E2" cx="629.6" cy="480.2" r="39.3"/>
	<path fill="#1E2538" d="M629.6,520c-21.9,0-39.8-17.9-39.8-39.8s17.9-39.8,39.8-39.8s39.8,17.9,39.8,39.8S651.6,520,629.6,520z
		 M629.6,441.4c-21.4,0-38.8,17.4-38.8,38.8c0,21.4,17.4,38.8,38.8,38.8c21.4,0,38.8-17.4,38.8-38.8
		C668.4,458.8,651,441.4,629.6,441.4z"/>
</g>
<g>
	<path fill="#1E2538" d="M369.5,329.2c-0.1,0-0.3-0.1-0.4-0.2l-0.2-0.2c-0.2-0.2-0.2-0.5,0-0.7c0.2-0.2,0.5-0.2,0.7,0l0.2,0.2
		c0.2,0.2,0.2,0.5,0,0.7C369.7,329.2,369.6,329.2,369.5,329.2z M367.3,326.8c-0.1,0-0.3-0.1-0.4-0.2l-2-2.2c-0.2-0.2-0.2-0.5,0-0.7
		c0.2-0.2,0.5-0.2,0.7,0l2,2.2c0.2,0.2,0.2,0.5,0,0.7C367.6,326.8,367.4,326.8,367.3,326.8z M363.3,322.4c-0.1,0-0.3-0.1-0.4-0.2
		l-2-2.2c-0.2-0.2-0.2-0.5,0-0.7c0.2-0.2,0.5-0.2,0.7,0l2,2.2c0.2,0.2,0.2,0.5,0,0.7C363.5,322.3,363.4,322.4,363.3,322.4z
		 M359.3,317.9c-0.1,0-0.3-0.1-0.4-0.2l-2-2.2c-0.2-0.2-0.2-0.5,0-0.7c0.2-0.2,0.5-0.2,0.7,0l2,2.2c0.2,0.2,0.2,0.5,0,0.7
		C359.5,317.9,359.4,317.9,359.3,317.9z M355.2,313.5c-0.1,0-0.3-0.1-0.4-0.2l-2-2.2c-0.2-0.2-0.2-0.5,0-0.7c0.2-0.2,0.5-0.2,0.7,0
		l2,2.2c0.2,0.2,0.2,0.5,0,0.7C355.5,313.4,355.4,313.5,355.2,313.5z M351.2,309c-0.1,0-0.3-0.1-0.4-0.2l-2-2.2
		c-0.2-0.2-0.2-0.5,0-0.7c0.2-0.2,0.5-0.2,0.7,0l2,2.2c0.2,0.2,0.2,0.5,0,0.7C351.4,309,351.3,309,351.2,309z M347.2,304.6
		c-0.1,0-0.3-0.1-0.4-0.2l-2-2.2c-0.2-0.2-0.2-0.5,0-0.7c0.2-0.2,0.5-0.2,0.7,0l2,2.2c0.2,0.2,0.2,0.5,0,0.7
		C347.4,304.5,347.3,304.6,347.2,304.6z M343.2,300.1c-0.1,0-0.3-0.1-0.4-0.2l-2-2.2c-0.2-0.2-0.2-0.5,0-0.7c0.2-0.2,0.5-0.2,0.7,0
		l2,2.2c0.2,0.2,0.2,0.5,0,0.7C343.4,300.1,343.3,300.1,343.2,300.1z M339.1,295.7c-0.1,0-0.3-0.1-0.4-0.2l-2-2.2
		c-0.2-0.2-0.2-0.5,0-0.7c0.2-0.2,0.5-0.2,0.7,0l2,2.2c0.2,0.2,0.2,0.5,0,0.7C339.4,295.6,339.2,295.7,339.1,295.7z M335.1,291.2
		c-0.1,0-0.3-0.1-0.4-0.2l-2-2.2c-0.2-0.2-0.2-0.5,0-0.7c0.2-0.2,0.5-0.2,0.7,0l2,2.2c0.2,0.2,0.2,0.5,0,0.7
		C335.3,291.2,335.2,291.2,335.1,291.2z M331.1,286.8c-0.1,0-0.3-0.1-0.4-0.2l-2-2.2c-0.2-0.2-0.2-0.5,0-0.7c0.2-0.2,0.5-0.2,0.7,0
		l2,2.2c0.2,0.2,0.2,0.5,0,0.7C331.3,286.7,331.2,286.8,331.1,286.8z M327,282.3c-0.1,0-0.3-0.1-0.4-0.2l-2-2.2
		c-0.2-0.2-0.2-0.5,0-0.7c0.2-0.2,0.5-0.2,0.7,0l2,2.2c0.2,0.2,0.2,0.5,0,0.7C327.3,282.3,327.2,282.3,327,282.3z M323,277.9
		c-0.1,0-0.3-0.1-0.4-0.2l-2-2.2c-0.2-0.2-0.2-0.5,0-0.7c0.2-0.2,0.5-0.2,0.7,0l2,2.2c0.2,0.2,0.2,0.5,0,0.7
		C323.3,277.8,323.1,277.9,323,277.9z M319,273.4c-0.1,0-0.3-0.1-0.4-0.2l-2-2.2c-0.2-0.2-0.2-0.5,0-0.7c0.2-0.2,0.5-0.2,0.7,0
		l2,2.2c0.2,0.2,0.2,0.5,0,0.7C319.2,273.4,319.1,273.4,319,273.4z M315,269c-0.1,0-0.3-0.1-0.4-0.2l-2-2.2c-0.2-0.2-0.2-0.5,0-0.7
		c0.2-0.2,0.5-0.2,0.7,0l2,2.2c0.2,0.2,0.2,0.5,0,0.7C315.2,269,315.1,269,315,269z M310.9,264.5c-0.1,0-0.3-0.1-0.4-0.2l-2-2.2
		c-0.2-0.2-0.2-0.5,0-0.7c0.2-0.2,0.5-0.2,0.7,0l2,2.2c0.2,0.2,0.2,0.5,0,0.7C311.2,264.5,311.1,264.5,310.9,264.5z M306.9,260.1
		c-0.1,0-0.3-0.1-0.4-0.2l-2-2.2c-0.2-0.2-0.2-0.5,0-0.7c0.2-0.2,0.5-0.2,0.7,0l2,2.2c0.2,0.2,0.2,0.5,0,0.7
		C307.1,260.1,307,260.1,306.9,260.1z M302.9,255.7c-0.1,0-0.3-0.1-0.4-0.2l-2-2.2c-0.2-0.2-0.2-0.5,0-0.7c0.2-0.2,0.5-0.2,0.7,0
		l2,2.2c0.2,0.2,0.2,0.5,0,0.7C303.1,255.6,303,255.7,302.9,255.7z M298.9,251.2c-0.1,0-0.3-0.1-0.4-0.2l-2-2.2
		c-0.2-0.2-0.2-0.5,0-0.7c0.2-0.2,0.5-0.2,0.7,0l2,2.2c0.2,0.2,0.2,0.5,0,0.7C299.1,251.2,299,251.2,298.9,251.2z M294.8,246.8
		c-0.1,0-0.3-0.1-0.4-0.2l-2-2.2c-0.2-0.2-0.2-0.5,0-0.7c0.2-0.2,0.5-0.2,0.7,0l2,2.2c0.2,0.2,0.2,0.5,0,0.7
		C295.1,246.7,294.9,246.8,294.8,246.8z M290.8,242.3c-0.1,0-0.3-0.1-0.4-0.2l-2-2.2c-0.2-0.2-0.2-0.5,0-0.7c0.2-0.2,0.5-0.2,0.7,0
		l2,2.2c0.2,0.2,0.2,0.5,0,0.7C291,242.3,290.9,242.3,290.8,242.3z M286.8,237.9c-0.1,0-0.3-0.1-0.4-0.2l-2-2.2
		c-0.2-0.2-0.2-0.5,0-0.7c0.2-0.2,0.5-0.2,0.7,0l2,2.2c0.2,0.2,0.2,0.5,0,0.7C287,237.8,286.9,237.9,286.8,237.9z M282.7,233.4
		c-0.1,0-0.3-0.1-0.4-0.2l-2-2.2c-0.2-0.2-0.2-0.5,0-0.7c0.2-0.2,0.5-0.2,0.7,0l2,2.2c0.2,0.2,0.2,0.5,0,0.7
		C283,233.4,282.9,233.4,282.7,233.4z M278.7,229c-0.1,0-0.3-0.1-0.4-0.2l-2-2.2c-0.2-0.2-0.2-0.5,0-0.7c0.2-0.2,0.5-0.2,0.7,0
		l2,2.2c0.2,0.2,0.2,0.5,0,0.7C279,228.9,278.8,229,278.7,229z M274.7,224.5c-0.1,0-0.3-0.1-0.4-0.2l-2-2.2c-0.2-0.2-0.2-0.5,0-0.7
		c0.2-0.2,0.5-0.2,0.7,0l2,2.2c0.2,0.2,0.2,0.5,0,0.7C274.9,224.5,274.8,224.5,274.7,224.5z M270.7,220.1c-0.1,0-0.3-0.1-0.4-0.2
		l-2-2.2c-0.2-0.2-0.2-0.5,0-0.7c0.2-0.2,0.5-0.2,0.7,0l2,2.2c0.2,0.2,0.2,0.5,0,0.7C270.9,220,270.8,220.1,270.7,220.1z
		 M266.6,215.6c-0.1,0-0.3-0.1-0.4-0.2l-2-2.2c-0.2-0.2-0.2-0.5,0-0.7c0.2-0.2,0.5-0.2,0.7,0l2,2.2c0.2,0.2,0.2,0.5,0,0.7
		C266.9,215.6,266.8,215.6,266.6,215.6z M262.6,211.2c-0.1,0-0.3-0.1-0.4-0.2l-2-2.2c-0.2-0.2-0.2-0.5,0-0.7c0.2-0.2,0.5-0.2,0.7,0
		l2,2.2c0.2,0.2,0.2,0.5,0,0.7C262.9,211.1,262.7,211.2,262.6,211.2z M258.6,206.7c-0.1,0-0.3-0.1-0.4-0.2l-2-2.2
		c-0.2-0.2-0.2-0.5,0-0.7c0.2-0.2,0.5-0.2,0.7,0l2,2.2c0.2,0.2,0.2,0.5,0,0.7C258.8,206.7,258.7,206.7,258.6,206.7z M254.6,202.3
		c-0.1,0-0.3-0.1-0.4-0.2l-2-2.2c-0.2-0.2-0.2-0.5,0-0.7c0.2-0.2,0.5-0.2,0.7,0l2,2.2c0.2,0.2,0.2,0.5,0,0.7
		C254.8,202.2,254.7,202.3,254.6,202.3z M250.5,197.8c-0.1,0-0.3-0.1-0.4-0.2l-2-2.2c-0.2-0.2-0.2-0.5,0-0.7c0.2-0.2,0.5-0.2,0.7,0
		l2,2.2c0.2,0.2,0.2,0.5,0,0.7C250.8,197.8,250.7,197.8,250.5,197.8z M246.5,193.4c-0.1,0-0.3-0.1-0.4-0.2l-2-2.2
		c-0.2-0.2-0.2-0.5,0-0.7c0.2-0.2,0.5-0.2,0.7,0l2,2.2c0.2,0.2,0.2,0.5,0,0.7C246.7,193.3,246.6,193.4,246.5,193.4z M242.5,188.9
		c-0.1,0-0.3-0.1-0.4-0.2l-2-2.2c-0.2-0.2-0.2-0.5,0-0.7c0.2-0.2,0.5-0.2,0.7,0l2,2.2c0.2,0.2,0.2,0.5,0,0.7
		C242.7,188.9,242.6,188.9,242.5,188.9z M238.5,184.5c-0.1,0-0.3-0.1-0.4-0.2l-2-2.2c-0.2-0.2-0.2-0.5,0-0.7c0.2-0.2,0.5-0.2,0.7,0
		l2,2.2c0.2,0.2,0.2,0.5,0,0.7C238.7,184.4,238.6,184.5,238.5,184.5z M234.4,180c-0.1,0-0.3-0.1-0.4-0.2l-2-2.2
		c-0.2-0.2-0.2-0.5,0-0.7c0.2-0.2,0.5-0.2,0.7,0l2,2.2c0.2,0.2,0.2,0.5,0,0.7C234.7,180,234.5,180,234.4,180z M230.4,175.6
		c-0.1,0-0.3-0.1-0.4-0.2l-2-2.2c-0.2-0.2-0.2-0.5,0-0.7c0.2-0.2,0.5-0.2,0.7,0l2,2.2c0.2,0.2,0.2,0.5,0,0.7
		C230.6,175.5,230.5,175.6,230.4,175.6z M226.4,171.1c-0.1,0-0.3-0.1-0.4-0.2l-2-2.2c-0.2-0.2-0.2-0.5,0-0.7c0.2-0.2,0.5-0.2,0.7,0
		l2,2.2c0.2,0.2,0.2,0.5,0,0.7C226.6,171.1,226.5,171.1,226.4,171.1z M222.3,166.7c-0.1,0-0.3-0.1-0.4-0.2l-2-2.2
		c-0.2-0.2-0.2-0.5,0-0.7c0.2-0.2,0.5-0.2,0.7,0l2,2.2c0.2,0.2,0.2,0.5,0,0.7C222.6,166.7,222.5,166.7,222.3,166.7z M218.3,162.2
		c-0.1,0-0.3-0.1-0.4-0.2l-2-2.2c-0.2-0.2-0.2-0.5,0-0.7c0.2-0.2,0.5-0.2,0.7,0l2,2.2c0.2,0.2,0.2,0.5,0,0.7
		C218.6,162.2,218.4,162.2,218.3,162.2z M214.3,157.8c-0.1,0-0.3-0.1-0.4-0.2l-2-2.2c-0.2-0.2-0.2-0.5,0-0.7c0.2-0.2,0.5-0.2,0.7,0
		l2,2.2c0.2,0.2,0.2,0.5,0,0.7C214.5,157.8,214.4,157.8,214.3,157.8z"/>
</g>
<g enable-background="new    ">
	<path fill="#1E2538" d="M288.5,456.4c0.1-9.8,6-15.6,15.6-15.6c9.1,0,14.7,4.2,14.7,11.9c0,10.4-10.5,11.6-10.5,19.9h-8.8
		c0-10.6,8.4-11.2,8.4-18c0-3.1-1.9-4.5-4.9-4.5c-3.4,0-5.3,2-5.4,6.2L288.5,456.4z M309.5,483.8c0,3.4-2.4,5.8-5.8,5.8
		s-5.7-2.3-5.7-5.8c0-3.4,2.3-5.7,5.7-5.7S309.5,480.4,309.5,483.8z"/>
</g>
<g>
	<path fill="#1E2538" d="M420.9,222.7c-0.3,0-0.5-0.2-0.5-0.5v-67.2c0-0.3,0.2-0.5,0.5-0.5c0.3,0,0.5,0.2,0.5,0.5v67.2
		C421.4,222.5,421.2,222.7,420.9,222.7z"/>
</g>
<g>
	<path fill="#1E2538" d="M629.6,440.7c-0.3,0-0.5-0.2-0.5-0.5V439c0-0.3,0.2-0.5,0.5-0.5s0.5,0.2,0.5,0.5v1.2
		C630.1,440.5,629.9,440.7,629.6,440.7z M629.6,436.5c-0.3,0-0.5-0.2-0.5-0.5v-3c0-0.3,0.2-0.5,0.5-0.5s0.5,0.2,0.5,0.5v3
		C630.1,436.3,629.9,436.5,629.6,436.5z M629.6,430.5c-0.3,0-0.5-0.2-0.5-0.5v-3c0-0.3,0.2-0.5,0.5-0.5s0.5,0.2,0.5,0.5v3
		C630.1,430.3,629.9,430.5,629.6,430.5z M629.6,424.5c-0.3,0-0.5-0.2-0.5-0.5v-3c0-0.3,0.2-0.5,0.5-0.5s0.5,0.2,0.5,0.5v3
		C630.1,424.3,629.9,424.5,629.6,424.5z M629.6,418.5c-0.3,0-0.5-0.2-0.5-0.5v-3c0-0.3,0.2-0.5,0.5-0.5s0.5,0.2,0.5,0.5v3
		C630.1,418.3,629.9,418.5,629.6,418.5z M629.6,412.5c-0.3,0-0.5-0.2-0.5-0.5v-3c0-0.3,0.2-0.5,0.5-0.5s0.5,0.2,0.5,0.5v3
		C630.1,412.3,629.9,412.5,629.6,412.5z M629.6,406.5c-0.3,0-0.5-0.2-0.5-0.5v-3c0-0.3,0.2-0.5,0.5-0.5s0.5,0.2,0.5,0.5v3
		C630.1,406.3,629.9,406.5,629.6,406.5z M629.6,400.5c-0.3,0-0.5-0.2-0.5-0.5v-3c0-0.3,0.2-0.5,0.5-0.5s0.5,0.2,0.5,0.5v3
		C630.1,400.3,629.9,400.5,629.6,400.5z M629.6,394.5c-0.3,0-0.5-0.2-0.5-0.5v-3c0-0.3,0.2-0.5,0.5-0.5s0.5,0.2,0.5,0.5v3
		C630.1,394.3,629.9,394.5,629.6,394.5z M629.6,388.5c-0.3,0-0.5-0.2-0.5-0.5v-3c0-0.3,0.2-0.5,0.5-0.5s0.5,0.2,0.5,0.5v3
		C630.1,388.3,629.9,388.5,629.6,388.5z M629.6,382.5c-0.3,0-0.5-0.2-0.5-0.5v-3c0-0.3,0.2-0.5,0.5-0.5s0.5,0.2,0.5,0.5v3
		C630.1,382.3,629.9,382.5,629.6,382.5z M629.6,376.5c-0.3,0-0.5-0.2-0.5-0.5v-3c0-0.3,0.2-0.5,0.5-0.5s0.5,0.2,0.5,0.5v3
		C630.1,376.3,629.9,376.5,629.6,376.5z"/>
</g>
<g>
	<path fill="#1E2538" d="M575.3,553.6h-100c-0.3,0-0.5-0.2-0.5-0.5s0.2-0.5,0.5-0.5h100c0.3,0,0.5,0.2,0.5,0.5
		S575.6,553.6,575.3,553.6z"/>
</g>
<g>
	<path fill="#1E2538" d="M475.3,335.7c-0.1,0-0.2,0-0.3-0.1c-0.2-0.2-0.2-0.5-0.1-0.7l2-2.3c0.2-0.2,0.5-0.2,0.7-0.1
		c0.2,0.2,0.2,0.5,0.1,0.7l-2,2.3C475.5,335.6,475.4,335.7,475.3,335.7z M479.2,331.1c-0.1,0-0.2,0-0.3-0.1
		c-0.2-0.2-0.2-0.5-0.1-0.7l2-2.3c0.2-0.2,0.5-0.2,0.7-0.1c0.2,0.2,0.2,0.5,0.1,0.7l-2,2.3C479.4,331,479.3,331.1,479.2,331.1z
		 M483.1,326.5c-0.1,0-0.2,0-0.3-0.1c-0.2-0.2-0.2-0.5-0.1-0.7l2-2.3c0.2-0.2,0.5-0.2,0.7-0.1c0.2,0.2,0.2,0.5,0.1,0.7l-2,2.3
		C483.3,326.5,483.2,326.5,483.1,326.5z M487,322c-0.1,0-0.2,0-0.3-0.1c-0.2-0.2-0.2-0.5-0.1-0.7l2-2.3c0.2-0.2,0.5-0.2,0.7-0.1
		c0.2,0.2,0.2,0.5,0.1,0.7l-2,2.3C487.2,321.9,487.1,322,487,322z M490.9,317.4c-0.1,0-0.2,0-0.3-0.1c-0.2-0.2-0.2-0.5-0.1-0.7
		l2-2.3c0.2-0.2,0.5-0.2,0.7-0.1c0.2,0.2,0.2,0.5,0.1,0.7l-2,2.3C491.2,317.4,491,317.4,490.9,317.4z M494.8,312.9
		c-0.1,0-0.2,0-0.3-0.1c-0.2-0.2-0.2-0.5-0.1-0.7l2-2.3c0.2-0.2,0.5-0.2,0.7-0.1c0.2,0.2,0.2,0.5,0.1,0.7l-2,2.3
		C495.1,312.8,494.9,312.9,494.8,312.9z M498.7,308.3c-0.1,0-0.2,0-0.3-0.1c-0.2-0.2-0.2-0.5-0.1-0.7l2-2.3c0.2-0.2,0.5-0.2,0.7-0.1
		c0.2,0.2,0.2,0.5,0.1,0.7l-2,2.3C499,308.3,498.8,308.3,498.7,308.3z M502.6,303.8c-0.1,0-0.2,0-0.3-0.1c-0.2-0.2-0.2-0.5-0.1-0.7
		l2-2.3c0.2-0.2,0.5-0.2,0.7-0.1c0.2,0.2,0.2,0.5,0.1,0.7l-2,2.3C502.9,303.7,502.7,303.8,502.6,303.8z M506.5,299.2
		c-0.1,0-0.2,0-0.3-0.1c-0.2-0.2-0.2-0.5-0.1-0.7l2-2.3c0.2-0.2,0.5-0.2,0.7-0.1c0.2,0.2,0.2,0.5,0.1,0.7l-2,2.3
		C506.8,299.2,506.6,299.2,506.5,299.2z M510.4,294.7c-0.1,0-0.2,0-0.3-0.1c-0.2-0.2-0.2-0.5-0.1-0.7l2-2.3c0.2-0.2,0.5-0.2,0.7-0.1
		c0.2,0.2,0.2,0.5,0.1,0.7l-2,2.3C510.7,294.6,510.5,294.7,510.4,294.7z M514.3,290.1c-0.1,0-0.2,0-0.3-0.1
		c-0.2-0.2-0.2-0.5-0.1-0.7l2-2.3c0.2-0.2,0.5-0.2,0.7-0.1c0.2,0.2,0.2,0.5,0.1,0.7l-2,2.3C514.6,290,514.4,290.1,514.3,290.1z
		 M518.2,285.5c-0.1,0-0.2,0-0.3-0.1c-0.2-0.2-0.2-0.5-0.1-0.7l2-2.3c0.2-0.2,0.5-0.2,0.7-0.1c0.2,0.2,0.2,0.5,0.1,0.7l-2,2.3
		C518.5,285.5,518.3,285.5,518.2,285.5z M522.1,281c-0.1,0-0.2,0-0.3-0.1c-0.2-0.2-0.2-0.5-0.1-0.7l2-2.3c0.2-0.2,0.5-0.2,0.7-0.1
		c0.2,0.2,0.2,0.5,0.1,0.7l-2,2.3C522.4,280.9,522.3,281,522.1,281z M526,276.4c-0.1,0-0.2,0-0.3-0.1c-0.2-0.2-0.2-0.5-0.1-0.7
		l2-2.3c0.2-0.2,0.5-0.2,0.7-0.1c0.2,0.2,0.2,0.5,0.1,0.7l-2,2.3C526.3,276.4,526.2,276.4,526,276.4z M529.9,271.9
		c-0.1,0-0.2,0-0.3-0.1c-0.2-0.2-0.2-0.5-0.1-0.7l2-2.3c0.2-0.2,0.5-0.2,0.7-0.1c0.2,0.2,0.2,0.5,0.1,0.7l-2,2.3
		C530.2,271.8,530.1,271.9,529.9,271.9z M533.8,267.3c-0.1,0-0.2,0-0.3-0.1c-0.2-0.2-0.2-0.5-0.1-0.7l2-2.3c0.2-0.2,0.5-0.2,0.7-0.1
		c0.2,0.2,0.2,0.5,0.1,0.7l-2,2.3C534.1,267.3,534,267.3,533.8,267.3z M537.7,262.8c-0.1,0-0.2,0-0.3-0.1c-0.2-0.2-0.2-0.5-0.1-0.7
		l2-2.3c0.2-0.2,0.5-0.2,0.7-0.1c0.2,0.2,0.2,0.5,0.1,0.7l-2,2.3C538,262.7,537.9,262.8,537.7,262.8z M541.6,258.2
		c-0.1,0-0.2,0-0.3-0.1c-0.2-0.2-0.2-0.5-0.1-0.7l2-2.3c0.2-0.2,0.5-0.2,0.7-0.1c0.2,0.2,0.2,0.5,0.1,0.7l-2,2.3
		C541.9,258.2,541.8,258.2,541.6,258.2z M545.5,253.7c-0.1,0-0.2,0-0.3-0.1c-0.2-0.2-0.2-0.5-0.1-0.7l2-2.3c0.2-0.2,0.5-0.2,0.7-0.1
		c0.2,0.2,0.2,0.5,0.1,0.7l-2,2.3C545.8,253.6,545.7,253.7,545.5,253.7z M549.4,249.1c-0.1,0-0.2,0-0.3-0.1
		c-0.2-0.2-0.2-0.5-0.1-0.7l2-2.3c0.2-0.2,0.5-0.2,0.7-0.1c0.2,0.2,0.2,0.5,0.1,0.7l-2,2.3C549.7,249,549.6,249.1,549.4,249.1z
		 M553.4,244.5c-0.1,0-0.2,0-0.3-0.1c-0.2-0.2-0.2-0.5-0.1-0.7l2-2.3c0.2-0.2,0.5-0.2,0.7-0.1c0.2,0.2,0.2,0.5,0.1,0.7l-2,2.3
		C553.6,244.5,553.5,244.5,553.4,244.5z M557.3,240c-0.1,0-0.2,0-0.3-0.1c-0.2-0.2-0.2-0.5-0.1-0.7l2-2.3c0.2-0.2,0.5-0.2,0.7-0.1
		c0.2,0.2,0.2,0.5,0.1,0.7l-2,2.3C557.5,239.9,557.4,240,557.3,240z M561.2,235.4c-0.1,0-0.2,0-0.3-0.1c-0.2-0.2-0.2-0.5-0.1-0.7
		l2-2.3c0.2-0.2,0.5-0.2,0.7-0.1c0.2,0.2,0.2,0.5,0.1,0.7l-2,2.3C561.4,235.4,561.3,235.4,561.2,235.4z M565.1,230.9
		c-0.1,0-0.2,0-0.3-0.1c-0.2-0.2-0.2-0.5-0.1-0.7l2-2.3c0.2-0.2,0.5-0.2,0.7-0.1c0.2,0.2,0.2,0.5,0.1,0.7l-2,2.3
		C565.3,230.8,565.2,230.9,565.1,230.9z M569,226.3c-0.1,0-0.2,0-0.3-0.1c-0.2-0.2-0.2-0.5-0.1-0.7l2-2.3c0.2-0.2,0.5-0.2,0.7-0.1
		c0.2,0.2,0.2,0.5,0.1,0.7l-2,2.3C569.3,226.3,569.1,226.3,569,226.3z M572.9,221.8c-0.1,0-0.2,0-0.3-0.1c-0.2-0.2-0.2-0.5-0.1-0.7
		l2-2.3c0.2-0.2,0.5-0.2,0.7-0.1c0.2,0.2,0.2,0.5,0.1,0.7l-2,2.3C573.2,221.7,573,221.8,572.9,221.8z M576.8,217.2
		c-0.1,0-0.2,0-0.3-0.1c-0.2-0.2-0.2-0.5-0.1-0.7l2-2.3c0.2-0.2,0.5-0.2,0.7-0.1c0.2,0.2,0.2,0.5,0.1,0.7l-2,2.3
		C577.1,217.2,576.9,217.2,576.8,217.2z M580.7,212.7c-0.1,0-0.2,0-0.3-0.1c-0.2-0.2-0.2-0.5-0.1-0.7l2-2.3c0.2-0.2,0.5-0.2,0.7-0.1
		c0.2,0.2,0.2,0.5,0.1,0.7l-2,2.3C581,212.6,580.8,212.7,580.7,212.7z M584.6,208.1c-0.1,0-0.2,0-0.3-0.1c-0.2-0.2-0.2-0.5-0.1-0.7
		l2-2.3c0.2-0.2,0.5-0.2,0.7-0.1c0.2,0.2,0.2,0.5,0.1,0.7l-2,2.3C584.9,208,584.7,208.1,584.6,208.1z M588.5,203.5
		c-0.1,0-0.2,0-0.3-0.1c-0.2-0.2-0.2-0.5-0.1-0.7l2-2.3c0.2-0.2,0.5-0.2,0.7-0.1c0.2,0.2,0.2,0.5,0.1,0.7l-2,2.3
		C588.8,203.5,588.6,203.5,588.5,203.5z M592.4,199c-0.1,0-0.2,0-0.3-0.1c-0.2-0.2-0.2-0.5-0.1-0.7l2-2.3c0.2-0.2,0.5-0.2,0.7-0.1
		c0.2,0.2,0.2,0.5,0.1,0.7l-2,2.3C592.7,198.9,592.5,199,592.4,199z M596.3,194.4c-0.1,0-0.2,0-0.3-0.1c-0.2-0.2-0.2-0.5-0.1-0.7
		l2-2.3c0.2-0.2,0.5-0.2,0.7-0.1c0.2,0.2,0.2,0.5,0.1,0.7l-2,2.3C596.6,194.4,596.4,194.4,596.3,194.4z M600.2,189.9
		c-0.1,0-0.2,0-0.3-0.1c-0.2-0.2-0.2-0.5-0.1-0.7l2-2.3c0.2-0.2,0.5-0.2,0.7-0.1c0.2,0.2,0.2,0.5,0.1,0.7l-2,2.3
		C600.5,189.8,600.3,189.9,600.2,189.9z M604.1,185.3c-0.1,0-0.2,0-0.3-0.1c-0.2-0.2-0.2-0.5-0.1-0.7l2-2.3c0.2-0.2,0.5-0.2,0.7-0.1
		c0.2,0.2,0.2,0.5,0.1,0.7l-2,2.3C604.4,185.3,604.3,185.3,604.1,185.3z M608,180.8c-0.1,0-0.2,0-0.3-0.1c-0.2-0.2-0.2-0.5-0.1-0.7
		l2-2.3c0.2-0.2,0.5-0.2,0.7-0.1c0.2,0.2,0.2,0.5,0.1,0.7l-2,2.3C608.3,180.7,608.2,180.8,608,180.8z M611.9,176.2
		c-0.1,0-0.2,0-0.3-0.1c-0.2-0.2-0.2-0.5-0.1-0.7l2-2.3c0.2-0.2,0.5-0.2,0.7-0.1c0.2,0.2,0.2,0.5,0.1,0.7l-2,2.3
		C612.2,176.2,612.1,176.2,611.9,176.2z M615.8,171.7c-0.1,0-0.2,0-0.3-0.1c-0.2-0.2-0.2-0.5-0.1-0.7l2-2.3c0.2-0.2,0.5-0.2,0.7-0.1
		c0.2,0.2,0.2,0.5,0.1,0.7l-2,2.3C616.1,171.6,616,171.7,615.8,171.7z M619.7,167.1c-0.1,0-0.2,0-0.3-0.1c-0.2-0.2-0.2-0.5-0.1-0.7
		l2-2.3c0.2-0.2,0.5-0.2,0.7-0.1c0.2,0.2,0.2,0.5,0.1,0.7l-2,2.3C620,167,619.9,167.1,619.7,167.1z M623.6,162.5
		c-0.1,0-0.2,0-0.3-0.1c-0.2-0.2-0.2-0.5-0.1-0.7l2-2.3c0.2-0.2,0.5-0.2,0.7-0.1c0.2,0.2,0.2,0.5,0.1,0.7l-2,2.3
		C623.9,162.5,623.8,162.5,623.6,162.5z M627.5,158c-0.1,0-0.2,0-0.3-0.1c-0.2-0.2-0.2-0.5-0.1-0.7l2-2.3c0.2-0.2,0.5-0.2,0.7-0.1
		c0.2,0.2,0.2,0.5,0.1,0.7l-2,2.3C627.8,157.9,627.7,158,627.5,158z"/>
</g>
<g>
	<path fill="#1E2538" d="M575.3,331.4c-0.1,0-0.3-0.1-0.4-0.2L420.6,155.4c-0.2-0.2-0.2-0.5,0-0.7c0.2-0.2,0.5-0.2,0.7,0
		l154.4,175.8c0.2,0.2,0.2,0.5,0,0.7C575.5,331.3,575.4,331.4,575.3,331.4z"/>
</g>
<g>
	<path fill="#1E2538" d="M475.3,553.6c-0.1,0-0.2,0-0.3-0.1c-0.2-0.2-0.2-0.5-0.1-0.7l154.4-180.1c0.2-0.2,0.5-0.2,0.7-0.1
		c0.2,0.2,0.2,0.5,0.1,0.7L475.6,553.4C475.5,553.6,475.4,553.6,475.3,553.6z"/>
</g>
<g>
	<path fill="#1E2538" d="M369.5,547.9h-3c-0.3,0-0.5-0.2-0.5-0.5s0.2-0.5,0.5-0.5h3c0.3,0,0.5,0.2,0.5,0.5S369.8,547.9,369.5,547.9z
		 M363.5,547.9h-3c-0.3,0-0.5-0.2-0.5-0.5s0.2-0.5,0.5-0.5h3c0.3,0,0.5,0.2,0.5,0.5S363.8,547.9,363.5,547.9z M357.5,547.9h-3
		c-0.3,0-0.5-0.2-0.5-0.5s0.2-0.5,0.5-0.5h3c0.3,0,0.5,0.2,0.5,0.5S357.8,547.9,357.5,547.9z M351.5,547.9h-3
		c-0.3,0-0.5-0.2-0.5-0.5s0.2-0.5,0.5-0.5h3c0.3,0,0.5,0.2,0.5,0.5S351.8,547.9,351.5,547.9z M345.5,547.9h-3
		c-0.3,0-0.5-0.2-0.5-0.5s0.2-0.5,0.5-0.5h3c0.3,0,0.5,0.2,0.5,0.5S345.8,547.9,345.5,547.9z M339.5,547.9h-3
		c-0.3,0-0.5-0.2-0.5-0.5s0.2-0.5,0.5-0.5h3c0.3,0,0.5,0.2,0.5,0.5S339.8,547.9,339.5,547.9z M333.5,547.9h-3
		c-0.3,0-0.5-0.2-0.5-0.5s0.2-0.5,0.5-0.5h3c0.3,0,0.5,0.2,0.5,0.5S333.8,547.9,333.5,547.9z M327.5,547.9h-3
		c-0.3,0-0.5-0.2-0.5-0.5s0.2-0.5,0.5-0.5h3c0.3,0,0.5,0.2,0.5,0.5S327.8,547.9,327.5,547.9z M321.5,547.9h-3
		c-0.3,0-0.5-0.2-0.5-0.5s0.2-0.5,0.5-0.5h3c0.3,0,0.5,0.2,0.5,0.5S321.8,547.9,321.5,547.9z M315.5,547.9h-3
		c-0.3,0-0.5-0.2-0.5-0.5s0.2-0.5,0.5-0.5h3c0.3,0,0.5,0.2,0.5,0.5S315.8,547.9,315.5,547.9z M309.5,547.9h-3
		c-0.3,0-0.5-0.2-0.5-0.5s0.2-0.5,0.5-0.5h3c0.3,0,0.5,0.2,0.5,0.5S309.8,547.9,309.5,547.9z M303.5,547.9h-3
		c-0.3,0-0.5-0.2-0.5-0.5s0.2-0.5,0.5-0.5h3c0.3,0,0.5,0.2,0.5,0.5S303.8,547.9,303.5,547.9z M297.5,547.9h-3
		c-0.3,0-0.5-0.2-0.5-0.5s0.2-0.5,0.5-0.5h3c0.3,0,0.5,0.2,0.5,0.5S297.8,547.9,297.5,547.9z M291.5,547.9h-3
		c-0.3,0-0.5-0.2-0.5-0.5s0.2-0.5,0.5-0.5h3c0.3,0,0.5,0.2,0.5,0.5S291.8,547.9,291.5,547.9z M285.5,547.9h-3
		c-0.3,0-0.5-0.2-0.5-0.5s0.2-0.5,0.5-0.5h3c0.3,0,0.5,0.2,0.5,0.5S285.8,547.9,285.5,547.9z M279.5,547.9h-3
		c-0.3,0-0.5-0.2-0.5-0.5s0.2-0.5,0.5-0.5h3c0.3,0,0.5,0.2,0.5,0.5S279.8,547.9,279.5,547.9z M273.5,547.9h-3
		c-0.3,0-0.5-0.2-0.5-0.5s0.2-0.5,0.5-0.5h3c0.3,0,0.5,0.2,0.5,0.5S273.8,547.9,273.5,547.9z M267.5,547.9h-3
		c-0.3,0-0.5-0.2-0.5-0.5s0.2-0.5,0.5-0.5h3c0.3,0,0.5,0.2,0.5,0.5S267.8,547.9,267.5,547.9z"/>
</g>
<g>
	<path fill="#1E2538" d="M212.3,440.7c-0.3,0-0.5-0.2-0.5-0.5v-3c0-0.3,0.2-0.5,0.5-0.5s0.5,0.2,0.5,0.5v3
		C212.8,440.5,212.6,440.7,212.3,440.7z M212.3,434.7c-0.3,0-0.5-0.2-0.5-0.5v-3c0-0.3,0.2-0.5,0.5-0.5s0.5,0.2,0.5,0.5v3
		C212.8,434.5,212.6,434.7,212.3,434.7z M212.3,428.7c-0.3,0-0.5-0.2-0.5-0.5v-3c0-0.3,0.2-0.5,0.5-0.5s0.5,0.2,0.5,0.5v3
		C212.8,428.5,212.6,428.7,212.3,428.7z M212.3,422.7c-0.3,0-0.5-0.2-0.5-0.5v-3c0-0.3,0.2-0.5,0.5-0.5s0.5,0.2,0.5,0.5v3
		C212.8,422.5,212.6,422.7,212.3,422.7z M212.3,416.7c-0.3,0-0.5-0.2-0.5-0.5v-3c0-0.3,0.2-0.5,0.5-0.5s0.5,0.2,0.5,0.5v3
		C212.8,416.5,212.6,416.7,212.3,416.7z M212.3,410.7c-0.3,0-0.5-0.2-0.5-0.5v-3c0-0.3,0.2-0.5,0.5-0.5s0.5,0.2,0.5,0.5v3
		C212.8,410.5,212.6,410.7,212.3,410.7z M212.3,404.7c-0.3,0-0.5-0.2-0.5-0.5v-3c0-0.3,0.2-0.5,0.5-0.5s0.5,0.2,0.5,0.5v3
		C212.8,404.5,212.6,404.7,212.3,404.7z M212.3,398.7c-0.3,0-0.5-0.2-0.5-0.5v-3c0-0.3,0.2-0.5,0.5-0.5s0.5,0.2,0.5,0.5v3
		C212.8,398.5,212.6,398.7,212.3,398.7z M212.3,392.7c-0.3,0-0.5-0.2-0.5-0.5v-3c0-0.3,0.2-0.5,0.5-0.5s0.5,0.2,0.5,0.5v3
		C212.8,392.5,212.6,392.7,212.3,392.7z M212.3,386.7c-0.3,0-0.5-0.2-0.5-0.5v-3c0-0.3,0.2-0.5,0.5-0.5s0.5,0.2,0.5,0.5v3
		C212.8,386.5,212.6,386.7,212.3,386.7z M212.3,380.7c-0.3,0-0.5-0.2-0.5-0.5v-3c0-0.3,0.2-0.5,0.5-0.5s0.5,0.2,0.5,0.5v3
		C212.8,380.5,212.6,380.7,212.3,380.7z M212.3,374.7c-0.3,0-0.5-0.2-0.5-0.5V373c0-0.3,0.2-0.5,0.5-0.5s0.5,0.2,0.5,0.5v1.2
		C212.8,374.5,212.6,374.7,212.3,374.7z"/>
</g>
<g>
	<path fill="#1E2538" d="M575.3,553.6c-0.1,0-0.3-0.1-0.4-0.2l-2-2.3c-0.2-0.2-0.2-0.5,0.1-0.7c0.2-0.2,0.5-0.2,0.7,0.1l2,2.3
		c0.2,0.2,0.2,0.5-0.1,0.7C575.5,553.6,575.4,553.6,575.3,553.6z M571.4,549.1c-0.1,0-0.3-0.1-0.4-0.2l-2-2.3
		c-0.2-0.2-0.2-0.5,0.1-0.7c0.2-0.2,0.5-0.2,0.7,0.1l2,2.3c0.2,0.2,0.2,0.5-0.1,0.7C571.6,549,571.5,549.1,571.4,549.1z
		 M567.5,544.5c-0.1,0-0.3-0.1-0.4-0.2l-2-2.3c-0.2-0.2-0.2-0.5,0.1-0.7c0.2-0.2,0.5-0.2,0.7,0.1l2,2.3c0.2,0.2,0.2,0.5-0.1,0.7
		C567.7,544.5,567.6,544.5,567.5,544.5z M563.6,539.9c-0.1,0-0.3-0.1-0.4-0.2l-2-2.3c-0.2-0.2-0.2-0.5,0.1-0.7
		c0.2-0.2,0.5-0.2,0.7,0.1l2,2.3c0.2,0.2,0.2,0.5-0.1,0.7C563.8,539.9,563.7,539.9,563.6,539.9z M559.7,535.4
		c-0.1,0-0.3-0.1-0.4-0.2l-2-2.3c-0.2-0.2-0.2-0.5,0.1-0.7c0.2-0.2,0.5-0.2,0.7,0.1l2,2.3c0.2,0.2,0.2,0.5-0.1,0.7
		C559.9,535.4,559.8,535.4,559.7,535.4z M555.8,530.8c-0.1,0-0.3-0.1-0.4-0.2l-2-2.3c-0.2-0.2-0.2-0.5,0.1-0.7
		c0.2-0.2,0.5-0.2,0.7,0.1l2,2.3c0.2,0.2,0.2,0.5-0.1,0.7C556,530.8,555.9,530.8,555.8,530.8z M551.9,526.3c-0.1,0-0.3-0.1-0.4-0.2
		l-2-2.3c-0.2-0.2-0.2-0.5,0.1-0.7c0.2-0.2,0.5-0.2,0.7,0.1l2,2.3c0.2,0.2,0.2,0.5-0.1,0.7C552.1,526.2,552,526.3,551.9,526.3z
		 M548,521.7c-0.1,0-0.3-0.1-0.4-0.2l-2-2.3c-0.2-0.2-0.2-0.5,0.1-0.7c0.2-0.2,0.5-0.2,0.7,0.1l2,2.3c0.2,0.2,0.2,0.5-0.1,0.7
		C548.2,521.7,548.1,521.7,548,521.7z M544.1,517.2c-0.1,0-0.3-0.1-0.4-0.2l-2-2.3c-0.2-0.2-0.2-0.5,0.1-0.7
		c0.2-0.2,0.5-0.2,0.7,0.1l2,2.3c0.2,0.2,0.2,0.5-0.1,0.7C544.3,517.1,544.2,517.2,544.1,517.2z M540.2,512.6
		c-0.1,0-0.3-0.1-0.4-0.2l-2-2.3c-0.2-0.2-0.2-0.5,0.1-0.7c0.2-0.2,0.5-0.2,0.7,0.1l2,2.3c0.2,0.2,0.2,0.5-0.1,0.7
		C540.4,512.6,540.3,512.6,540.2,512.6z M536.3,508.1c-0.1,0-0.3-0.1-0.4-0.2l-2-2.3c-0.2-0.2-0.2-0.5,0.1-0.7
		c0.2-0.2,0.5-0.2,0.7,0.1l2,2.3c0.2,0.2,0.2,0.5-0.1,0.7C536.5,508,536.4,508.1,536.3,508.1z M532.4,503.5c-0.1,0-0.3-0.1-0.4-0.2
		l-2-2.3c-0.2-0.2-0.2-0.5,0.1-0.7c0.2-0.2,0.5-0.2,0.7,0.1l2,2.3c0.2,0.2,0.2,0.5-0.1,0.7C532.6,503.5,532.5,503.5,532.4,503.5z
		 M528.4,499c-0.1,0-0.3-0.1-0.4-0.2l-2-2.3c-0.2-0.2-0.2-0.5,0.1-0.7c0.2-0.2,0.5-0.2,0.7,0.1l2,2.3c0.2,0.2,0.2,0.5-0.1,0.7
		C528.7,498.9,528.6,499,528.4,499z M524.5,494.4c-0.1,0-0.3-0.1-0.4-0.2l-2-2.3c-0.2-0.2-0.2-0.5,0.1-0.7c0.2-0.2,0.5-0.2,0.7,0.1
		l2,2.3c0.2,0.2,0.2,0.5-0.1,0.7C524.8,494.4,524.7,494.4,524.5,494.4z M520.6,489.8c-0.1,0-0.3-0.1-0.4-0.2l-2-2.3
		c-0.2-0.2-0.2-0.5,0.1-0.7c0.2-0.2,0.5-0.2,0.7,0.1l2,2.3c0.2,0.2,0.2,0.5-0.1,0.7C520.9,489.8,520.8,489.8,520.6,489.8z
		 M516.7,485.3c-0.1,0-0.3-0.1-0.4-0.2l-2-2.3c-0.2-0.2-0.2-0.5,0.1-0.7c0.2-0.2,0.5-0.2,0.7,0.1l2,2.3c0.2,0.2,0.2,0.5-0.1,0.7
		C517,485.2,516.8,485.3,516.7,485.3z M512.8,480.7c-0.1,0-0.3-0.1-0.4-0.2l-2-2.3c-0.2-0.2-0.2-0.5,0.1-0.7
		c0.2-0.2,0.5-0.2,0.7,0.1l2,2.3c0.2,0.2,0.2,0.5-0.1,0.7C513.1,480.7,512.9,480.7,512.8,480.7z M508.9,476.2
		c-0.1,0-0.3-0.1-0.4-0.2l-2-2.3c-0.2-0.2-0.2-0.5,0.1-0.7c0.2-0.2,0.5-0.2,0.7,0.1l2,2.3c0.2,0.2,0.2,0.5-0.1,0.7
		C509.2,476.1,509,476.2,508.9,476.2z M505,471.6c-0.1,0-0.3-0.1-0.4-0.2l-2-2.3c-0.2-0.2-0.2-0.5,0.1-0.7c0.2-0.2,0.5-0.2,0.7,0.1
		l2,2.3c0.2,0.2,0.2,0.5-0.1,0.7C505.2,471.6,505.1,471.6,505,471.6z M501.1,467.1c-0.1,0-0.3-0.1-0.4-0.2l-2-2.3
		c-0.2-0.2-0.2-0.5,0.1-0.7c0.2-0.2,0.5-0.2,0.7,0.1l2,2.3c0.2,0.2,0.2,0.5-0.1,0.7C501.3,467,501.2,467.1,501.1,467.1z
		 M497.2,462.5c-0.1,0-0.3-0.1-0.4-0.2l-2-2.3c-0.2-0.2-0.2-0.5,0.1-0.7c0.2-0.2,0.5-0.2,0.7,0.1l2,2.3c0.2,0.2,0.2,0.5-0.1,0.7
		C497.4,462.5,497.3,462.5,497.2,462.5z M493.3,458c-0.1,0-0.3-0.1-0.4-0.2l-2-2.3c-0.2-0.2-0.2-0.5,0.1-0.7
		c0.2-0.2,0.5-0.2,0.7,0.1l2,2.3c0.2,0.2,0.2,0.5-0.1,0.7C493.5,457.9,493.4,458,493.3,458z M489.4,453.4c-0.1,0-0.3-0.1-0.4-0.2
		l-2-2.3c-0.2-0.2-0.2-0.5,0.1-0.7c0.2-0.2,0.5-0.2,0.7,0.1l2,2.3c0.2,0.2,0.2,0.5-0.1,0.7C489.6,453.4,489.5,453.4,489.4,453.4z
		 M485.5,448.8c-0.1,0-0.3-0.1-0.4-0.2l-2-2.3c-0.2-0.2-0.2-0.5,0.1-0.7c0.2-0.2,0.5-0.2,0.7,0.1l2,2.3c0.2,0.2,0.2,0.5-0.1,0.7
		C485.7,448.8,485.6,448.8,485.5,448.8z M481.6,444.3c-0.1,0-0.3-0.1-0.4-0.2l-2-2.3c-0.2-0.2-0.2-0.5,0.1-0.7
		c0.2-0.2,0.5-0.2,0.7,0.1l2,2.3c0.2,0.2,0.2,0.5-0.1,0.7C481.8,444.2,481.7,444.3,481.6,444.3z M477.7,439.7
		c-0.1,0-0.3-0.1-0.4-0.2l-2-2.3c-0.2-0.2-0.2-0.5,0.1-0.7c0.2-0.2,0.5-0.2,0.7,0.1l2,2.3c0.2,0.2,0.2,0.5-0.1,0.7
		C477.9,439.7,477.8,439.7,477.7,439.7z M473.8,435.2c-0.1,0-0.3-0.1-0.4-0.2l-2-2.3c-0.2-0.2-0.2-0.5,0.1-0.7
		c0.2-0.2,0.5-0.2,0.7,0.1l2,2.3c0.2,0.2,0.2,0.5-0.1,0.7C474,435.1,473.9,435.2,473.8,435.2z M469.9,430.6c-0.1,0-0.3-0.1-0.4-0.2
		l-2-2.3c-0.2-0.2-0.2-0.5,0.1-0.7c0.2-0.2,0.5-0.2,0.7,0.1l2,2.3c0.2,0.2,0.2,0.5-0.1,0.7C470.1,430.6,470,430.6,469.9,430.6z
		 M466,426.1c-0.1,0-0.3-0.1-0.4-0.2l-2-2.3c-0.2-0.2-0.2-0.5,0.1-0.7c0.2-0.2,0.5-0.2,0.7,0.1l2,2.3c0.2,0.2,0.2,0.5-0.1,0.7
		C466.2,426,466.1,426.1,466,426.1z M462.1,421.5c-0.1,0-0.3-0.1-0.4-0.2l-2-2.3c-0.2-0.2-0.2-0.5,0.1-0.7c0.2-0.2,0.5-0.2,0.7,0.1
		l2,2.3c0.2,0.2,0.2,0.5-0.1,0.7C462.3,421.5,462.2,421.5,462.1,421.5z M458.2,417c-0.1,0-0.3-0.1-0.4-0.2l-2-2.3
		c-0.2-0.2-0.2-0.5,0.1-0.7c0.2-0.2,0.5-0.2,0.7,0.1l2,2.3c0.2,0.2,0.2,0.5-0.1,0.7C458.4,416.9,458.3,417,458.2,417z M454.3,412.4
		c-0.1,0-0.3-0.1-0.4-0.2l-2-2.3c-0.2-0.2-0.2-0.5,0.1-0.7c0.2-0.2,0.5-0.2,0.7,0.1l2,2.3c0.2,0.2,0.2,0.5-0.1,0.7
		C454.5,412.4,454.4,412.4,454.3,412.4z M450.4,407.8c-0.1,0-0.3-0.1-0.4-0.2l-2-2.3c-0.2-0.2-0.2-0.5,0.1-0.7
		c0.2-0.2,0.5-0.2,0.7,0.1l2,2.3c0.2,0.2,0.2,0.5-0.1,0.7C450.6,407.8,450.5,407.8,450.4,407.8z M446.4,403.3
		c-0.1,0-0.3-0.1-0.4-0.2l-2-2.3c-0.2-0.2-0.2-0.5,0.1-0.7c0.2-0.2,0.5-0.2,0.7,0.1l2,2.3c0.2,0.2,0.2,0.5-0.1,0.7
		C446.7,403.2,446.6,403.3,446.4,403.3z M442.5,398.7c-0.1,0-0.3-0.1-0.4-0.2l-2-2.3c-0.2-0.2-0.2-0.5,0.1-0.7
		c0.2-0.2,0.5-0.2,0.7,0.1l2,2.3c0.2,0.2,0.2,0.5-0.1,0.7C442.8,398.7,442.7,398.7,442.5,398.7z M438.6,394.2
		c-0.1,0-0.3-0.1-0.4-0.2l-2-2.3c-0.2-0.2-0.2-0.5,0.1-0.7c0.2-0.2,0.5-0.2,0.7,0.1l2,2.3c0.2,0.2,0.2,0.5-0.1,0.7
		C438.9,394.1,438.8,394.2,438.6,394.2z M434.7,389.6c-0.1,0-0.3-0.1-0.4-0.2l-2-2.3c-0.2-0.2-0.2-0.5,0.1-0.7
		c0.2-0.2,0.5-0.2,0.7,0.1l2,2.3c0.2,0.2,0.2,0.5-0.1,0.7C435,389.6,434.8,389.6,434.7,389.6z M430.8,385.1c-0.1,0-0.3-0.1-0.4-0.2
		l-2-2.3c-0.2-0.2-0.2-0.5,0.1-0.7c0.2-0.2,0.5-0.2,0.7,0.1l2,2.3c0.2,0.2,0.2,0.5-0.1,0.7C431.1,385,430.9,385.1,430.8,385.1z
		 M426.9,380.5c-0.1,0-0.3-0.1-0.4-0.2l-2-2.3c-0.2-0.2-0.2-0.5,0.1-0.7c0.2-0.2,0.5-0.2,0.7,0.1l2,2.3c0.2,0.2,0.2,0.5-0.1,0.7
		C427.2,380.5,427,380.5,426.9,380.5z M423,376c-0.1,0-0.3-0.1-0.4-0.2l-2-2.3c-0.2-0.2-0.2-0.5,0.1-0.7c0.2-0.2,0.5-0.2,0.7,0.1
		l2,2.3c0.2,0.2,0.2,0.5-0.1,0.7C423.2,375.9,423.1,376,423,376z"/>
</g>
<g>
	<path fill="#1E2538" d="M263.7,329.2c-0.1,0-0.2,0-0.3-0.1c-0.2-0.2-0.2-0.5,0-0.7l2-2.2c0.2-0.2,0.5-0.2,0.7,0
		c0.2,0.2,0.2,0.5,0,0.7l-2,2.2C264,329.2,263.9,329.2,263.7,329.2z M267.8,324.8c-0.1,0-0.2,0-0.3-0.1c-0.2-0.2-0.2-0.5,0-0.7
		l2-2.2c0.2-0.2,0.5-0.2,0.7,0c0.2,0.2,0.2,0.5,0,0.7l-2,2.2C268,324.7,267.9,324.8,267.8,324.8z M271.8,320.3c-0.1,0-0.2,0-0.3-0.1
		c-0.2-0.2-0.2-0.5,0-0.7l2-2.2c0.2-0.2,0.5-0.2,0.7,0c0.2,0.2,0.2,0.5,0,0.7l-2,2.2C272.1,320.3,271.9,320.3,271.8,320.3z
		 M275.8,315.9c-0.1,0-0.2,0-0.3-0.1c-0.2-0.2-0.2-0.5,0-0.7l2-2.2c0.2-0.2,0.5-0.2,0.7,0c0.2,0.2,0.2,0.5,0,0.7l-2,2.2
		C276.1,315.8,275.9,315.9,275.8,315.9z M279.8,311.4c-0.1,0-0.2,0-0.3-0.1c-0.2-0.2-0.2-0.5,0-0.7l2-2.2c0.2-0.2,0.5-0.2,0.7,0
		c0.2,0.2,0.2,0.5,0,0.7l-2,2.2C280.1,311.4,280,311.4,279.8,311.4z M283.9,307c-0.1,0-0.2,0-0.3-0.1c-0.2-0.2-0.2-0.5,0-0.7l2-2.2
		c0.2-0.2,0.5-0.2,0.7,0c0.2,0.2,0.2,0.5,0,0.7l-2,2.2C284.1,306.9,284,307,283.9,307z M287.9,302.5c-0.1,0-0.2,0-0.3-0.1
		c-0.2-0.2-0.2-0.5,0-0.7l2-2.2c0.2-0.2,0.5-0.2,0.7,0c0.2,0.2,0.2,0.5,0,0.7l-2,2.2C288.2,302.5,288,302.5,287.9,302.5z
		 M291.9,298.1c-0.1,0-0.2,0-0.3-0.1c-0.2-0.2-0.2-0.5,0-0.7l2-2.2c0.2-0.2,0.5-0.2,0.7,0c0.2,0.2,0.2,0.5,0,0.7l-2,2.2
		C292.2,298,292.1,298.1,291.9,298.1z M295.9,293.6c-0.1,0-0.2,0-0.3-0.1c-0.2-0.2-0.2-0.5,0-0.7l2-2.2c0.2-0.2,0.5-0.2,0.7,0
		c0.2,0.2,0.2,0.5,0,0.7l-2,2.2C296.2,293.6,296.1,293.6,295.9,293.6z M300,289.2c-0.1,0-0.2,0-0.3-0.1c-0.2-0.2-0.2-0.5,0-0.7
		l2-2.2c0.2-0.2,0.5-0.2,0.7,0c0.2,0.2,0.2,0.5,0,0.7l-2,2.2C300.2,289.1,300.1,289.2,300,289.2z M304,284.7c-0.1,0-0.2,0-0.3-0.1
		c-0.2-0.2-0.2-0.5,0-0.7l2-2.2c0.2-0.2,0.5-0.2,0.7,0c0.2,0.2,0.2,0.5,0,0.7l-2,2.2C304.3,284.7,304.1,284.7,304,284.7z M308,280.3
		c-0.1,0-0.2,0-0.3-0.1c-0.2-0.2-0.2-0.5,0-0.7l2-2.2c0.2-0.2,0.5-0.2,0.7,0c0.2,0.2,0.2,0.5,0,0.7l-2,2.2
		C308.3,280.2,308.2,280.3,308,280.3z M312.1,275.9c-0.1,0-0.2,0-0.3-0.1c-0.2-0.2-0.2-0.5,0-0.7l2-2.2c0.2-0.2,0.5-0.2,0.7,0
		c0.2,0.2,0.2,0.5,0,0.7l-2,2.2C312.3,275.8,312.2,275.9,312.1,275.9z M316.1,271.4c-0.1,0-0.2,0-0.3-0.1c-0.2-0.2-0.2-0.5,0-0.7
		l2-2.2c0.2-0.2,0.5-0.2,0.7,0c0.2,0.2,0.2,0.5,0,0.7l-2,2.2C316.4,271.3,316.2,271.4,316.1,271.4z M320.1,267c-0.1,0-0.2,0-0.3-0.1
		c-0.2-0.2-0.2-0.5,0-0.7l2-2.2c0.2-0.2,0.5-0.2,0.7,0c0.2,0.2,0.2,0.5,0,0.7l-2,2.2C320.4,266.9,320.2,267,320.1,267z M324.1,262.5
		c-0.1,0-0.2,0-0.3-0.1c-0.2-0.2-0.2-0.5,0-0.7l2-2.2c0.2-0.2,0.5-0.2,0.7,0c0.2,0.2,0.2,0.5,0,0.7l-2,2.2
		C324.4,262.5,324.3,262.5,324.1,262.5z M328.2,258.1c-0.1,0-0.2,0-0.3-0.1c-0.2-0.2-0.2-0.5,0-0.7l2-2.2c0.2-0.2,0.5-0.2,0.7,0
		c0.2,0.2,0.2,0.5,0,0.7l-2,2.2C328.4,258,328.3,258.1,328.2,258.1z M332.2,253.6c-0.1,0-0.2,0-0.3-0.1c-0.2-0.2-0.2-0.5,0-0.7
		l2-2.2c0.2-0.2,0.5-0.2,0.7,0c0.2,0.2,0.2,0.5,0,0.7l-2,2.2C332.5,253.6,332.3,253.6,332.2,253.6z M336.2,249.2
		c-0.1,0-0.2,0-0.3-0.1c-0.2-0.2-0.2-0.5,0-0.7l2-2.2c0.2-0.2,0.5-0.2,0.7,0c0.2,0.2,0.2,0.5,0,0.7l-2,2.2
		C336.5,249.1,336.3,249.2,336.2,249.2z M340.2,244.7c-0.1,0-0.2,0-0.3-0.1c-0.2-0.2-0.2-0.5,0-0.7l2-2.2c0.2-0.2,0.5-0.2,0.7,0
		c0.2,0.2,0.2,0.5,0,0.7l-2,2.2C340.5,244.7,340.4,244.7,340.2,244.7z M344.3,240.3c-0.1,0-0.2,0-0.3-0.1c-0.2-0.2-0.2-0.5,0-0.7
		l2-2.2c0.2-0.2,0.5-0.2,0.7,0c0.2,0.2,0.2,0.5,0,0.7l-2,2.2C344.5,240.2,344.4,240.3,344.3,240.3z M348.3,235.8
		c-0.1,0-0.2,0-0.3-0.1c-0.2-0.2-0.2-0.5,0-0.7l2-2.2c0.2-0.2,0.5-0.2,0.7,0c0.2,0.2,0.2,0.5,0,0.7l-2,2.2
		C348.6,235.8,348.4,235.8,348.3,235.8z M352.3,231.4c-0.1,0-0.2,0-0.3-0.1c-0.2-0.2-0.2-0.5,0-0.7l2-2.2c0.2-0.2,0.5-0.2,0.7,0
		c0.2,0.2,0.2,0.5,0,0.7l-2,2.2C352.6,231.3,352.5,231.4,352.3,231.4z M356.3,226.9c-0.1,0-0.2,0-0.3-0.1c-0.2-0.2-0.2-0.5,0-0.7
		l2-2.2c0.2-0.2,0.5-0.2,0.7,0c0.2,0.2,0.2,0.5,0,0.7l-2,2.2C356.6,226.9,356.5,226.9,356.3,226.9z M360.4,222.5
		c-0.1,0-0.2,0-0.3-0.1c-0.2-0.2-0.2-0.5,0-0.7l2-2.2c0.2-0.2,0.5-0.2,0.7,0c0.2,0.2,0.2,0.5,0,0.7l-2,2.2
		C360.6,222.4,360.5,222.5,360.4,222.5z M364.4,218c-0.1,0-0.2,0-0.3-0.1c-0.2-0.2-0.2-0.5,0-0.7l2-2.2c0.2-0.2,0.5-0.2,0.7,0
		c0.2,0.2,0.2,0.5,0,0.7l-2,2.2C364.7,218,364.5,218,364.4,218z M368.4,213.6c-0.1,0-0.2,0-0.3-0.1c-0.2-0.2-0.2-0.5,0-0.7l2-2.2
		c0.2-0.2,0.5-0.2,0.7,0c0.2,0.2,0.2,0.5,0,0.7l-2,2.2C368.7,213.5,368.6,213.6,368.4,213.6z M372.5,209.1c-0.1,0-0.2,0-0.3-0.1
		c-0.2-0.2-0.2-0.5,0-0.7l2-2.2c0.2-0.2,0.5-0.2,0.7,0c0.2,0.2,0.2,0.5,0,0.7l-2,2.2C372.7,209.1,372.6,209.1,372.5,209.1z
		 M376.5,204.7c-0.1,0-0.2,0-0.3-0.1c-0.2-0.2-0.2-0.5,0-0.7l2-2.2c0.2-0.2,0.5-0.2,0.7,0c0.2,0.2,0.2,0.5,0,0.7l-2,2.2
		C376.8,204.6,376.6,204.7,376.5,204.7z M380.5,200.2c-0.1,0-0.2,0-0.3-0.1c-0.2-0.2-0.2-0.5,0-0.7l2-2.2c0.2-0.2,0.5-0.2,0.7,0
		c0.2,0.2,0.2,0.5,0,0.7l-2,2.2C380.8,200.2,380.6,200.2,380.5,200.2z M384.5,195.8c-0.1,0-0.2,0-0.3-0.1c-0.2-0.2-0.2-0.5,0-0.7
		l2-2.2c0.2-0.2,0.5-0.2,0.7,0c0.2,0.2,0.2,0.5,0,0.7l-2,2.2C384.8,195.7,384.7,195.8,384.5,195.8z M388.6,191.3
		c-0.1,0-0.2,0-0.3-0.1c-0.2-0.2-0.2-0.5,0-0.7l2-2.2c0.2-0.2,0.5-0.2,0.7,0c0.2,0.2,0.2,0.5,0,0.7l-2,2.2
		C388.8,191.3,388.7,191.3,388.6,191.3z M392.6,186.9c-0.1,0-0.2,0-0.3-0.1c-0.2-0.2-0.2-0.5,0-0.7l2-2.2c0.2-0.2,0.5-0.2,0.7,0
		c0.2,0.2,0.2,0.5,0,0.7l-2,2.2C392.9,186.8,392.7,186.9,392.6,186.9z M396.6,182.4c-0.1,0-0.2,0-0.3-0.1c-0.2-0.2-0.2-0.5,0-0.7
		l2-2.2c0.2-0.2,0.5-0.2,0.7,0c0.2,0.2,0.2,0.5,0,0.7l-2,2.2C396.9,182.4,396.8,182.4,396.6,182.4z M400.6,178c-0.1,0-0.2,0-0.3-0.1
		c-0.2-0.2-0.2-0.5,0-0.7l2-2.2c0.2-0.2,0.5-0.2,0.7,0c0.2,0.2,0.2,0.5,0,0.7l-2,2.2C400.9,177.9,400.8,178,400.6,178z M404.7,173.5
		c-0.1,0-0.2,0-0.3-0.1c-0.2-0.2-0.2-0.5,0-0.7l2-2.2c0.2-0.2,0.5-0.2,0.7,0c0.2,0.2,0.2,0.5,0,0.7l-2,2.2
		C404.9,173.5,404.8,173.5,404.7,173.5z M408.7,169.1c-0.1,0-0.2,0-0.3-0.1c-0.2-0.2-0.2-0.5,0-0.7l2-2.2c0.2-0.2,0.5-0.2,0.7,0
		c0.2,0.2,0.2,0.5,0,0.7l-2,2.2C409,169,408.8,169.1,408.7,169.1z M412.7,164.7c-0.1,0-0.2,0-0.3-0.1c-0.2-0.2-0.2-0.5,0-0.7l2-2.2
		c0.2-0.2,0.5-0.2,0.7,0c0.2,0.2,0.2,0.5,0,0.7l-2,2.2C413,164.6,412.9,164.7,412.7,164.7z M416.8,160.2c-0.1,0-0.2,0-0.3-0.1
		c-0.2-0.2-0.2-0.5,0-0.7l2-2.2c0.2-0.2,0.5-0.2,0.7,0c0.2,0.2,0.2,0.5,0,0.7l-2,2.2C417,160.2,416.9,160.2,416.8,160.2z
		 M420.8,155.8c-0.1,0-0.2,0-0.3-0.1c-0.2-0.2-0.2-0.5,0-0.7l0.2-0.2c0.2-0.2,0.5-0.2,0.7,0c0.2,0.2,0.2,0.5,0,0.7l-0.2,0.2
		C421,155.7,420.9,155.8,420.8,155.8z"/>
</g>
<g>
	<path fill="#1E2538" d="M369.5,329.2H263.7c-0.3,0-0.5-0.2-0.5-0.5s0.2-0.5,0.5-0.5h105.8c0.3,0,0.5,0.2,0.5,0.5
		S369.8,329.2,369.5,329.2z"/>
</g>
<g>
	<path fill="#1E2538" d="M575.3,335.7h-100c-0.3,0-0.5-0.2-0.5-0.5s0.2-0.5,0.5-0.5h100c0.3,0,0.5,0.2,0.5,0.5
		S575.6,335.7,575.3,335.7z"/>
</g>
<g>
	
		<rect x="464.4" y="200.9" transform="matrix(-0.7071 -0.7071 0.7071 -0.7071 677.3381 750.2653)" fill="#FFFFFF" width="59.3" height="67.9"/>
</g>
<g enable-background="new    ">
	<path fill="#1E2538" d="M481,224.1c0.1-9.8,6-15.6,15.6-15.6c9.1,0,14.7,4.2,14.7,11.9c0,10.4-10.5,11.6-10.5,19.9H492
		c0-10.6,8.4-11.2,8.4-18c0-3.1-1.8-4.5-4.9-4.5c-3.4,0-5.3,2-5.4,6.2L481,224.1z M502,251.5c0,3.4-2.4,5.8-5.8,5.8
		c-3.4,0-5.7-2.3-5.7-5.8c0-3.4,2.3-5.7,5.7-5.7C499.6,245.8,502,248.1,502,251.5z"/>
</g>
<g>
	<circle fill="#D2F4DB" cx="420.9" cy="261.6" r="39.3"/>
	<path fill="#1E2538" d="M420.9,301.4c-21.9,0-39.8-17.9-39.8-39.8s17.9-39.8,39.8-39.8c21.9,0,39.8,17.9,39.8,39.8
		S442.9,301.4,420.9,301.4z M420.9,222.7c-21.4,0-38.8,17.4-38.8,38.8c0,21.4,17.4,38.8,38.8,38.8c21.4,0,38.8-17.4,38.8-38.8
		C459.7,240.2,442.3,222.7,420.9,222.7z"/>
</g>
</svg>
