<?xml version="1.0" encoding="utf-8"?>
<!-- Generator: Adobe Illustrator 18.1.1, SVG Export Plug-In . SVG Version: 6.00 Build 0)  -->
<svg version="1.1" id="Calque_1" xmlns="http://www.w3.org/2000/svg" xmlns:xlink="http://www.w3.org/1999/xlink" x="0px" y="0px"
	 viewBox="0 0 841.9 595.3" enable-background="new 0 0 841.9 595.3" xml:space="preserve">
<g>
	<path fill="#706F6F" d="M206.7,75.2c0,0,8.6-74.9,77.3-63.8s72.4,45.4,72.4,88.4l-41.7,25.8L206.7,75.2z"/>
	<path fill="#1E2538" d="M314.7,126c-0.1,0-0.1,0-0.2,0l-108-50.3c-0.2-0.1-0.3-0.3-0.3-0.5c0-0.2,2-16.5,10.9-32.7
		c8.2-14.9,24.2-32.7,53.6-32.7c4.3,0,8.8,0.4,13.4,1.1c67.6,10.9,72.8,43.7,72.8,88.9c0,0.2-0.1,0.3-0.2,0.4L315,125.9
		C314.9,126,314.8,126,314.7,126z M207.2,74.9l107.4,50.1l41.3-25.5c0-44.5-5.3-76.9-72-87.6c-4.6-0.7-9-1.1-13.3-1.1
		c-29,0-44.7,17.5-52.8,32.2C209.9,57.6,207.6,72.4,207.2,74.9z"/>
</g>
<g>
	<path fill="#706F6F" d="M635.2,75.2c0,0-8.6-74.9-77.3-63.8s-72.4,45.4-72.4,88.4l41.7,25.8L635.2,75.2z"/>
	<path fill="#1E2538" d="M527.2,126c-0.1,0-0.2,0-0.3-0.1l-41.7-25.8c-0.1-0.1-0.2-0.3-0.2-0.4c0-45.2,5.2-78,72.8-88.9
		c4.6-0.7,9.1-1.1,13.4-1.1c29.5,0,45.4,17.8,53.6,32.7c8.9,16.1,10.8,32.5,10.9,32.7c0,0.2-0.1,0.4-0.3,0.5l-108,50.3
		C527.3,126,527.3,126,527.2,126z M486,99.5l41.3,25.5l107.4-50.1c-0.3-2.5-2.6-17.3-10.7-32c-8.1-14.7-23.8-32.2-52.7-32.2
		c-4.2,0-8.7,0.4-13.3,1.1C491.3,22.6,486,54.9,486,99.5z"/>
</g>
<g>
	<path fill="#706F6F" d="M401.9,367.7c-11-44.1-38-82-75.9-106.5c-17.1-11-35.5-19.6-57.5-24.5c-95.5-22-192.2,38-214.2,133.4
		c-20.8,95.5,38,191,134.7,214.2s192.2-38,214.2-133.4C409.2,422.8,409.2,394.6,401.9,367.7z"/>
	<path fill="#1E2538" d="M230.3,589.8C230.3,589.8,230.3,589.8,230.3,589.8c-13.9,0-27.9-1.7-41.6-5C142,573.6,102.3,545.1,77,504.6
		C51.8,464.3,43.6,416.5,53.7,370c9.1-39.4,31.8-75,64-100.1c31.7-24.7,71-38.3,110.8-38.3c13.4,0,26.9,1.5,40,4.6
		c20.3,4.5,38.7,12.3,57.7,24.6c38,24.5,65,62.4,76.1,106.8c7.2,26.2,7.6,54.3,1.2,83.5c-9.1,39.4-31.5,75-63.2,100.1
		C309,576.1,269.9,589.8,230.3,589.8z M228.5,232.6c-39.6,0-78.7,13.5-110.2,38.1c-32,25-54.6,60.3-63.7,99.5
		c-10.1,46.2-1.8,93.7,23.2,133.8c25.2,40.3,64.6,68.6,111.1,79.8c13.6,3.3,27.5,4.9,41.3,4.9c39.4,0,78.3-13.6,109.5-38.4
		c31.5-25,53.8-60.4,62.8-99.6c6.3-29,5.9-56.9-1.2-83c-11-44.1-37.9-81.8-75.7-106.2c-18.9-12.2-37.2-19.9-57.4-24.4
		C255.2,234.2,241.8,232.6,228.5,232.6z"/>
</g>
<g>
	<circle fill="#D7EEF7" cx="229.2" cy="410.5" r="145.7"/>
	<path fill="#1E2538" d="M229.2,556.7c-80.6,0-146.2-65.6-146.2-146.2c0-80.6,65.6-146.2,146.2-146.2c80.6,0,146.2,65.6,146.2,146.2
		C375.4,491.2,309.9,556.7,229.2,556.7z M229.2,265.4c-80.1,0-145.2,65.1-145.2,145.2s65.1,145.2,145.2,145.2
		s145.2-65.1,145.2-145.2S309.3,265.4,229.2,265.4z"/>
</g>
<g>
	<path fill="#706F6F" d="M432,261.4h-22.1c-9.8,0-18.4-8.6-18.4-18.4V105.6c0-9.8,8.6-18.4,18.4-18.4H432c9.8,0,18.4,8.6,18.4,18.4
		v138.7C449.2,254.1,441.8,261.4,432,261.4z"/>
	<path fill="#1E2538" d="M432,261.9h-22.1c-10.1,0-18.9-8.8-18.9-18.9V105.6c0-10.1,8.8-18.9,18.9-18.9H432
		c10.1,0,18.9,8.8,18.9,18.9v138.7C449.6,254.7,441.8,261.9,432,261.9z M409.9,87.6c-9.5,0-17.9,8.4-17.9,17.9V243
		c0,9.5,8.4,17.9,17.9,17.9H432c9.3,0,16.7-6.9,17.9-16.7l0-138.6c0-9.5-8.4-17.9-17.9-17.9H409.9z"/>
</g>
<g>
	<path fill="#706F6F" d="M269.3,236.9c20.9,4.9,40.5,13.5,56.5,24.5c36.8,23.3,62.6,60.1,74.9,101.9
		c-7.4-56.5-20.9-169.4-23.3-208.7l-1.2-11c-3.7-43-38-79.8-85.9-88.4c-50.3-8.6-97,17.2-114.1,58.9l-2.5,6.1l-97,196.4
		C115.9,252.8,192,218.5,269.3,236.9z"/>
	<path fill="#1E2538" d="M400.6,363.8c-0.2,0-0.4-0.1-0.5-0.4c-12.7-43-39.2-79.1-74.7-101.6c-16.1-11.1-35.6-19.6-56.3-24.5
		c-13.8-3.3-27.8-4.9-41.7-4.9c-30.2,0-60,7.9-86.4,22.7C115,269.9,92.8,291.3,77,316.9c-0.1,0.2-0.4,0.3-0.7,0.2
		c-0.2-0.1-0.3-0.4-0.2-0.7l97-196.4l2.4-6.1c15.2-37,52.6-60.9,95.3-60.9c6.4,0,13,0.6,19.4,1.7c47.1,8.4,82.6,45,86.3,88.8l1.2,11
		c2.5,40.5,16.4,155.7,23.3,208.5c0,0.1,0,0.1,0,0.2C401.1,363.6,400.9,363.8,400.6,363.8C400.6,363.8,400.6,363.8,400.6,363.8z
		 M227.5,231.4c14,0,28.1,1.7,41.9,5c20.9,4.9,40.5,13.4,56.6,24.6c34.1,21.6,60,55.8,73.3,96.6c-7.1-55-20.1-163.8-22.6-202.9
		l-1.2-11c-3.7-43.4-38.9-79.6-85.5-87.9c-6.4-1.1-12.8-1.6-19.2-1.6c-42.3,0-79.3,23.7-94.4,60.3l-2.5,6.1L80.8,309.2
		c15.5-22.6,36-41.5,59.8-54.9C167.1,239.3,197.1,231.4,227.5,231.4z"/>
</g>
<g>
	<path fill="#706F6F" d="M440,367.6c11-43.9,37.8-81.6,75.5-106c17.1-11,35.3-19.5,57.3-24.4C667.8,215.3,764,275,786,370
		s-37.8,191.3-132.8,213.2c-95,21.9-191.3-37.8-213.2-132.8C432.7,421.2,433.9,393.2,440,367.6z"/>
	<path fill="#1E2538" d="M613.4,588.3c-39.6,0-78.7-13.5-110.2-38.1c-32-25-54.6-60.3-63.7-99.6c-6.7-26.9-6.7-54.8,0-83.1
		c11-44.2,37.9-81.9,75.7-106.3c18.9-12.2,37.2-19.9,57.4-24.4c13.1-3,26.5-4.5,39.8-4.5c39.6,0,78.7,13.5,110.2,38.1
		c32,25,54.6,60.3,63.7,99.6c10.6,46.1,2.6,93.8-22.6,134.4c-25.2,40.6-64.5,68.8-110.6,79.4C640.2,586.7,626.8,588.3,613.4,588.3z
		 M612.5,233.2c-13.3,0-26.6,1.5-39.6,4.5c-20.1,4.5-38.3,12.2-57.1,24.3c-37.6,24.3-64.3,61.8-75.3,105.7
		c-6.7,28.1-6.7,55.9,0,82.6c9,39,31.5,74.2,63.3,99c31.3,24.4,70.3,37.9,109.6,37.9c13.3,0,26.6-1.5,39.6-4.5
		c45.8-10.6,84.8-38.6,109.9-79c25.1-40.3,33.1-87.8,22.5-133.6c-9-39-31.5-74.2-63.3-99C690.8,246.7,651.9,233.2,612.5,233.2z"/>
</g>
<g>
	<circle fill="#D7EEF7" cx="611.8" cy="409" r="145"/>
	<path fill="#1E2538" d="M611.8,554.5c-80.2,0-145.5-65.3-145.5-145.5s65.3-145.5,145.5-145.5S757.2,328.8,757.2,409
		S692,554.5,611.8,554.5z M611.8,264.6c-79.7,0-144.5,64.8-144.5,144.5s64.8,144.5,144.5,144.5S756.2,488.7,756.2,409
		S691.4,264.6,611.8,264.6z"/>
</g>
<g>
	<path fill="#706F6F" d="M572.6,236.9c-20.9,4.9-40.5,13.5-56.5,24.5c-36.8,23.3-62.6,60.1-74.9,101.9
		c7.4-56.5,20.9-169.4,23.3-208.7l1.2-11c3.7-43,38-79.8,85.9-88.4c50.3-8.6,97,17.2,114.1,58.9l2.5,6.1l97,198.8
		C727.2,254.1,649.9,219.7,572.6,236.9z"/>
	<path fill="#1E2538" d="M441.3,363.8c0,0-0.1,0-0.1,0c-0.3-0.1-0.4-0.3-0.4-0.6c6.9-52.8,20.8-168.1,23.3-208.6l1.2-11.1
		c3.8-43.8,39.3-80.4,86.3-88.8c6.4-1.1,13-1.7,19.4-1.7c42.7,0,80.1,23.9,95.3,60.9l2.5,6.1l96.9,198.7c0.1,0.1,0.1,0.2,0.1,0.3
		c0,0.3-0.2,0.5-0.5,0.5c0,0,0,0,0,0c-0.2,0-0.3-0.1-0.4-0.2c-31.2-53.3-89.6-86.4-152.4-86.4c-13.3,0-26.7,1.5-39.8,4.4
		c-20.7,4.9-40.2,13.3-56.3,24.5c-35.5,22.5-62,58.6-74.7,101.6C441.7,363.7,441.5,363.8,441.3,363.8z M571,54.1
		c-6.4,0-12.8,0.6-19.2,1.6c-46.6,8.4-81.8,44.5-85.5,87.9l-1.2,11.1c-2.4,39.1-15.5,147.9-22.6,202.9c13.3-40.8,39.2-75,73.4-96.6
		c16.2-11.2,35.7-19.7,56.6-24.6c13.2-2.9,26.6-4.4,40-4.4c59.9,0,115.8,29.9,148.2,78.7l-92.7-190.2l-2.5-6.2
		C650.3,77.7,613.3,54.1,571,54.1z"/>
</g>
<g>
	<path fill="none" d="M327.2,426.5l39.2,33.1c2.4-4.9,3.7-11,4.9-17.1c18.4-78.4-30.6-156.7-109-175.1
		c-78.4-17.1-156.7,31.8-175.1,110.2s30.6,156.7,109,175.1c46.5,11,91.8-1.2,126.1-29.4l-41.6-40.4L327.2,426.5z"/>
</g>
<g>
	<path fill="#C1DFF7" d="M327.2,426.5l-42.7,38.7l-98.1-76.7l-88.1,86.9c18.4,38,53.9,67.3,97.9,77.1c46.5,11,91.8-1.2,126.1-29.4
		l-1.6-2.9l1.6,1.6c19.6-15.9,34.3-36.7,44.1-62.4L327.2,426.5z"/>
</g>
<g>
	<path fill="#1E2538" d="M611.8,554.5c-80.2,0-145.5-65.3-145.5-145.5s65.3-145.5,145.5-145.5S757.2,328.8,757.2,409
		S692,554.5,611.8,554.5z M611.8,264.6c-79.7,0-144.5,64.8-144.5,144.5s64.8,144.5,144.5,144.5S756.2,488.7,756.2,409
		S691.4,264.6,611.8,264.6z"/>
</g>
<g opacity="0.5" enable-background="new    ">
	<path fill="#FFFFFF" d="M137.4,416.7c-7.3,0-13.5-6.1-13.5-13.5c0-50.2,40.4-91.8,91.8-91.8c7.3,0,13.5,6.1,13.5,13.5
		s-6.1,13.5-13.5,13.5c-35.5,0-64.9,29.4-64.9,64.9C150.9,410.5,144.8,416.7,137.4,416.7z"/>
</g>
<g>
	<path fill="#1E2538" d="M611.8,554.5c-80.2,0-145.5-65.3-145.5-145.5s65.3-145.5,145.5-145.5S757.2,328.8,757.2,409
		S692,554.5,611.8,554.5z M611.8,264.6c-79.7,0-144.5,64.8-144.5,144.5s64.8,144.5,144.5,144.5S756.2,488.7,756.2,409
		S691.4,264.6,611.8,264.6z"/>
</g>
<g>
	<path fill="#C1DFF7" d="M611.8,554c75.3,0,137.2-57.4,144.3-130.9l-38.3-32.3L684.9,420l-40.2-28l-88.9,62.1c-2.4,0-4.9-1.2-7.3,0
		c-19.5,3.7-32.9-9.7-49.9-12.2c-13.5-1.9-23.2,3-26.6,5.1C488.6,508.7,544.9,554,611.8,554z"/>
</g>
<g opacity="0.5" enable-background="new    ">
	<path fill="#FFFFFF" d="M703.1,416.3c7.3,0,13.4-6.1,13.4-13.4c0-49.9-40.2-91.4-91.4-91.4c-7.3,0-13.4,6.1-13.4,13.4
		s6.1,13.4,13.4,13.4c35.3,0,64.6,29.2,64.6,64.6C689.7,410.2,695.8,416.3,703.1,416.3z"/>
</g>
<g>
	<path fill="#C1DFF7" d="M273.3,320c0,20.8,17.1,38,38,38c18.4,0,34.3-13.5,36.7-30.6c-12.2-18.4-28.2-33.1-47.7-44.1
		C285.6,288.1,273.3,302.8,273.3,320z"/>
</g>
<g>
	<path fill="#1E2538" d="M229.2,556.7c-80.6,0-146.2-65.6-146.2-146.2c0-80.6,65.6-146.2,146.2-146.2c80.6,0,146.2,65.6,146.2,146.2
		C375.4,491.2,309.9,556.7,229.2,556.7z M229.2,265.4c-80.1,0-145.2,65.1-145.2,145.2s65.1,145.2,145.2,145.2
		s145.2-65.1,145.2-145.2S309.3,265.4,229.2,265.4z"/>
</g>
<g>
	<path fill="#1E2538" d="M611.8,554.5c-80.2,0-145.5-65.3-145.5-145.5s65.3-145.5,145.5-145.5S757.2,328.8,757.2,409
		S692,554.5,611.8,554.5z M611.8,264.6c-79.7,0-144.5,64.8-144.5,144.5s64.8,144.5,144.5,144.5S756.2,488.7,756.2,409
		S691.4,264.6,611.8,264.6z"/>
</g>
</svg>
