<?xml version="1.0" encoding="utf-8"?>
<!-- Generator: Adobe Illustrator 18.1.1, SVG Export Plug-In . SVG Version: 6.00 Build 0)  -->
<svg version="1.1" id="Calque_1" xmlns="http://www.w3.org/2000/svg" xmlns:xlink="http://www.w3.org/1999/xlink" x="0px" y="0px"
	 viewBox="0 0 62 48.5" enable-background="new 0 0 62 48.5" xml:space="preserve">
<path fill="#706F6F" stroke="#1E2538" stroke-linecap="round" stroke-linejoin="round" stroke-miterlimit="10" d="M13.3,5.8
	c0,0,0.7-6.1,6.3-5.2s5.9,3.7,5.9,7.2l-3.4,2.1L13.3,5.8z"/>
<path fill="#706F6F" stroke="#1E2538" stroke-linecap="round" stroke-linejoin="round" stroke-miterlimit="10" d="M48.7,5.8
	c0,0-0.7-6.1-6.3-5.2s-5.9,3.7-5.9,7.2l3.4,2.1L48.7,5.8z"/>
<path fill="#706F6F" stroke="#1E2538" stroke-linecap="round" stroke-linejoin="round" stroke-miterlimit="10" d="M29.2,30
	c-0.9-3.6-3.1-6.7-6.2-8.7c-1.4-0.9-2.9-1.6-4.7-2c-7.8-1.8-15.7,3.1-17.5,10.9C-0.9,38,3.9,45.8,11.8,47.7s15.7-3.1,17.5-10.9
	C29.8,34.5,29.8,32.2,29.2,30z"/>
<circle fill="#D7EEF7" stroke="#1E2538" stroke-linecap="round" stroke-linejoin="round" stroke-miterlimit="10" cx="15.1" cy="33.5" r="11.9"/>
<path fill="#706F6F" stroke="#1E2538" stroke-linecap="round" stroke-linejoin="round" stroke-miterlimit="10" d="M31.9,21.3h-1.8
	c-0.8,0-1.5-0.7-1.5-1.5V8.6c0-0.8,0.7-1.5,1.5-1.5h1.8c0.8,0,1.5,0.7,1.5,1.5v11.3C33.3,20.7,32.7,21.3,31.9,21.3z"/>
<path fill="#706F6F" stroke="#1E2538" stroke-linecap="round" stroke-linejoin="round" stroke-miterlimit="10" d="M18.4,19.3
	c1.7,0.4,3.3,1.1,4.6,2c3,1.9,5.1,4.9,6.1,8.3c-0.6-4.6-1.7-13.8-1.9-17l-0.1-0.9c-0.3-3.5-3.1-6.5-7-7.2c-4.1-0.7-7.9,1.4-9.3,4.8
	l-0.2,0.5L2.7,25.8C5.9,20.6,12.1,17.8,18.4,19.3z"/>
<path fill="#706F6F" stroke="#1E2538" stroke-linecap="round" stroke-linejoin="round" stroke-miterlimit="10" d="M32.8,29.8
	c0.9-3.6,3.1-6.7,6.2-8.7c1.4-0.9,2.9-1.6,4.7-2c7.8-1.8,15.7,3.1,17.5,10.9c1.8,7.8-3.1,15.7-10.9,17.5s-15.7-3.1-17.5-10.9
	C32.2,34.2,32.3,31.9,32.8,29.8z"/>
<circle fill="#D7EEF7" stroke="#1E2538" stroke-linecap="round" stroke-linejoin="round" stroke-miterlimit="10" cx="46.9" cy="33.2" r="11.9"/>
<path fill="#706F6F" stroke="#1E2538" stroke-linecap="round" stroke-linejoin="round" stroke-miterlimit="10" d="M43.6,19
	c-1.7,0.4-3.3,1.1-4.6,2c-3,1.9-5.1,4.9-6.1,8.3c0.6-4.6,1.7-13.8,1.9-17l0.1-0.9c0.3-3.5,3.1-6.5,7-7.2c4.1-0.7,7.9,1.4,9.3,4.8
	l0.2,0.5l7.9,16.2C56.2,20.4,49.9,17.6,43.6,19z"/>
<path fill="#C1DFF7" d="M11.6,31.7l-7.2,7.1c1.5,3.1,4.4,5.5,8,6.3c3.8,0.9,7.5-0.1,10.3-2.4l-2.4-4.2L11.6,31.7z"/>
<path fill="none" d="M23.1,34.8l3.2,2.7c0.2-0.4,0.3-0.9,0.4-1.4c1.5-6.4-2.5-12.8-8.9-14.3C11.4,20.4,5,24.4,3.5,30.8
	C2,37.2,6,43.6,12.4,45.1c3.8,0.9,7.5-0.1,10.3-2.4l-3.4-3.3L23.1,34.8z"/>
<path fill="#C1DFF7" d="M26.3,37.5l-3.2-2.7l-4.3,3.9l3.9,3.9C24.3,41.3,25.5,39.6,26.3,37.5z"/>
<circle fill="none" stroke="#1E2538" stroke-linecap="round" stroke-linejoin="round" stroke-miterlimit="10" cx="46.9" cy="33.2" r="11.9"/>
<path opacity="0.5" fill="#FFFFFF" d="M7.6,34c-0.6,0-1.1-0.5-1.1-1.1c0-4.1,3.3-7.5,7.5-7.5c0.6,0,1.1,0.5,1.1,1.1
	c0,0.6-0.5,1.1-1.1,1.1c-2.9,0-5.3,2.4-5.3,5.3C8.7,33.5,8.2,34,7.6,34z"/>
<path fill="#C1DFF7" d="M57.7,36.3c0.6-0.9,1.1-1.8,1.5-2.9l-3.2-2.7l-2.7,2.4L50,30.8l-7.3,5.1c-0.2,0-0.4-0.1-0.6,0
	c-1.6,0.3-2.7-0.8-4.1-1c-1.4-0.2-2.3,0.5-2.3,0.5l1.6,4.2l-0.4,0.1l0.6,0.6l0.2,0.6l0.3-0.1l3.6,3.2l6.4,1.5l-0.3-0.8
	c3.7,0.8,5.3-1,8-3.3l2.3-3.7L57.7,36.3z"/>
<circle fill="none" stroke="#1E2538" stroke-linecap="round" stroke-linejoin="round" stroke-miterlimit="10" cx="46.9" cy="33.2" r="11.9"/>
<path opacity="0.5" fill="#FFFFFF" d="M54.4,33.8c0.6,0,1.1-0.5,1.1-1.1c0-4.1-3.3-7.5-7.5-7.5c-0.6,0-1.1,0.5-1.1,1.1
	c0,0.6,0.5,1.1,1.1,1.1c2.9,0,5.3,2.4,5.3,5.3C53.3,33.3,53.8,33.8,54.4,33.8z"/>
<path fill="#C1DFF7" d="M18.7,26.1c0,1.7,1.4,3.1,3.1,3.1c1.5,0,2.8-1.1,3-2.5c-1-1.5-2.3-2.7-3.9-3.6
	C19.7,23.5,18.7,24.7,18.7,26.1z"/>
<circle fill="none" stroke="#1E2538" stroke-linecap="round" stroke-linejoin="round" stroke-miterlimit="10" cx="15.1" cy="33.5" r="11.9"/>
</svg>
